<svg width="24" height="24" viewBox="0 0 24 24" fill="none" xmlns="http://www.w3.org/2000/svg">
<g clip-path="url(#clip0_355_4945)">
<path d="M7.24863 6H16.7513C16.8565 5.99999 16.9602 6.02486 17.0539 6.0726C17.1477 6.12034 17.2288 6.18958 17.2906 6.27467L19.8393 9.77867C19.8846 9.84101 19.9069 9.91714 19.9024 9.99408C19.8979 10.071 19.8669 10.144 19.8146 10.2007L12.2446 18.4013C12.2134 18.4351 12.1756 18.462 12.1335 18.4804C12.0914 18.4988 12.0459 18.5083 12 18.5083C11.954 18.5083 11.9086 18.4988 11.8665 18.4804C11.8244 18.462 11.7865 18.4351 11.7553 18.4013L4.1853 10.2013C4.13287 10.1446 4.10175 10.0715 4.09725 9.99442C4.09275 9.91733 4.11515 9.84107 4.16063 9.77867L6.7093 6.27467C6.77115 6.18958 6.85226 6.12034 6.946 6.0726C7.03974 6.02486 7.14344 5.99999 7.24863 6Z" fill="white"/>
</g>
<defs>
<clipPath id="clip0_355_4945">
<rect width="16" height="16" fill="white" transform="translate(4 4)"/>
</clipPath>
</defs>
</svg>
