<svg width="20" height="20" viewBox="0 0 20 20" fill="none" xmlns="http://www.w3.org/2000/svg">
<path d="M16.3047 8.75006H11.25V3.69537C11.25 3.03522 10.6914 2.50006 10 2.50006C9.30859 2.50006 8.75 3.03522 8.75 3.69537V8.75006H3.69531C3.03516 8.75006 2.5 9.30865 2.5 10.0001C2.5 10.6915 3.03516 11.2501 3.69531 11.2501H8.75V16.3047C8.75 16.9649 9.30859 17.5001 10 17.5001C10.6914 17.5001 11.25 16.9649 11.25 16.3047V11.2501H16.3047C16.9648 11.2501 17.5 10.6915 17.5 10.0001C17.5 9.30865 16.9648 8.75006 16.3047 8.75006Z" fill="#1D84F3"/>
</svg>
