<svg width="24" height="24" viewBox="0 0 24 24" fill="none" xmlns="http://www.w3.org/2000/svg">
<g clip-path="url(#clip0_355_4806)">
<path d="M19.97 10H3.97V18C3.97 21 4.97 22 7.97 22H15.97C18.97 22 19.97 21 19.97 18V10ZM21.5 7V8C21.5 9.1 20.97 10 19.5 10H4.5C2.97 10 2.5 9.1 2.5 8V7C2.5 5.9 2.97 5 4.5 5H19.5C20.97 5 21.5 5.9 21.5 7ZM11.64 5H6.12C5.95557 4.82166 5.8668 4.58645 5.8724 4.34394C5.87799 4.10143 5.97752 3.87057 6.15 3.7L7.57 2.28C7.74972 2.10229 7.99226 2.00262 8.245 2.00262C8.49774 2.00262 8.74028 2.10229 8.92 2.28L11.64 5ZM17.87 5H12.35L15.07 2.28C15.2497 2.10229 15.4923 2.00262 15.745 2.00262C15.9977 2.00262 16.2403 2.10229 16.42 2.28L17.84 3.7C18.2 4.06 18.21 4.63 17.87 5Z" stroke="black" stroke-width="1.5" stroke-miterlimit="10" stroke-linecap="round" stroke-linejoin="round"/>
<path d="M8.93994 10V15.14C8.93994 15.94 9.81994 16.41 10.4899 15.98L11.4299 15.36C11.5932 15.2525 11.7844 15.1952 11.9799 15.1952C12.1754 15.1952 12.3667 15.2525 12.5299 15.36L13.4199 15.96C13.5701 16.0601 13.7447 16.1176 13.9249 16.1263C14.1052 16.135 14.2845 16.0945 14.4436 16.0093C14.6027 15.9241 14.7357 15.7973 14.8284 15.6425C14.9211 15.4876 14.97 15.3105 14.9699 15.13V10H8.93994Z" stroke="black" stroke-width="1.5" stroke-miterlimit="10" stroke-linecap="round" stroke-linejoin="round"/>
</g>
<defs>
<clipPath id="clip0_355_4806">
<rect width="24" height="24" fill="white"/>
</clipPath>
</defs>
</svg>
