<svg width="24" height="24" viewBox="0 0 24 24" fill="none" xmlns="http://www.w3.org/2000/svg">
<path d="M18.6625 3.81247L17.925 4.29997C17.8335 4.36424 17.7243 4.39873 17.6125 4.39873C17.5007 4.39873 17.3915 4.36424 17.3 4.29997L16.05 3.44997C15.9585 3.38569 15.8493 3.3512 15.7375 3.3512C15.6257 3.3512 15.5165 3.38569 15.425 3.44997L14.175 4.29997C14.0835 4.36424 13.9743 4.39873 13.8625 4.39873C13.7507 4.39873 13.6415 4.36424 13.55 4.29997L12.3 3.44997C12.2085 3.38569 12.0993 3.3512 11.9875 3.3512C11.8757 3.3512 11.7665 3.38569 11.675 3.44997L10.425 4.29997C10.3335 4.36424 10.2243 4.39873 10.1125 4.39873C10.0007 4.39873 9.89153 4.36424 9.8 4.29997L8.55 3.44997C8.45847 3.38569 8.34935 3.3512 8.2375 3.3512C8.12565 3.3512 8.01653 3.38569 7.925 3.44997L6.675 4.29997C6.58347 4.36424 6.47435 4.39873 6.3625 4.39873C6.25065 4.39873 6.14153 4.36424 6.05 4.29997L5.3375 3.81247C5.25589 3.76006 5.16175 3.73044 5.06484 3.72667C4.96792 3.7229 4.87177 3.74512 4.78633 3.79102C4.7009 3.83693 4.6293 3.90485 4.57895 3.98774C4.5286 4.07064 4.50135 4.16549 4.5 4.26247V19.7375C4.50135 19.8344 4.5286 19.9293 4.57895 20.0122C4.6293 20.0951 4.7009 20.163 4.78633 20.2089C4.87177 20.2548 4.96792 20.277 5.06484 20.2733C5.16175 20.2695 5.25589 20.2399 5.3375 20.1875L6.075 19.7C6.16653 19.6357 6.27565 19.6012 6.3875 19.6012C6.49935 19.6012 6.60847 19.6357 6.7 19.7L7.95 20.55C8.04153 20.6142 8.15065 20.6487 8.2625 20.6487C8.37435 20.6487 8.48347 20.6142 8.575 20.55L9.825 19.7C9.91653 19.6357 10.0257 19.6012 10.1375 19.6012C10.2493 19.6012 10.3585 19.6357 10.45 19.7L11.7 20.55C11.7915 20.6142 11.9007 20.6487 12.0125 20.6487C12.1243 20.6487 12.2335 20.6142 12.325 20.55L13.575 19.7C13.6665 19.6357 13.7757 19.6012 13.8875 19.6012C13.9993 19.6012 14.1085 19.6357 14.2 19.7L15.45 20.55C15.5415 20.6142 15.6507 20.6487 15.7625 20.6487C15.8743 20.6487 15.9835 20.6142 16.075 20.55L17.325 19.7C17.4165 19.6357 17.5257 19.6012 17.6375 19.6012C17.7493 19.6012 17.8585 19.6357 17.95 19.7L18.6875 20.1875C18.7686 20.2337 18.8601 20.2582 18.9534 20.2588C19.0467 20.2593 19.1386 20.2359 19.2202 20.1907C19.3018 20.1455 19.3704 20.0801 19.4194 20.0007C19.4684 19.9213 19.4962 19.8307 19.5 19.7375V4.26247C19.4987 4.16549 19.4714 4.07064 19.4211 3.98774C19.3707 3.90485 19.2991 3.83693 19.2137 3.79102C19.1282 3.74512 19.0321 3.7229 18.9352 3.72667C18.8383 3.73044 18.7441 3.76006 18.6625 3.81247ZM13.25 15.9062V16.375C13.25 16.6236 13.1512 16.8621 12.9754 17.0379C12.7996 17.2137 12.5611 17.3125 12.3125 17.3125C12.0639 17.3125 11.8254 17.2137 11.6496 17.0379C11.4738 16.8621 11.375 16.6236 11.375 16.375V15.925C10.8505 15.8495 10.3379 15.7066 9.85 15.5C9.67006 15.4299 9.51478 15.3084 9.4036 15.1505C9.29243 14.9926 9.2303 14.8055 9.225 14.6125C9.22249 14.4889 9.24477 14.3661 9.29053 14.2513C9.33628 14.1364 9.40458 14.032 9.49139 13.944C9.5782 13.856 9.68176 13.7863 9.79595 13.7391C9.91015 13.6918 10.0327 13.6679 10.1562 13.6687C10.2917 13.6683 10.4258 13.696 10.55 13.75C11.0816 13.9841 11.6566 14.1034 12.2375 14.1C13.3875 14.1 13.3875 13.7 13.3875 13.525C13.3875 13.2312 12.5875 13.1125 12.1375 12.9937C11.0062 12.7062 9.29375 12.2687 9.29375 10.4937C9.31726 9.92101 9.53685 9.37377 9.91575 8.94368C10.2946 8.51358 10.8098 8.22674 11.375 8.13122V7.62497C11.375 7.37632 11.4738 7.13787 11.6496 6.96205C11.8254 6.78624 12.0639 6.68747 12.3125 6.68747C12.5611 6.68747 12.7996 6.78624 12.9754 6.96205C13.1512 7.13787 13.25 7.37632 13.25 7.62497V8.06247C13.6657 8.11264 14.0745 8.20907 14.4688 8.34997C14.6542 8.41148 14.8151 8.53091 14.9276 8.69068C15.0401 8.85044 15.0983 9.04211 15.0938 9.23746C15.0954 9.36028 15.0727 9.48221 15.0271 9.59623C14.9814 9.71026 14.9136 9.81412 14.8277 9.90184C14.7417 9.98956 14.6392 10.0594 14.5261 10.1074C14.413 10.1553 14.2916 10.1804 14.1687 10.1812C14.0475 10.1851 13.9266 10.166 13.8125 10.125C13.376 9.97542 12.9177 9.89939 12.4562 9.89997C11.9125 9.89997 11.275 10.05 11.275 10.4625C11.275 10.7437 11.6625 10.8812 12.5875 11.0875C13.6938 11.35 15.3687 11.7562 15.3687 13.5875C15.3687 14.7562 14.5 15.625 13.25 15.9062Z" fill="#646669"/>
</svg>
