<?xml version="1.0" encoding="UTF-8"?>
<svg width="12px" height="12px" viewBox="0 0 12 12" version="1.1" xmlns="http://www.w3.org/2000/svg" xmlns:xlink="http://www.w3.org/1999/xlink">
    <title>Bin</title>
    <g id="Page-1" stroke="none" stroke-width="1" fill="none" fill-rule="evenodd">
        <g id="15(Elite)" transform="translate(-431, -412)">
            <g id="Group-4" transform="translate(429, 410)">
                <g id="Bin" transform="translate(2, 2)">
                    <rect id="Trash" x="0" y="0" width="12" height="12"></rect>
                    <path d="M4.875,10.5 C2.63175,10.5 2.625,10.495875 2.625,8.25" id="Path" stroke="#EC3131" stroke-width="0.745777126"></path>
                    <path d="M4.125,3.375 C4.125,1.505625 4.12875,1.5 6,1.5" id="Path" stroke="#EC3131" stroke-width="0.745777126"></path>
                    <path d="M7.875,3.1875 C7.875,1.504875 7.87125,1.5 6,1.5" id="Path" stroke="#EC3131" stroke-width="0.745777126"></path>
                    <path d="M9.375,8.25 C9.375,10.49325 9.370875,10.5 7.125,10.5" id="Path" stroke="#EC3131" stroke-width="0.745777126"></path>
                    <line x1="4.875" y1="10.5" x2="7.125" y2="10.5" id="Path" stroke="#EC3131" stroke-width="0.745777126"></line>
                    <line x1="9.375" y1="3.375" x2="9.37575" y2="8.625" id="Path" stroke="#EC3131" stroke-width="0.745777126"></line>
                    <line x1="2.625" y1="3.375" x2="2.625" y2="8.625" id="Path" stroke="#EC3131" stroke-width="0.745777126"></line>
                    <line x1="10.5" y1="3.375" x2="1.5" y2="3.375" id="Path" stroke="#EC3131" stroke-width="0.745777126"></line>
                    <line x1="4.5" y1="5.25" x2="4.5" y2="8.625" id="Path" stroke="#EC3131" stroke-width="0.745777126"></line>
                    <line x1="6" y1="5.25" x2="6" y2="8.625" id="Path" stroke="#EC3131" stroke-width="0.745777126"></line>
                    <line x1="7.5" y1="5.25" x2="7.5" y2="8.625" id="Path" stroke="#EC3131" stroke-width="0.745777126"></line>
                </g>
            </g>
        </g>
    </g>
</svg>