<svg width="18" height="18" viewBox="0 0 18 18" fill="none" xmlns="http://www.w3.org/2000/svg">
<path fill-rule="evenodd" clip-rule="evenodd" d="M15.1271 5.40745C15.1271 4.79626 14.6316 4.30072 14.0203 4.30072C11.7056 4.30072 6.37651 4.30072 4.06181 4.30072C3.45062 4.30072 2.95508 4.79626 2.95508 5.40745C2.95508 7.47057 2.95508 11.8812 2.95508 13.9442C2.95508 14.5555 3.45062 15.051 4.06181 15.051C6.37651 15.051 11.7056 15.051 14.0203 15.051C14.6316 15.051 15.1271 14.5555 15.1271 13.9442C15.1271 11.8812 15.1271 7.47057 15.1271 5.40745Z" stroke="#525252" stroke-width="1.08866" stroke-miterlimit="1.5" stroke-linecap="round" stroke-linejoin="round"/>
<path d="M5.91846 2.87073V5.48267" stroke="#525252" stroke-width="1.08866" stroke-miterlimit="1.5" stroke-linecap="round" stroke-linejoin="round"/>
<path d="M12.0126 2.87073V5.48267" stroke="#525252" stroke-width="1.08866" stroke-miterlimit="1.5" stroke-linecap="round" stroke-linejoin="round"/>
<path d="M2.95508 8.09467H15.1267" stroke="#525252" stroke-width="1.08866" stroke-miterlimit="1.5" stroke-linecap="round" stroke-linejoin="round"/>
</svg>
