<svg width="24" height="24" viewBox="0 0 24 24" fill="none" xmlns="http://www.w3.org/2000/svg">
<g clip-path="url(#clip0_355_4756)">
<path fill-rule="evenodd" clip-rule="evenodd" d="M12.0035 3.255C16.8351 3.255 20.7535 7.17339 20.7535 12.0051C20.7535 16.8367 16.8351 20.7551 12.0035 20.7551C7.1718 20.7551 3.25342 16.8367 3.25342 12.0051C3.25342 7.17339 7.1718 3.255 12.0035 3.255Z" fill="#009930"/>
<path d="M8.04426 12.7032L10.1865 14.8472C10.1962 14.8578 10.206 14.8682 10.2163 14.8785C10.5813 15.2436 11.1774 15.2431 11.542 14.8785L15.963 10.4575C16.3276 10.0929 16.3281 9.49684 15.963 9.13181C15.5979 8.76669 15.0024 8.76669 14.6372 9.13181L10.8802 12.8888L9.36997 11.3774C9.00752 11.0146 8.40937 11.0123 8.04426 11.3774C7.67922 11.7425 7.6793 12.338 8.04426 12.7032Z" fill="white"/>
</g>
<defs>
<clipPath id="clip0_355_4756">
<rect width="20" height="20" fill="white" transform="translate(2 2)"/>
</clipPath>
</defs>
</svg>
