<svg width="24" height="24" viewBox="0 0 24 24" fill="none" xmlns="http://www.w3.org/2000/svg">
<circle cx="12" cy="12" r="8" fill="#FF0E0E"/>
<path d="M9.63085 8.83893L9.68267 8.88468L12.0164 11.2185L14.3501 8.88468C14.5649 8.66987 14.9132 8.66987 15.128 8.88468C15.3263 9.08297 15.3415 9.39498 15.1738 9.61077L15.128 9.66259L12.7942 11.9963L15.128 14.33C15.3428 14.5448 15.3428 14.8931 15.128 15.1079C14.9297 15.3062 14.6177 15.3215 14.4019 15.1537L14.3501 15.1079L12.0164 12.7741L9.68267 15.1079C9.46786 15.3227 9.11957 15.3227 8.90476 15.1079C8.70647 14.9096 8.69122 14.5976 8.859 14.3818L8.90476 14.33L11.2386 11.9963L8.90476 9.66259C8.68995 9.44778 8.68995 9.09949 8.90476 8.88468C9.10305 8.68639 9.41507 8.67114 9.63085 8.83893Z" fill="white" stroke="white" stroke-width="0.6"/>
</svg>
