<svg width="148" height="148" viewBox="0 0 148 148" fill="none" xmlns="http://www.w3.org/2000/svg">
<rect width="148" height="148" fill="white"/>
<path d="M101.181 34.8185L90.272 13H31.362C27.7619 13 24.8164 15.9455 24.8164 19.5456V51.1824H90.1357C96.234 51.1824 101.181 56.1298 101.181 62.2281V100.138C101.181 106.236 96.234 111.183 90.1357 111.183H24.8164V126.456C24.8164 130.056 27.7619 133.002 31.362 133.002H116.454C120.054 133.002 123 130.056 123 126.456V45.7278L101.181 34.8185Z" fill="#E6E9EE"/>
<path opacity="0.5" d="M104.798 36.6295L95.5683 52.6171C98.9175 54.5153 101.181 58.1044 101.181 62.2281V100.138C101.181 106.236 96.2338 111.183 90.1355 111.183H61.755L49.8857 131.737C50.9658 132.527 52.2912 133.002 53.7258 133.002H116.454C120.054 133.002 123 130.057 123 126.456V45.7279L104.798 36.6295Z" fill="#CCD0D9"/>
<path d="M90.2725 13V39.1823C90.2725 42.7823 93.218 45.7278 96.818 45.7278H123L90.2725 13Z" fill="#AAB2BD"/>
<path d="M90.1378 105.729H8.591C5.50368 105.729 3 103.225 3 100.138V62.2281C3 59.1408 5.50368 56.6371 8.591 56.6371H90.1378C93.2251 56.6371 95.7288 59.1408 95.7288 62.2281V100.138C95.7288 103.225 93.2251 105.729 90.1378 105.729Z" fill="#4B89DC"/>
<path d="M35.6727 67.4536C33.1526 66.3082 30.1799 65.73 26.8416 65.73C23.6725 65.73 20.8633 66.3736 18.496 67.6391C16.096 68.9264 14.236 70.781 12.965 73.1537C11.7105 75.4992 11.0723 78.2484 11.0723 81.3357C11.0723 86.2667 12.4032 90.1449 15.0378 92.8722C17.6778 95.6105 21.4415 97.0014 26.2143 97.0014C29.4217 97.0014 32.1708 96.6087 34.3908 95.8396C34.8272 95.6868 35.1163 95.2777 35.1163 94.8141V91.9286C35.1163 91.5904 34.9581 91.274 34.6963 91.0722C34.429 90.8649 34.0854 90.7995 33.7581 90.8813C31.1344 91.5631 28.778 91.9122 26.7543 91.9122C23.5797 91.9122 21.2233 91.034 19.5488 89.2286C17.8797 87.4231 17.0342 84.783 17.0342 81.3793C17.0342 78.0793 17.9124 75.4665 19.6524 73.6119C21.3924 71.7519 23.7325 70.8464 26.798 70.8464C28.9471 70.8464 31.129 71.3264 33.289 72.2646C33.8072 72.4937 34.4127 72.281 34.6799 71.7792L36.18 68.9537C36.3218 68.6919 36.3436 68.3809 36.2509 68.0973C36.1527 67.8082 35.9454 67.5736 35.6727 67.4536Z" fill="white"/>
<path d="M50.6909 78.832C48.8636 78.2266 47.4999 77.6702 46.6381 77.1847C45.8799 76.7538 45.3453 76.3011 45.0562 75.832C44.778 75.3847 44.6362 74.7683 44.6362 73.9938C44.6362 73.0174 44.9962 72.3083 45.7653 71.7628C46.6326 71.1519 47.8981 70.841 49.5399 70.841C51.7709 70.841 54.1109 71.3101 56.4892 72.2374C56.7564 72.341 57.0564 72.3355 57.3183 72.221C57.5801 72.1065 57.7874 71.8883 57.891 71.621L58.9983 68.7573C59.211 68.2064 58.9437 67.5846 58.3928 67.3609C55.731 66.2809 52.78 65.73 49.6218 65.73C46.4963 65.73 43.9217 66.45 41.9744 67.8737C39.9234 69.3737 38.8816 71.4192 38.8816 73.9556C38.8816 76.312 39.5961 78.2593 41.0034 79.7538C42.3562 81.1884 44.4944 82.3775 47.5326 83.3921C49.4963 84.0412 50.9636 84.6194 51.9018 85.1212C52.7364 85.563 53.32 86.0321 53.6418 86.5067C53.9418 86.9485 54.0891 87.554 54.0891 88.3067C54.0891 89.4413 53.6691 90.2595 52.7582 90.8922C51.7545 91.5904 50.1672 91.945 48.0399 91.945C46.6708 91.945 45.2635 91.8086 43.8671 91.5359C42.4653 91.2631 41.1562 90.8922 39.9671 90.4286C39.6343 90.2977 39.258 90.3413 38.958 90.5431C38.6634 90.7449 38.4834 91.0831 38.4834 91.4377V94.6123C38.4834 95.0432 38.7343 95.4305 39.127 95.605C41.2325 96.5432 44.1071 96.996 47.909 96.996C51.46 96.996 54.34 96.2214 56.4673 94.6995C58.7037 93.0959 59.8383 90.8377 59.8383 87.9904C59.8383 85.7649 59.1237 83.9212 57.7219 82.503C56.3801 81.1611 54.0837 79.9557 50.6909 78.832Z" fill="white"/>
<path d="M87.9715 66.6081C87.7697 66.3136 87.437 66.139 87.077 66.139H83.2587C82.8114 66.139 82.4078 66.4172 82.2441 66.8372L75.2786 85.0339C74.9349 85.9176 74.6186 86.8067 74.3295 87.7012C74.0567 86.8612 73.7513 86.0103 73.424 85.1539L66.4148 66.8372C66.2566 66.4172 65.853 66.139 65.4002 66.139H61.6474C61.2874 66.139 60.9547 66.3136 60.7529 66.6081C60.5511 66.9027 60.5074 67.2791 60.6329 67.6118L71.564 95.9213C71.7276 96.3414 72.1258 96.6141 72.5731 96.6141H76.075C76.5222 96.6141 76.9259 96.3414 77.0841 95.9213L88.0752 67.6118C88.217 67.2791 88.1733 66.9027 87.9715 66.6081Z" fill="white"/>
<path d="M99.3425 131.313C89.4554 131.313 85.4176 124.326 90.3698 115.769L106.518 87.8718C111.47 79.3143 119.573 79.3181 124.525 87.8756L140.673 115.767C145.625 124.324 141.587 131.313 131.7 131.313H99.3425Z" fill="#F9BC12"/>
<path d="M99.3425 131.313C89.4554 131.313 85.4176 124.326 90.3698 115.769L106.518 87.8718C111.47 79.3143 119.573 79.3181 124.525 87.8756L140.673 115.767C145.625 124.324 141.587 131.313 131.7 131.313H99.3425Z" fill="#F9BC12"/>
<path opacity="0.08" d="M140.671 115.766L124.523 87.8769C121.476 82.6107 117.235 80.5836 113.27 81.7974C115.75 82.5565 118.123 84.5812 120.029 87.8751L136.177 115.767C141.129 124.324 137.091 131.313 127.204 131.313H131.698C141.585 131.313 145.623 124.324 140.671 115.766Z" fill="black"/>
<path d="M115.483 123.286C116.89 123.286 118.03 122.146 118.03 120.74C118.03 119.333 116.89 118.193 115.483 118.193C114.077 118.193 112.937 119.333 112.937 120.74C112.937 122.146 114.077 123.286 115.483 123.286Z" fill="#2E2E2E"/>
<path d="M118.023 114.143C118.023 115.415 116.992 116.447 115.719 116.447H115.258C113.985 116.447 112.953 115.415 112.953 114.143V94.7832C112.953 93.5103 113.985 92.4785 115.258 92.4785H115.719C116.992 92.4785 118.023 93.5103 118.023 94.7832V114.143Z" fill="#2E2E2E"/>
</svg>
