<svg width="24" height="24" viewBox="0 0 24 24" fill="none" xmlns="http://www.w3.org/2000/svg">
<path d="M11.2437 13.5858V4C11.2437 3.44772 11.6914 3 12.2437 3C12.796 3 13.2437 3.44772 13.2437 4V13.5858L15.7792 11.0503C16.1697 10.6598 16.8029 10.6598 17.1934 11.0503C17.5839 11.4408 17.5839 12.074 17.1934 12.4645L12.9508 16.7071C12.5603 17.0976 11.9271 17.0976 11.5366 16.7071L7.2939 12.4645C6.90337 12.074 6.90337 11.4408 7.29388 11.0503C7.6844 10.6598 8.31757 10.6598 8.7081 11.0503L11.2437 13.5858ZM2 14C2 13.4477 2.44772 13 3 13C3.55228 13 4 13.4477 4 14C4 14.9757 4.00051 17.3872 4.001 18C4.001 18.5515 4.44948 19 5.001 19H19.001C19.5526 19 20.001 18.5516 20.001 18V14C20.001 13.4477 20.4487 13 21.001 13C21.5533 13 22.001 13.4477 22.001 14V18C22.001 19.6561 20.6572 21 19.001 21H5.001C3.34492 21 2.001 19.6561 2.001 18.0008C2.00051 17.3881 2 14.9762 2 14Z" fill="#1D85F3"/>
</svg>
