<svg width="24" height="24" viewBox="0 0 24 24" fill="none" xmlns="http://www.w3.org/2000/svg">
<g clip-path="url(#clip0_355_4480)">
<path d="M12.0002 15.5416C14.7095 15.5479 17.3589 16.3402 19.6268 17.8224C19.7161 17.8827 19.8253 17.906 19.9314 17.8875C20.0375 17.869 20.1323 17.8102 20.196 17.7233C21.3925 16.0181 22.0235 13.9804 22.0002 11.8974C21.9518 9.34114 20.9351 6.89846 19.1553 5.06285C17.3755 3.22724 14.9654 2.13554 12.4118 2.00827C10.5501 1.93082 8.70373 2.3753 7.0812 3.29155C5.45867 4.2078 4.12454 5.55933 3.22941 7.19361C2.33427 8.82788 1.91377 10.6798 2.01536 12.5404C2.11694 14.401 2.73658 16.1962 3.80432 17.7233C3.86798 17.8102 3.96281 17.869 4.06893 17.8875C4.17504 17.906 4.2842 17.8827 4.37349 17.8224C6.64145 16.3402 9.29079 15.5479 12.0002 15.5416ZM11.3752 4.91661C11.3752 4.75085 11.441 4.59188 11.5582 4.47467C11.6754 4.35746 11.8344 4.29161 12.0002 4.29161C12.1659 4.29161 12.3249 4.35746 12.4421 4.47467C12.5593 4.59188 12.6252 4.75085 12.6252 4.91661V6.16661C12.6252 6.33237 12.5593 6.49134 12.4421 6.60855C12.3249 6.72576 12.1659 6.79161 12.0002 6.79161C11.8344 6.79161 11.6754 6.72576 11.5582 6.60855C11.441 6.49134 11.3752 6.33237 11.3752 6.16661V4.91661ZM6.16682 12.6249H4.91682C4.75106 12.6249 4.59209 12.5591 4.47488 12.4419C4.35767 12.3247 4.29182 12.1657 4.29182 11.9999C4.29182 11.8342 4.35767 11.6752 4.47488 11.558C4.59209 11.4408 4.75106 11.3749 4.91682 11.3749H6.16682C6.33258 11.3749 6.49155 11.4408 6.60876 11.558C6.72597 11.6752 6.79182 11.8342 6.79182 11.9999C6.79182 12.1657 6.72597 12.3247 6.60876 12.4419C6.49155 12.5591 6.33258 12.6249 6.16682 12.6249ZM8.31682 8.31661C8.25878 8.37469 8.18986 8.42076 8.11401 8.45219C8.03815 8.48363 7.95685 8.49981 7.87474 8.49981C7.79263 8.49981 7.71132 8.48363 7.63547 8.45219C7.55961 8.42076 7.4907 8.37469 7.43265 8.31661L6.54932 7.43411C6.43207 7.31686 6.3662 7.15784 6.3662 6.99202C6.3662 6.82621 6.43207 6.66719 6.54932 6.54994C6.66657 6.43269 6.82559 6.36682 6.9914 6.36682C7.15722 6.36682 7.31624 6.43269 7.43349 6.54994L8.31682 7.43327C8.37487 7.49125 8.42093 7.56009 8.45235 7.63588C8.48378 7.71166 8.49995 7.7929 8.49995 7.87494C8.49995 7.95698 8.48378 8.03822 8.45235 8.11401C8.42093 8.18979 8.37487 8.25864 8.31682 8.31661ZM11.9327 14.0383C11.5403 14.0422 11.1558 13.9289 10.8282 13.7129C10.5006 13.497 10.245 13.1881 10.094 12.826C9.94299 12.4639 9.90352 12.0649 9.98063 11.6802C10.0577 11.2955 10.2479 10.9426 10.5268 10.6666C11.1568 10.0366 16.3952 6.80744 16.9902 6.44077C17.07 6.39157 17.1641 6.37073 17.2572 6.38163C17.3504 6.39253 17.4371 6.43453 17.5034 6.50084C17.5697 6.56715 17.6117 6.6539 17.6226 6.74704C17.6335 6.84018 17.6127 6.93428 17.5635 7.01411C17.1968 7.60994 13.9677 12.8474 13.3377 13.4774C12.9619 13.8427 12.4567 14.0444 11.9327 14.0383ZM17.8335 12.6249C17.6677 12.6249 17.5088 12.5591 17.3915 12.4419C17.2743 12.3247 17.2085 12.1657 17.2085 11.9999C17.2085 11.8342 17.2743 11.6752 17.3915 11.558C17.5088 11.4408 17.6677 11.3749 17.8335 11.3749H19.0835C19.2492 11.3749 19.4082 11.4408 19.5254 11.558C19.6426 11.6752 19.7085 11.8342 19.7085 11.9999C19.7085 12.1657 19.6426 12.3247 19.5254 12.4419C19.4082 12.5591 19.2492 12.6249 19.0835 12.6249H17.8335Z" fill="#646669"/>
<path d="M12 16.7917C9.63298 16.7863 7.31276 17.4508 5.30749 18.7084C5.25374 18.743 5.20853 18.7893 5.17526 18.8438C5.142 18.8984 5.12155 18.9598 5.11545 19.0234C5.10936 19.0871 5.11777 19.1512 5.14006 19.2111C5.16236 19.271 5.19795 19.3251 5.24415 19.3692C7.08616 21.0633 9.49741 22.0035 12 22.0035C14.5026 22.0035 16.9138 21.0633 18.7558 19.3692C18.802 19.3251 18.8376 19.271 18.8599 19.2111C18.8822 19.1512 18.8906 19.0871 18.8845 19.0234C18.8784 18.9598 18.858 18.8984 18.8247 18.8438C18.7914 18.7893 18.7462 18.743 18.6925 18.7084C16.6873 17.4505 14.367 16.786 12 16.7917Z" fill="#646669"/>
</g>
<defs>
<clipPath id="clip0_355_4480">
<rect width="20" height="20" fill="white" transform="translate(2 2)"/>
</clipPath>
</defs>
</svg>
