<svg width="18" height="18" viewBox="0 0 18 18" fill="none" xmlns="http://www.w3.org/2000/svg">
<path d="M8.33224 9.96233L8.34663 3.66514C8.34747 3.29695 8.64663 2.99916 9.01482 3C9.38301 3.00084 9.6808 3.3 9.67996 3.66819L9.66555 9.97672H9.67996L11.8517 7.80503C12.125 7.53166 12.5682 7.53166 12.8416 7.80503C13.115 8.07839 13.115 8.52161 12.8416 8.79497L9.50827 12.1283C9.23491 12.4017 8.79169 12.4017 8.51832 12.1283L5.18499 8.79497C4.91162 8.52161 4.91162 8.07839 5.18499 7.80503C5.45836 7.53166 5.90157 7.53166 6.17494 7.80503L8.33224 9.96233ZM13.0133 13.6667C13.0133 14.0349 12.7148 14.3333 12.3466 14.3333L5.67996 14.3333C5.31177 14.3333 5.0133 14.0349 5.0133 13.6667C5.0133 13.2985 5.31177 13 5.67996 13L12.3466 13C12.7148 13 13.0133 13.2985 13.0133 13.6667Z" fill="black"/>
</svg>
