<?xml version="1.0" encoding="UTF-8"?>
<svg width="24px" height="24px" viewBox="0 0 24 24" version="1.1" xmlns="http://www.w3.org/2000/svg" xmlns:xlink="http://www.w3.org/1999/xlink">
    <title>web/md/svg/download</title>
    <g id="web/md/svg/download" stroke="none" stroke-width="1" fill="none" fill-rule="evenodd">
        <path d="M14.0578181,12.5975674 L4.05640672,12.5743773 C3.47163625,12.5730215 2.99866938,12.0909071 3.00000281,11.4975449 C3.00134189,10.9041827 3.47647528,10.4242667 4.06124574,10.4256226 L14.0806696,10.4488544 L14.0806696,10.4256198 L10.6315124,6.92578575 C10.1973413,6.48523561 10.1973413,5.77096272 10.6315124,5.3304126 C11.0656834,4.88986247 11.7696137,4.88986247 12.2037848,5.3304126 L17.4979016,10.7023134 C17.9320728,11.1428635 17.9320728,11.8571364 17.4979016,12.2976865 L12.2037848,17.6695873 C11.7696137,18.1101376 11.0656834,18.1101376 10.6315124,17.6695873 C10.1973413,17.2290372 10.1973413,16.5147643 10.6315124,16.0742142 L14.0578181,12.5975674 Z M19.9411766,5.05371901 C20.5259487,5.05371901 21,5.53473539 21,6.12809917 L21,16.8719008 C21,17.4652646 20.5259487,17.9462809 19.9411766,17.9462809 C19.3564047,17.9462809 18.8823533,17.4652646 18.8823533,16.8719008 L18.8823533,6.12809917 C18.8823533,5.53473539 19.3564047,5.05371901 19.9411766,5.05371901 Z" id="Shape" stroke="#FFFFFF" stroke-width="0.5" fill="#006FBE" fill-rule="nonzero" transform="translate(12, 11.5) rotate(90) translate(-12, -11.5)"></path>
    </g>
</svg>