<svg width="24" height="24" viewBox="0 0 24 24" fill="none" xmlns="http://www.w3.org/2000/svg">
<g clip-path="url(#clip0_355_4946)">
<path d="M19.5 11.9993C19.5 8.1873 16.3983 5.08594 12.5859 5.08594C9.2141 5.08594 6.39996 7.51242 5.7941 10.7104H4.5L6.4725 13.5226L8.44523 10.7104H7.23188C7.81395 8.29359 9.99293 6.49207 12.5859 6.49207C15.6229 6.49207 18.0936 8.96262 18.0936 11.9993C18.0936 14.8126 15.9727 17.1383 13.2462 17.4656C13.1832 17.4731 12.9709 17.4923 12.9273 17.4949C12.8781 17.4981 12.6652 17.5058 12.6074 17.5061C11.1425 17.5148 9.74461 16.9468 8.69133 15.8937C8.41664 15.6192 7.97145 15.6191 7.69688 15.8938C7.4223 16.1684 7.4223 16.6134 7.69688 16.888C9.00926 18.2002 10.7473 18.9141 12.5706 18.9141C12.6877 18.9141 12.8052 18.9102 12.9229 18.9042C12.9343 18.9036 13.1708 18.8889 13.2778 18.8781C13.2969 18.8761 13.5152 18.8491 13.5271 18.847C16.8956 18.3863 19.5 15.4921 19.5 11.9993Z" fill="white"/>
<path d="M12.5859 7.89819C12.1977 7.89819 11.8828 8.21296 11.8828 8.6012V11.9993C11.8828 12.3875 12.1977 12.7023 12.5859 12.7023H15.9844C16.3726 12.7023 16.6875 12.3875 16.6875 11.9993C16.6875 11.6112 16.3726 11.2963 15.9844 11.2963H13.2891V8.6012C13.2891 8.21296 12.9742 7.89819 12.5859 7.89819Z" fill="white"/>
</g>
<defs>
<clipPath id="clip0_355_4946">
<rect width="15" height="15" fill="white" transform="translate(4.5 4.5)"/>
</clipPath>
</defs>
</svg>
