<svg width="24" height="24" viewBox="0 0 24 24" fill="none" xmlns="http://www.w3.org/2000/svg">
<path d="M9.24748 16.2695L9.89176 15.1338C9.57606 15.2043 9.24794 15.242 8.91097 15.2426C6.42141 15.238 4.4077 13.2242 4.40362 10.7345C4.4077 8.24532 6.42141 6.23119 8.91097 6.22686C10.9062 6.23034 12.5953 7.52497 13.1898 9.32037L13.835 8.18324C12.9116 6.40451 11.0534 5.18933 8.91097 5.18933C5.84833 5.18933 3.3663 7.67178 3.36584 10.7345C3.36627 13.7973 5.84833 16.28 8.91097 16.28C9.024 16.28 9.13611 16.2762 9.24748 16.2695Z" fill="white"/>
<path d="M20.581 17.1966C20.5808 17.1276 20.57 17.0613 20.5516 16.9987L20.4799 16.8282C20.4784 16.8255 20.4769 16.8228 20.4754 16.8201L20.38 16.6513L20.3797 16.6515L15.6495 8.31388C15.5957 8.21934 15.5227 8.12875 15.4241 8.05826C15.3233 7.98626 15.1971 7.93848 15.057 7.93799C15.0565 7.93799 15.0562 7.93799 15.0557 7.93799C15.0554 7.93799 15.0551 7.93799 15.0548 7.93799H15.0541C14.914 7.93848 14.7878 7.98626 14.6865 8.05868C14.5881 8.12896 14.5153 8.21963 14.4619 8.31367L9.63627 16.8197C9.57471 16.9275 9.53108 17.0553 9.53024 17.1959C9.5301 17.2013 9.53017 17.205 9.53017 17.207C9.53214 17.3938 9.61381 17.5733 9.76656 17.6952C9.90898 17.8094 10.0808 17.8492 10.2356 17.8489H19.8777C20.0321 17.8489 20.2031 17.8088 20.3468 17.6934C20.4972 17.5729 20.579 17.3938 20.5811 17.207C20.581 17.2045 20.5811 17.201 20.581 17.1966ZM15.0454 10.7695H15.0658C15.3559 10.7695 15.5932 11.0068 15.5932 11.2969V14.5187C15.5932 14.8088 15.3559 15.0461 15.0658 15.0461H15.0454C14.7553 15.0461 14.518 14.8088 14.518 14.5187V11.2969C14.518 11.0068 14.7553 10.7695 15.0454 10.7695ZM15.5595 15.9727C15.5595 16.251 15.3339 16.4766 15.0556 16.4766C14.7773 16.4766 14.5517 16.251 14.5517 15.9727C14.5517 15.6944 14.7773 15.4688 15.0556 15.4688C15.3339 15.4688 15.5595 15.6944 15.5595 15.9727Z" fill="white"/>
<path d="M9.27681 10.5249V7.37676C9.27681 7.20573 9.13801 7.06689 8.96677 7.06689C8.79594 7.06689 8.6569 7.20573 8.6569 7.37676V10.5249C8.46997 10.6327 8.34274 10.8322 8.34274 11.0637C8.34274 11.13 8.35607 11.1929 8.37533 11.253L6.95917 12.8088C6.84414 12.9356 6.85317 13.1316 6.97998 13.2468C7.0395 13.3009 7.11431 13.3276 7.18856 13.3276C7.27276 13.3276 7.35665 13.2934 7.41789 13.2262L8.83166 11.6726C8.87529 11.6824 8.92047 11.6884 8.96698 11.6884C9.31161 11.6884 9.59121 11.4083 9.59121 11.0637C9.59121 10.8322 9.46377 10.6325 9.27681 10.5249Z" fill="white"/>
<path d="M5.28516 8.66012V8.69074C5.29588 8.67176 5.30674 8.65284 5.31778 8.63403L5.28516 8.66012Z" fill="white"/>
<path d="M7.83136 7.1399C6.96079 7.41486 6.23126 8.007 5.77803 8.78075C5.76836 8.79727 5.7588 8.81387 5.74941 8.83057C5.44998 9.36065 5.27891 9.97286 5.27881 10.6251C5.27891 11.2774 5.44998 11.8897 5.74941 12.4198C5.78397 12.481 5.82014 12.5412 5.85808 12.6002L8.06473 10.3784V7.07483C7.98591 7.09402 7.90807 7.11568 7.83136 7.1399Z" fill="white"/>
</svg>
