<svg width="20" height="20" viewBox="0 0 20 20" fill="none" xmlns="http://www.w3.org/2000/svg">
<g clip-path="url(#clip0_12_125)">
<path fill-rule="evenodd" clip-rule="evenodd" d="M9.70611 0.952393C14.5378 0.952393 18.4562 4.87077 18.4562 9.70245C18.4562 14.5341 14.5378 18.4525 9.70611 18.4525C4.87444 18.4525 0.956055 14.5341 0.956055 9.70245C0.956055 4.87077 4.87444 0.952393 9.70611 0.952393Z" fill="#FF4141"/>
<path fill-rule="evenodd" clip-rule="evenodd" d="M11.8995 13.088L5.95924 7.14773C5.63208 6.82063 5.63208 6.28696 5.95924 5.95979C6.2864 5.63263 6.82014 5.63256 7.14724 5.95973L13.0875 11.9C13.4147 12.2271 13.4147 12.7608 13.0875 13.0879C12.7603 13.4151 12.2266 13.4152 11.8995 13.088Z" fill="white"/>
<path fill-rule="evenodd" clip-rule="evenodd" d="M5.95924 11.9L11.8995 5.95973C12.2266 5.63256 12.7603 5.63256 13.0874 5.95973C13.4146 6.28689 13.4147 6.82063 13.0875 7.14773L7.14724 13.088C6.82014 13.4152 6.28647 13.4152 5.95931 13.088C5.63214 12.7608 5.63208 12.2271 5.95924 11.9Z" fill="white"/>
</g>
<defs>
<clipPath id="clip0_12_125">
<rect width="20" height="20" fill="white"/>
</clipPath>
</defs>
</svg>
