<svg width="24" height="24" viewBox="0 0 24 24" fill="none" xmlns="http://www.w3.org/2000/svg">
<g clip-path="url(#clip0_355_4490)">
<path d="M9.86595 4.22804C9.86595 3.95906 9.94571 3.69612 10.0952 3.47247C10.2446 3.24882 10.457 3.0745 10.7055 2.97157C10.954 2.86863 11.2275 2.8417 11.4913 2.89417C11.7551 2.94665 11.9974 3.07618 12.1876 3.26638C12.3778 3.45658 12.5073 3.69891 12.5598 3.96272C12.6123 4.22653 12.5854 4.49998 12.4824 4.74849C12.3795 4.997 12.2052 5.2094 11.9815 5.35884C11.7579 5.50828 11.4949 5.58804 11.226 5.58804C10.8653 5.58804 10.5193 5.44476 10.2643 5.18971C10.0092 4.93466 9.86595 4.58874 9.86595 4.22804ZM13.852 11.352C14.7739 11.3521 15.6672 11.0317 16.379 10.4458C17.0907 9.85986 17.5768 9.04479 17.754 8.14004C17.7703 8.04631 17.766 7.95012 17.7411 7.85827C17.7163 7.76642 17.6715 7.68114 17.6101 7.60846C17.5487 7.53579 17.4721 7.47748 17.3856 7.43767C17.2992 7.39785 17.2051 7.3775 17.11 7.37804H10.6C10.5048 7.3775 10.4107 7.39785 10.3243 7.43767C10.2378 7.47748 10.1612 7.53579 10.0998 7.60846C10.0384 7.68114 9.99364 7.76642 9.96879 7.85827C9.94394 7.95012 9.93955 8.04631 9.95595 8.14004C10.1329 9.04378 10.6181 9.85807 11.3286 10.4439C12.0392 11.0297 12.9311 11.3507 13.852 11.352ZM16.476 2.86804C16.207 2.86804 15.944 2.94781 15.7204 3.09724C15.4967 3.24668 15.3224 3.45909 15.2195 3.70759C15.1165 3.9561 15.0896 4.22955 15.1421 4.49337C15.1946 4.75718 15.3241 4.99951 15.5143 5.18971C15.7045 5.37991 15.9468 5.50943 16.2106 5.56191C16.4744 5.61439 16.7479 5.58745 16.9964 5.48452C17.2449 5.38158 17.4573 5.20727 17.6068 4.98362C17.7562 4.75997 17.836 4.49703 17.836 4.22804C17.836 4.04945 17.8008 3.8726 17.7324 3.70759C17.6641 3.54259 17.5639 3.39267 17.4376 3.26638C17.3113 3.14009 17.1614 3.03991 16.9964 2.97157C16.8314 2.90322 16.6545 2.86804 16.476 2.86804ZM7.63795 19.942H14.496C14.9529 19.9422 15.4047 19.8444 15.8207 19.6554C16.2368 19.4663 16.6075 19.1904 16.908 18.846L21.468 13.618C21.586 13.4827 21.6756 13.325 21.7317 13.1544C21.7877 12.9838 21.809 12.8037 21.7943 12.6247C21.7796 12.4457 21.7291 12.2715 21.6459 12.1123C21.5627 11.9532 21.4485 11.8123 21.31 11.698C21.0303 11.4793 20.6771 11.3766 20.3237 11.4112C19.9703 11.4458 19.6438 11.6152 19.412 11.884L17.128 14.45C17.128 14.46 17.128 14.47 17.128 14.482C17.0976 15.0851 16.8361 15.6534 16.3977 16.0686C15.9593 16.4839 15.3778 16.7144 14.774 16.712H12.306C12.1842 16.6966 12.0723 16.6373 11.9912 16.5453C11.9101 16.4532 11.8653 16.3347 11.8653 16.212C11.8653 16.0894 11.9101 15.9709 11.9912 15.8788C12.0723 15.7868 12.1842 15.7275 12.306 15.712H14.774C15.1175 15.7172 15.4498 15.5895 15.7014 15.3554C15.953 15.1213 16.1044 14.7991 16.124 14.456C16.1293 14.2827 16.0998 14.11 16.0372 13.9483C15.9746 13.7865 15.8802 13.639 15.7595 13.5144C15.6388 13.3898 15.4944 13.2907 15.3347 13.223C15.175 13.1552 15.0034 13.1202 14.83 13.12H10.716L10.048 12.886C9.22653 12.5987 8.34087 12.5482 7.49211 12.7402C6.64335 12.9323 5.86569 13.3591 5.24795 13.972L2.19995 17L6.44795 21.14L7.63795 19.942Z" fill="#646669"/>
</g>
<defs>
<clipPath id="clip0_355_4490">
<rect width="20" height="20" fill="white" transform="translate(2 2)"/>
</clipPath>
</defs>
</svg>
