<svg width="32" height="32" viewBox="0 0 32 32" fill="none" xmlns="http://www.w3.org/2000/svg">
<path d="M18.823 24.0792C19.0512 24.0791 19.2742 24.0114 19.464 23.8846C19.6537 23.7579 19.8015 23.5777 19.8889 23.3669C19.9762 23.1561 19.9991 22.9241 19.9546 22.7003C19.9102 22.4765 19.8004 22.2709 19.6391 22.1095L13.5338 16.0037L19.6391 9.89841C19.8555 9.68197 19.977 9.38845 19.9769 9.08241C19.9769 8.77638 19.8552 8.4829 19.6388 8.26654C19.4224 8.05018 19.1288 7.92866 18.8228 7.92871C18.5168 7.92877 18.2233 8.05039 18.0069 8.26683L11.0859 15.1875C10.8696 15.4039 10.7481 15.6974 10.7481 16.0034C10.7481 16.3094 10.8696 16.6028 11.0859 16.8192L18.0069 23.7407C18.114 23.8481 18.2411 23.9333 18.3812 23.9913C18.5212 24.0494 18.6714 24.0793 18.823 24.0792Z" fill="black"/>
<path d="M16.0004 31C24.2714 31 31.0004 24.271 31.0004 16C31.0004 7.729 24.2714 1 16.0004 1C7.72936 1 0.999949 7.729 0.999949 16C0.999949 24.271 7.72903 31 16.0004 31ZM16.0004 3.30833C22.9989 3.30833 28.692 9.00142 28.692 16C28.692 22.9986 22.9989 28.6921 16.0004 28.6921C9.00178 28.6921 3.30786 22.9986 3.30786 16C3.30786 9.00142 9.00178 3.30833 16.0004 3.30833Z" fill="black"/>
</svg>
