<svg width="24" height="24" viewBox="0 0 24 24" fill="none" xmlns="http://www.w3.org/2000/svg">
<g clip-path="url(#clip0_355_4485)">
<path d="M15.75 5.75C15.75 3.67891 14.0711 2 12 2C9.92891 2 8.25 3.67891 8.25 5.75C8.25 7.82109 9.92891 9.5 12 9.5C14.0711 9.5 15.75 7.82109 15.75 5.75ZM11.1246 11.418C8.80703 9.99922 5.05313 9.60938 3.16406 9.50195C2.5293 9.46602 2 9.94961 2 10.5602V19.2633C2 19.823 2.45273 20.2898 3.03477 20.3199C4.74023 20.4094 8.19063 20.7371 10.5754 21.9383C10.9414 22.1227 11.3754 21.8715 11.3754 21.4746V11.8656C11.375 11.6832 11.2848 11.516 11.1246 11.418ZM20.8359 9.50195C18.9473 9.60899 15.193 9.99922 12.8758 11.418C12.7156 11.516 12.6254 11.6898 12.6254 11.8723V21.4734C12.6254 21.8715 13.0605 22.123 13.4277 21.9383C15.8121 20.7383 19.2605 20.4105 20.9656 20.3211C21.5477 20.2906 22.0004 19.8238 22.0004 19.2641V10.5602C22 9.94961 21.4707 9.46602 20.8359 9.50195Z" fill="#646669"/>
</g>
<defs>
<clipPath id="clip0_355_4485">
<rect width="20" height="20" fill="white" transform="translate(2 2)"/>
</clipPath>
</defs>
</svg>
