<svg width="24" height="24" viewBox="0 0 24 24" fill="none" xmlns="http://www.w3.org/2000/svg">
<path d="M13.8756 3.25H10.125V9.5H13.8756V3.25Z" fill="#646669"/>
<path d="M18.875 3.25H15.125V9.5C15.125 9.83152 14.9933 10.1495 14.7589 10.3839C14.5245 10.6183 14.2065 10.75 13.875 10.75H10.125C9.79348 10.75 9.47554 10.6183 9.24112 10.3839C9.0067 10.1495 8.875 9.83152 8.875 9.5V3.25H5.125C4.62772 3.25 4.15081 3.44754 3.79917 3.79917C3.44754 4.15081 3.25 4.62772 3.25 5.125V18.875C3.25 19.3723 3.44754 19.8492 3.79917 20.2008C4.15081 20.5525 4.62772 20.75 5.125 20.75H18.875C19.3723 20.75 19.8492 20.5525 20.2008 20.2008C20.5525 19.8492 20.75 19.3723 20.75 18.875V5.125C20.75 4.62772 20.5525 4.15081 20.2008 3.79917C19.8492 3.44754 19.3723 3.25 18.875 3.25Z" fill="#646669"/>
</svg>
