<?xml version="1.0" encoding="UTF-8"?>
<svg width="24px" height="24px" viewBox="0 0 24 24" version="1.1" xmlns="http://www.w3.org/2000/svg" xmlns:xlink="http://www.w3.org/1999/xlink">
    <title>web/dd/svg/otp timer</title>
    <g id="web/dd/svg/otp-timer" stroke="none" stroke-width="1" fill="none" fill-rule="evenodd">
        <path d="M18.3661117,5.63301429 C14.8493258,2.12075421 9.15047678,2.12255974 5.63591862,5.63704752 C2.12136046,9.1515353 2.12136046,14.8484647 5.63591862,18.3629525 C9.15047678,21.8774403 14.8493258,21.8792458 18.3661117,18.3669857 C21.8779628,14.8482287 21.8779628,9.15177129 18.3661117,5.63301429 Z M17.4568054,17.4579857 C15.2485372,19.6656301 11.927398,20.3260937 9.04206183,19.1313969 C6.15672563,17.9367002 4.27542459,15.1221242 4.27542459,12.0001286 C4.27542459,8.87813293 6.15672563,6.06355698 9.04206183,4.86886023 C11.927398,3.67416348 15.2485372,4.33462705 17.4568054,6.54227143 C20.4673883,9.55851734 20.4673883,14.4417398 17.4568054,17.4579857 Z M14.3506304,13.1080286 C14.6312066,13.3257747 14.682081,13.7296682 14.4642615,14.01015 C14.2464419,14.2906317 13.8424123,14.341489 13.561836,14.1237429 L11.6026474,12.6008143 C11.4456546,12.479356 11.3537984,12.2920496 11.3539064,12.0936 L11.3539064,7.68205714 C11.3539064,7.32701695 11.6418204,7.0392 11.9969803,7.0392 C12.3521401,7.0392 12.6400541,7.32701695 12.6400541,7.68205714 L12.6400541,11.7789857 L14.3506304,13.1080286 Z" id="Shape" stroke="#000000" stroke-width="0.2" fill="#000000" fill-rule="nonzero"></path>
    </g>
</svg>