<svg width="24" height="24" viewBox="0 0 24 24" fill="none" xmlns="http://www.w3.org/2000/svg">
<path d="M17.6444 9.38635L15.0062 12.0246C15.1 12.37 15.14 12.7534 15.1079 13.1205C14.9965 15.1758 12.8813 16.6845 10.9048 16.1259L9.09705 17.9337C13.3916 19.1639 18.2003 17.1924 20.4012 13.3012C20.5538 13.0414 20.5538 12.7137 20.4012 12.4539C19.6982 11.2236 18.7524 10.2172 17.6444 9.38635Z" fill="black" fill-opacity="0.76"/>
<path d="M3.11442 12.454C2.96186 12.7138 2.96186 13.0414 3.11439 13.3013C3.82622 14.5272 4.76961 15.561 5.87685 16.3632L4.68568 17.5544C4.35237 17.8877 4.35237 18.4188 4.68568 18.7521C5.01663 19.0825 5.55238 19.0827 5.8833 18.7521L17.1988 7.43658C17.9467 6.64961 16.7609 5.47764 15.9842 6.25595L14.4129 7.82716C10.1332 6.57622 5.30801 8.57402 3.11442 12.454ZM12.6109 9.62933L8.50944 13.7307C8.43602 13.4595 8.39647 13.1713 8.39647 12.8776C8.36425 10.7136 10.5303 9.04462 12.6109 9.62933Z" fill="black" fill-opacity="0.76"/>
</svg>
