<svg width="24" height="24" viewBox="0 0 24 24" fill="none" xmlns="http://www.w3.org/2000/svg">
<path d="M20.8292 11.6972C19.0123 8.55628 15.6279 6.60876 12.0001 6.60876C8.37229 6.60876 4.98791 8.55628 3.17103 11.6972C3.07011 11.8813 3.07011 12.1069 3.17103 12.291C4.98791 15.4378 8.37229 17.3913 12.0001 17.3913C15.6279 17.3913 19.0123 15.4378 20.8292 12.291C20.9301 12.1069 20.9301 11.8813 20.8292 11.6972ZM12.0001 15.711C9.95165 15.711 8.28916 14.0485 8.28916 12C8.28916 9.95158 9.95165 8.28909 12.0001 8.28909C14.0485 8.28909 15.711 9.95158 15.711 12C15.711 14.0485 14.0485 15.711 12.0001 15.711Z" fill="black" fill-opacity="0.76"/>
<path d="M12 14.5234C13.3937 14.5234 14.5234 13.3937 14.5234 12C14.5234 10.6063 13.3937 9.47656 12 9.47656C10.6063 9.47656 9.47656 10.6063 9.47656 12C9.47656 13.3937 10.6063 14.5234 12 14.5234Z" fill="black" fill-opacity="0.76"/>
</svg>
