<svg width="24" height="24" viewBox="0 0 24 24" fill="none" xmlns="http://www.w3.org/2000/svg">
<path fill-rule="evenodd" clip-rule="evenodd" d="M12.0801 4C7.62459 4 4 7.58909 4 12C4 16.4118 7.62459 20 12.0801 20C16.5346 20 20.1592 16.4118 20.1592 12C20.1592 7.58909 16.5346 4 12.0801 4ZM12.0801 18.9091C8.23169 18.9091 5.10176 15.8091 5.10176 11.9996C5.10176 8.19 8.23169 5.09091 12.0801 5.09091C15.9275 5.09091 19.0574 8.19 19.0574 11.9996C19.0574 15.8091 15.9275 18.9091 12.0801 18.9091ZM14.7961 11.5603L11.3325 9.17218C11.1827 9.07003 11.0018 9.06402 10.8472 9.15502C10.6966 9.24343 10.6106 9.41083 10.6106 9.61256V14.3872C10.6106 14.5898 10.6966 14.7563 10.848 14.8456C10.9046 14.879 10.9699 14.9091 11.0648 14.9091C11.1572 14.9091 11.248 14.8808 11.3253 14.8275L14.7921 12.4402C14.9332 12.3432 15.0176 12.1784 15.0176 11.9999C15.0176 11.8196 14.9348 11.6548 14.7961 11.5603Z" fill="black"/>
<path d="M14.5286 11.9484L14.5286 11.9484L14.5308 11.9499C14.5306 11.9498 14.5307 11.9498 14.5309 11.95C14.5325 11.9515 14.5463 11.9651 14.5463 11.9999C14.5463 12.031 14.532 12.0472 14.5251 12.0519L14.5248 12.0521L11.0847 14.421C11.0831 14.4125 11.0819 14.4014 11.0819 14.3872V9.61256C11.0819 9.59591 11.0836 9.58338 11.0856 9.57445L14.5286 11.9484ZM4.47131 12C4.47131 7.85378 7.88047 4.47131 12.0801 4.47131C16.2787 4.47131 19.6879 7.85375 19.6879 12C19.6879 16.1471 16.2787 19.5287 12.0801 19.5287C7.88043 19.5287 4.47131 16.1471 4.47131 12ZM4.63045 11.9996C4.63045 16.0738 7.97576 19.3804 12.0801 19.3804C16.1835 19.3804 19.5288 16.0737 19.5288 11.9996C19.5288 7.92531 16.1834 4.6196 12.0801 4.6196C7.97584 4.6196 4.63045 7.92527 4.63045 11.9996Z" stroke="black" stroke-opacity="0.8" stroke-width="0.94262"/>
</svg>
