<svg width="24" height="24" viewBox="0 0 24 24" fill="none" xmlns="http://www.w3.org/2000/svg">
<path d="M11.845 20.2954C11.895 20.3187 11.9483 20.3321 11.9983 20.3321C12.0517 20.3321 12.105 20.3187 12.155 20.2954C16.065 18.2554 18.495 14.2454 18.495 9.83208V6.67874C18.495 6.5454 18.4183 6.42541 18.295 6.37208L12.1317 3.6954C12.0483 3.65874 11.9517 3.65874 11.8683 3.6954L5.705 6.37208C5.58167 6.42541 5.505 6.5454 5.505 6.67874V9.83208C5.505 14.2454 7.935 18.2554 11.845 20.2954ZM7.95848 12.4442L9.1437 11.259C9.2739 11.1288 9.48484 11.1288 9.61505 11.259L10.6725 12.3163L14.3844 8.60471C14.5146 8.4745 14.7256 8.4745 14.8558 8.60471L16.041 9.78993C16.1712 9.92014 16.1712 10.1311 16.041 10.2613L10.9082 15.3943C10.8457 15.4568 10.7609 15.4919 10.6725 15.4919C10.5841 15.4919 10.4993 15.4568 10.4368 15.3943L7.95848 12.9156C7.82827 12.7854 7.82827 12.5744 7.95848 12.4442Z" fill="#646669"/>
</svg>
