<svg width="48" height="48" viewBox="0 0 48 48" fill="none" xmlns="http://www.w3.org/2000/svg">
<path fill-rule="evenodd" clip-rule="evenodd" d="M44 24C44 35.0456 35.0456 44 24 44C12.9543 44 4 35.0456 4 24C4 12.9543 12.9543 4 24 4C35.0456 4 44 12.9543 44 24ZM35.4274 32.8012C36.0832 33.4702 36.0832 34.53 35.4272 35.1992C32.5234 38.1618 28.4764 40 24.0002 40C19.5237 40 15.4767 38.1618 12.5727 35.1988C11.9169 34.5298 11.9169 33.47 12.5727 32.8008C15.4767 29.8382 19.5236 28 24 28C28.4764 28 32.5234 29.8384 35.4274 32.8012ZM24 24C27.3138 24 30 21.3138 30 18C30 14.6863 27.3138 12 24 12C20.6862 12 18 14.6863 18 18C18 21.3138 20.6862 24 24 24Z" fill="#AB5AE5"/>
<path fill-rule="evenodd" clip-rule="evenodd" d="M35.4273 32.8012C36.0831 33.4702 36.0831 34.53 35.4271 35.1992C32.5233 38.1618 28.4763 40 24.0001 40C19.5237 40 15.4766 38.1618 12.5727 35.1988C11.9168 34.5298 11.9169 33.47 12.5727 32.8008C15.4766 29.8382 19.5236 28 23.9999 28C28.4763 28 32.5233 29.8384 35.4273 32.8012ZM23.9999 24C27.3137 24 29.9999 21.3138 29.9999 18C29.9999 14.6863 27.3137 12 23.9999 12C20.6861 12 17.9999 14.6863 17.9999 18C17.9999 21.3138 20.6861 24 23.9999 24Z" fill="url(#paint0_linear_355_4712)"/>
<defs>
<linearGradient id="paint0_linear_355_4712" x1="3.5" y1="12" x2="24" y2="34.5" gradientUnits="userSpaceOnUse">
<stop offset="0.0733813" stop-color="#AB5AE5"/>
<stop offset="0.13" stop-color="#DD92FF"/>
<stop offset="1" stop-color="#FFE8FA"/>
</linearGradient>
</defs>
</svg>
