<svg width="100" height="100" viewBox="0 0 100 100" fill="none" xmlns="http://www.w3.org/2000/svg">
<circle cx="50.5" cy="49.5" r="47.5" fill="#D9D9D9"/>
<path fill-rule="evenodd" clip-rule="evenodd" d="M79.4874 67.003C81.1269 68.6755 81.1269 71.325 79.4869 72.998C72.2274 80.4045 62.1099 85 50.9194 85C39.7282 85 29.6106 80.4045 22.3507 72.997C20.7112 71.3245 20.7112 68.675 22.3508 67.002C29.6106 59.5955 39.728 55 50.9189 55C62.1099 55 72.2274 59.596 79.4874 67.003ZM50.9189 45C59.2034 45 65.9189 38.2845 65.9189 30C65.9189 21.7157 59.2034 15 50.9189 15C42.6344 15 35.9189 21.7157 35.9189 30C35.9189 38.2845 42.6344 45 50.9189 45Z" fill="#ABABAB"/>
</svg>
