<svg width="24" height="24" viewBox="0 0 24 24" fill="none" xmlns="http://www.w3.org/2000/svg">
<path d="M19.0204 6.96261L7.30762 4L6.48169 7.26531H16.7347H17.3877V7.91837V12.6124L17.5791 12.6608L19.0204 6.96261Z" fill="white"/>
<path d="M10.1062 9.84756C10.1062 10.1081 10.2276 10.2738 10.4937 10.4233V9.3208C10.2181 9.42389 10.1062 9.64998 10.1062 9.84756Z" fill="white"/>
<path d="M4.65308 7.91846V13.796H16.7347V7.91846H4.65308ZM10.8969 12.8331V13.4715H10.4938V12.868C10.123 12.8646 9.72201 12.7506 9.51717 12.6141L9.64426 12.1924C9.85833 12.3242 10.1663 12.4348 10.4938 12.4456V10.9585C9.93683 10.735 9.59806 10.4148 9.59806 9.90536C9.59806 9.40234 9.94405 9.00682 10.4938 8.88656V8.24502H10.897V8.849C11.2747 8.85498 11.5503 8.94419 11.7176 9.03901L11.579 9.44904C11.4589 9.38353 11.2201 9.27692 10.8969 9.26543V10.605C11.5441 10.858 11.8735 11.175 11.8735 11.7419C11.8735 12.2512 11.5537 12.7062 10.8969 12.8331Z" fill="white"/>
<path d="M10.897 11.1278V12.3953C11.1934 12.2991 11.3596 12.0742 11.3596 11.7822C11.3596 11.489 11.2245 11.2971 10.897 11.1278Z" fill="white"/>
<path d="M11.5102 15.102C9.64898 15.102 8.57143 15.102 8.57143 15.102V14.471L4 17.0938L8.57143 19.9999V19.3469C8.57143 19.3469 9.55102 19.3469 11.5102 19.3469C18.7918 19.3469 20 12.4897 20 12.4897C20 12.4897 16.9633 15.102 11.5102 15.102Z" fill="white"/>
</svg>
