<svg width="24" height="24" viewBox="0 0 24 24" fill="none" xmlns="http://www.w3.org/2000/svg">
<g clip-path="url(#clip0_355_4488)">
<path d="M21.0729 12.039C21.0632 12.0148 21.063 11.9879 21.0722 11.9635L21.8984 9.89214C22.0227 9.57592 22.0317 9.22605 21.9239 8.90386C21.816 8.58166 21.5982 8.3077 21.3085 8.13L19.3677 6.91988C19.3386 6.90271 19.3167 6.87569 19.3058 6.84371L18.6997 4.70399C18.6079 4.37815 18.4068 4.09383 18.13 3.89882C17.8533 3.70381 17.5178 3.61 17.18 3.63317L14.8628 3.74316C14.8181 3.74294 14.7743 3.73008 14.7365 3.70606L12.9304 2.31624C12.6636 2.1111 12.3365 1.99988 12 1.99988C11.6634 1.99988 11.3364 2.1111 11.0696 2.31624L9.2648 3.70539C9.22646 3.72926 9.18236 3.7423 9.1372 3.74314L6.81999 3.63316C6.48286 3.61381 6.14912 3.7092 5.87316 3.90377C5.5972 4.09835 5.39529 4.38064 5.30035 4.70463L4.69418 6.84306C4.68393 6.8748 4.66238 6.90167 4.63363 6.91858L2.69208 8.12935C2.40215 8.30728 2.1841 8.58155 2.07612 8.90409C1.96815 9.22663 1.97715 9.57687 2.10154 9.89345L2.92712 11.9609C2.93677 11.9851 2.93701 12.012 2.92779 12.0364L2.10154 14.1077C1.97724 14.424 1.96823 14.7738 2.07609 15.096C2.18394 15.4182 2.40179 15.6922 2.69143 15.8699L4.63231 17.08C4.66139 17.0972 4.68334 17.1242 4.69416 17.1562L5.30033 19.2959C5.39129 19.6222 5.59226 19.907 5.86919 20.1022C6.14613 20.2973 6.48201 20.3908 6.81996 20.3667L9.13718 20.2567C9.18199 20.2566 9.22588 20.2695 9.26348 20.2938L11.0696 21.6836C11.3364 21.8888 11.6635 22 12 22C12.3365 22 12.6636 21.8888 12.9304 21.6836L14.7352 20.2945C14.7728 20.2691 14.8174 20.2559 14.8628 20.2567L17.18 20.3667C17.5168 20.3843 17.8497 20.2882 18.1253 20.0939C18.4009 19.8996 18.6032 19.6183 18.6996 19.2952L19.3058 17.1569C19.3161 17.1251 19.3376 17.0983 19.3664 17.0814L21.3079 15.8706C21.5978 15.6926 21.8159 15.4184 21.9239 15.0958C22.0318 14.7733 22.0228 14.4231 21.8984 14.1065L21.0729 12.039ZM16.4825 11.4129L14.5479 13.0092C14.4723 13.073 14.4166 13.1571 14.3872 13.2515C14.3579 13.346 14.3562 13.4468 14.3823 13.5422L15.0501 16.0227C15.0808 16.1187 15.0809 16.2219 15.0505 16.318C15.0201 16.4142 14.9607 16.4985 14.8804 16.5595C14.8001 16.6205 14.7029 16.6551 14.6021 16.6586C14.5013 16.6621 14.402 16.6343 14.3176 16.5791L12.268 15.1486C12.1895 15.0933 12.0959 15.0637 12 15.0637C11.904 15.0637 11.8104 15.0933 11.732 15.1486L9.68237 16.5791C9.59803 16.6343 9.49865 16.6621 9.39788 16.6586C9.29711 16.6551 9.1999 16.6205 9.11961 16.5595C9.03932 16.4985 8.97989 16.4142 8.9495 16.318C8.9191 16.2219 8.91923 16.1187 8.94986 16.0227L9.61767 13.5422C9.64381 13.4468 9.64211 13.346 9.61277 13.2515C9.58343 13.1571 9.52768 13.073 9.4521 13.0092L7.51747 11.4129C7.43939 11.3486 7.38223 11.2625 7.35327 11.1656C7.32432 11.0687 7.32488 10.9654 7.3549 10.8688C7.38492 10.7722 7.44302 10.6867 7.52181 10.6233C7.60059 10.5598 7.69649 10.5213 7.79728 10.5125L10.2597 10.4103C10.3566 10.4051 10.4497 10.3709 10.527 10.3121C10.6043 10.2534 10.6622 10.1729 10.6932 10.0809L11.5473 7.66359C11.5782 7.5678 11.6386 7.48427 11.7199 7.42502C11.8013 7.36576 11.8994 7.33383 12 7.33383C12.1006 7.33383 12.1987 7.36576 12.2801 7.42502C12.3614 7.48427 12.4219 7.5678 12.4527 7.66359L13.3068 10.0809C13.3378 10.1728 13.3957 10.2534 13.473 10.3121C13.5503 10.3708 13.6434 10.405 13.7403 10.4103L16.2027 10.5125C16.3035 10.5212 16.3994 10.5598 16.4782 10.6232C16.557 10.6867 16.6151 10.7721 16.6451 10.8687C16.6751 10.9653 16.6757 11.0687 16.6467 11.1656C16.6178 11.2625 16.5606 11.3486 16.4825 11.4129Z" fill="#646669"/>
</g>
<defs>
<clipPath id="clip0_355_4488">
<rect width="20" height="20" fill="white" transform="translate(2 2)"/>
</clipPath>
</defs>
</svg>
