<svg width="24" height="24" viewBox="0 0 24 24" fill="none" xmlns="http://www.w3.org/2000/svg">
<path d="M13.8293 8.20253C14.2538 7.74603 14.5 7.14003 14.5 6.50003C14.5 5.58053 13.9083 5.50903 13.7268 5.50903C13.483 5.50903 13.2467 5.61003 12.9727 5.72703C12.6735 5.85503 12.3343 6.00003 12 6.00003C11.6657 6.00003 11.3265 5.85503 11.027 5.72703C10.753 5.61003 10.5165 5.50903 10.273 5.50903C10.0917 5.50903 9.5 5.58053 9.5 6.50003C9.5 7.14003 9.74625 7.74603 10.1708 8.20253C8.50075 9.51303 7.5 12.3065 7.5 14C7.5 16.2125 7.5 18.5 12 18.5C16.5 18.5 16.5 16.2125 16.5 14C16.5 12.3063 15.4993 9.51303 13.8293 8.20253ZM12 12.5C12.8273 12.5 13.5 13.1728 13.5 14C13.5 14.6515 13.0815 15.2058 12.5 15.4125V16C12.5 16.276 12.276 16.5 12 16.5C11.724 16.5 11.5 16.276 11.5 16V15.5H11C10.724 15.5 10.5 15.276 10.5 15C10.5 14.724 10.724 14.5 11 14.5H12C12.2758 14.5 12.5 14.2758 12.5 14C12.5 13.7243 12.2758 13.5 12 13.5C11.1727 13.5 10.5 12.8273 10.5 12C10.5 11.3485 10.9183 10.794 11.5 10.5875V10C11.5 9.72403 11.724 9.50003 12 9.50003C12.276 9.50003 12.5 9.72403 12.5 10V10.5H13C13.276 10.5 13.5 10.724 13.5 11C13.5 11.276 13.276 11.5 13 11.5H12C11.7242 11.5 11.5 11.7243 11.5 12C11.5 12.2758 11.7242 12.5 12 12.5Z" fill="white"/>
</svg>
