<svg width="32" height="32" viewBox="0 0 32 32" fill="none" xmlns="http://www.w3.org/2000/svg">
<path d="M13.1773 24.0792C12.9492 24.0791 12.7261 24.0114 12.5364 23.8846C12.3467 23.7579 12.1988 23.5777 12.1115 23.3669C12.0241 23.1561 12.0013 22.9241 12.0457 22.7003C12.0902 22.4765 12.2 22.2709 12.3613 22.1095L18.4666 16.0037L12.3613 9.89841C12.1449 9.68197 12.0234 9.38845 12.0234 9.08241C12.0235 8.77638 12.1451 8.4829 12.3616 8.26654C12.578 8.05018 12.8715 7.92866 13.1776 7.92871C13.4836 7.92877 13.7771 8.05039 13.9934 8.26683L20.9144 15.1875C21.1307 15.4039 21.2522 15.6974 21.2522 16.0034C21.2522 16.3094 21.1307 16.6028 20.9144 16.8192L13.9934 23.7407C13.8864 23.8481 13.7592 23.9333 13.6192 23.9913C13.4791 24.0494 13.329 24.0793 13.1773 24.0792Z" fill="black"/>
<path d="M16 31C7.729 31 1 24.271 1 16C1 7.729 7.729 1 16 1C24.271 1 31.0004 7.729 31.0004 16C31.0004 24.271 24.2713 31 16 31ZM16 3.30833C9.00142 3.30833 3.30833 9.00142 3.30833 16C3.30833 22.9986 9.00142 28.6921 16 28.6921C22.9986 28.6921 28.6925 22.9986 28.6925 16C28.6925 9.00142 22.9986 3.30833 16 3.30833Z" fill="black"/>
</svg>
