<svg width="18" height="18" viewBox="0 0 18 18" fill="none" xmlns="http://www.w3.org/2000/svg">
<path d="M14.707 13.293L12.1685 10.7545C12.693 9.964 13 9.0175 13 8C13 5.243 10.757 3 8 3C5.243 3 3 5.243 3 8C3 10.757 5.243 13 8 13C9.0175 13 9.964 12.693 10.7545 12.1685L13.293 14.707C13.683 15.0975 14.317 15.0975 14.707 14.707C15.0975 14.3165 15.0975 13.6835 14.707 13.293ZM4.5 8C4.5 6.07 6.07 4.5 8 4.5C9.93 4.5 11.5 6.07 11.5 8C11.5 9.93 9.93 11.5 8 11.5C6.07 11.5 4.5 9.93 4.5 8Z" fill="black"/>
</svg>
