<svg width="24" height="24" viewBox="0 0 24 24" fill="none" xmlns="http://www.w3.org/2000/svg">
<g clip-path="url(#clip0_355_4492)">
<path d="M17.4375 2.25003C16.7013 2.24714 15.9767 2.43309 15.3329 2.79009C14.6891 3.1471 14.1475 3.66324 13.7601 4.28919C13.3726 4.91515 13.1522 5.63001 13.1197 6.36547C13.0873 7.10093 13.2441 7.83242 13.575 8.49003L13.095 10.5C13.0821 10.5572 13.0834 10.6166 13.0987 10.6731C13.114 10.7296 13.1428 10.7815 13.1827 10.8244C13.2226 10.8672 13.2723 10.8997 13.3276 10.919C13.3829 10.9383 13.4421 10.9438 13.5 10.935L15.5025 10.4475C16.0837 10.7274 16.7204 10.8734 17.3656 10.8746C18.0108 10.8757 18.648 10.7321 19.2303 10.4544C19.8126 10.1766 20.3251 9.77169 20.7302 9.26952C21.1352 8.76735 21.4224 8.1807 21.5706 7.55279C21.7189 6.92488 21.7243 6.27171 21.5866 5.64142C21.4488 5.01113 21.1715 4.41977 20.7748 3.91092C20.3782 3.40206 19.8725 2.98869 19.2949 2.70124C18.7173 2.41379 18.0826 2.2596 17.4375 2.25003Z" fill="#646669"/>
<path d="M8.75257 14.1675C9.39666 14.1675 10.0263 13.9764 10.5617 13.6184C11.0972 13.2604 11.5144 12.7516 11.7605 12.1564C12.0066 11.5612 12.0707 10.9063 11.9445 10.2747C11.8183 9.64308 11.5075 9.06311 11.0515 8.60819C10.5956 8.15327 10.0149 7.84385 9.38298 7.7191C8.75108 7.59436 8.09637 7.65989 7.50173 7.9074C6.90709 8.15492 6.39924 8.57328 6.04248 9.10955C5.68572 9.64582 5.49608 10.2759 5.49757 10.92C5.49757 11.3471 5.58181 11.77 5.74548 12.1645C5.90916 12.559 6.14903 12.9173 6.45139 13.219C6.75374 13.5206 7.11263 13.7597 7.5075 13.9224C7.90237 14.0852 8.32547 14.1685 8.75257 14.1675Z" fill="#646669"/>
<path d="M3.75 21.7501H13.7475C14.1453 21.7501 14.5269 21.592 14.8082 21.3107C15.0895 21.0294 15.2475 20.6479 15.2475 20.2501C15.2475 18.9246 14.7215 17.6533 13.785 16.7154C12.8484 15.7775 11.5779 15.2495 10.2525 15.2476H7.2525C5.92575 15.2476 4.65335 15.7746 3.7152 16.7128C2.77705 17.6509 2.25 18.9233 2.25 20.2501C2.25 20.6479 2.40804 21.0294 2.68934 21.3107C2.97064 21.592 3.35218 21.7501 3.75 21.7501Z" fill="#646669"/>
</g>
<defs>
<clipPath id="clip0_355_4492">
<rect width="24" height="24" fill="white"/>
</clipPath>
</defs>
</svg>
