<svg width="20" height="20" viewBox="0 0 20 20" fill="none" xmlns="http://www.w3.org/2000/svg">
<g clip-path="url(#clip0_12_119)">
<path fill-rule="evenodd" clip-rule="evenodd" d="M10.004 1.255C14.8356 1.255 18.754 5.17339 18.754 10.0051C18.754 14.8367 14.8356 18.7551 10.004 18.7551C5.17229 18.7551 1.25391 14.8367 1.25391 10.0051C1.25391 5.17339 5.17229 1.255 10.004 1.255Z" fill="#009930"/>
<path d="M6.04426 10.7032L8.18648 12.8472C8.19615 12.8578 8.20605 12.8683 8.2163 12.8785C8.58134 13.2436 9.17743 13.2431 9.54202 12.8785L13.963 8.45758C14.3276 8.09299 14.3281 7.4969 13.963 7.13187C13.5979 6.76675 13.0024 6.76675 12.6372 7.13187L8.88023 10.8889L7.36997 9.37744C7.00752 9.01469 6.40937 9.0124 6.04426 9.37744C5.67922 9.74254 5.6793 10.338 6.04426 10.7032Z" fill="white"/>
</g>
<defs>
<clipPath id="clip0_12_119">
<rect width="20" height="20" fill="white"/>
</clipPath>
</defs>
</svg>
