<svg width="24" height="24" viewBox="0 0 24 24" fill="none" xmlns="http://www.w3.org/2000/svg">
<path d="M18.25 2.625H5.75C5.05937 2.625 4.5 3.18437 4.5 3.875V20.125C4.5 20.8156 5.05937 21.375 5.75 21.375H18.25C18.9406 21.375 19.5 20.8156 19.5 20.125V3.875C19.5 3.18437 18.9406 2.625 18.25 2.625ZM16.375 16.375H7.625C7.28 16.375 7 16.095 7 15.75C7 15.405 7.28 15.125 7.625 15.125H16.375C16.72 15.125 17 15.405 17 15.75C17 16.095 16.72 16.375 16.375 16.375ZM16.375 12.625H7.625C7.28 12.625 7 12.345 7 12C7 11.655 7.28 11.375 7.625 11.375H16.375C16.72 11.375 17 11.655 17 12C17 12.345 16.72 12.625 16.375 12.625ZM16.375 8.875H7.625C7.28 8.875 7 8.595 7 8.25C7 7.905 7.28 7.625 7.625 7.625H16.375C16.72 7.625 17 7.905 17 8.25C17 8.595 16.72 8.875 16.375 8.875Z" fill="#646669"/>
</svg>
