<svg width="24" height="24" viewBox="0 0 24 24" fill="none" xmlns="http://www.w3.org/2000/svg">
<path d="M18.9476 10.26C18.8301 9.908 18.5331 9.6555 18.1731 9.6005L14.5186 9.053L12.8736 5.561C12.7101 5.215 12.3756 5 12.0001 5C11.6246 5 11.2901 5.215 11.1266 5.561L9.50559 9.0405L5.82709 9.6005C5.46709 9.6555 5.17059 9.908 5.05259 10.26C4.93209 10.6215 5.02109 11.0135 5.28509 11.283L7.94559 14.006L7.31709 17.844C7.25459 18.2275 7.40959 18.603 7.72259 18.8235C8.02359 19.037 8.41059 19.058 8.73259 18.8805L11.9771 17.0685L15.2676 18.8805C15.5906 19.058 15.9766 19.036 16.2776 18.8235C16.5906 18.603 16.7461 18.2275 16.6831 17.844L16.0536 14.001L18.7151 11.283C18.9791 11.0135 19.0681 10.6215 18.9476 10.26Z" fill="white"/>
</svg>
