<svg width="24" height="24" viewBox="0 0 24 24" fill="none" xmlns="http://www.w3.org/2000/svg">
<g clip-path="url(#clip0_355_4486)">
<path d="M17.9243 12C17.9243 8.73373 15.2668 6.07623 12.0005 6.07623C8.73343 6.07623 6.07593 8.73373 6.07593 12C6.07593 15.2662 8.73343 17.9237 12.0005 17.9237C15.2668 17.9237 17.9243 15.2662 17.9243 12ZM12.3138 15.3162V16.4412H11.6322V15.3487C11.0047 15.3379 10.3559 15.1433 9.97634 14.8721L10.2363 14.1475C10.6263 14.4066 11.1884 14.6125 11.7947 14.6125C12.5626 14.6125 13.0818 14.1692 13.0818 13.5525C13.0818 12.9571 12.6597 12.5891 11.8593 12.265C10.7559 11.8321 10.0743 11.3346 10.0743 10.3929C10.0743 9.4954 10.7122 8.81332 11.7076 8.65123V7.55873H12.3784V8.6079C13.0272 8.62998 13.4713 8.8029 13.7847 8.98665L13.5151 9.7004C13.2872 9.57082 12.8443 9.3329 12.1518 9.3329C11.3188 9.3329 11.0047 9.8304 11.0047 10.2633C11.0047 10.8258 11.4051 11.1071 12.3468 11.4962C13.4609 11.9508 14.0234 12.5133 14.0234 13.4767C14.0234 14.3312 13.4284 15.1321 12.3138 15.3162Z" fill="#646669"/>
<path d="M11.0361 5.52399V3.88066C11.0361 3.82233 10.989 3.77566 10.9311 3.77566H5.82278V2.10566C5.82278 2.06274 5.79694 2.02441 5.75778 2.00858C5.71778 1.99233 5.67278 2.00066 5.64278 2.03108L2.03069 5.64358C1.98944 5.68483 1.98944 5.75108 2.03069 5.79233L5.64278 9.40441C5.66319 9.42441 5.68944 9.43524 5.71736 9.43524C5.73111 9.43524 5.74444 9.43274 5.75778 9.42691C5.79736 9.41066 5.82278 9.37233 5.82278 9.32983V7.65983H7.10069C8.09986 6.53316 9.47778 5.75524 11.0361 5.52399Z" fill="#646669"/>
<path d="M21.9692 18.2079L18.3571 14.5954C18.3271 14.5654 18.2817 14.5562 18.2425 14.5725C18.2033 14.5887 18.1775 14.6275 18.1775 14.67V16.34H16.9C15.9008 17.4666 14.5225 18.245 12.9646 18.4762V20.1191C12.9646 20.177 13.0117 20.2241 13.0696 20.2241H18.1779V21.8941C18.1779 21.937 18.2038 21.9754 18.2429 21.9916C18.2554 21.997 18.2688 22 18.2825 22C18.31 22 18.3367 21.9895 18.3571 21.9691L21.9692 18.357C22.01 18.3154 22.01 18.2491 21.9692 18.2079Z" fill="#646669"/>
</g>
<defs>
<clipPath id="clip0_355_4486">
<rect width="20" height="20" fill="white" transform="translate(2 2)"/>
</clipPath>
</defs>
</svg>
