<svg width="24" height="24" viewBox="0 0 24 24" fill="none" xmlns="http://www.w3.org/2000/svg">
<path d="M11.1451 17.6565V16.3639C10.1726 16.3082 9.22699 16.0449 8.6853 15.7665L9.14374 13.8484C9.76924 14.1538 10.6304 14.4604 11.5895 14.4604C12.2842 14.4604 12.7854 14.2646 12.7854 13.8208C12.7854 13.3894 12.3815 13.1256 11.3397 12.8055C9.82493 12.3201 8.75505 11.6102 8.75505 10.2062C8.75505 8.94226 9.6303 7.94101 11.2002 7.62094V6.34351H12.7854V7.51013C13.7439 7.55176 14.3969 7.74638 14.8976 7.95507L14.4532 9.80344C14.0774 9.65101 13.4103 9.33151 12.3539 9.33151C11.5349 9.33151 11.2846 9.62288 11.2846 9.92944C11.2846 10.2759 11.7571 10.5403 12.9243 10.9566C14.6754 11.5269 15.3149 12.3201 15.3149 13.5846C15.3149 14.8766 14.3975 15.9336 12.7297 16.239V17.6565H11.1451Z" fill="white"/>
<path d="M7.24017 6.85774L4.77079 7.90905C4.44286 8.04967 4.41304 8.33092 4.70498 8.53511L5.03629 8.76686C4.04798 10.7159 3.79373 12.4816 4.28648 14.0229C4.97611 16.1795 6.86386 17.0879 6.94373 17.1256C6.96117 17.1335 6.97917 17.1374 6.99773 17.1374C7.03486 17.1374 7.07142 17.1211 7.09617 17.0902C7.13273 17.0452 7.13329 16.9805 7.09842 16.9344C4.81692 13.9351 6.33511 10.8245 6.80986 10.0089L7.09167 10.2069C7.38417 10.411 7.63842 10.2873 7.65754 9.93124L7.80154 7.25149C7.82011 6.89542 7.56811 6.71824 7.24017 6.85774Z" fill="white"/>
<path d="M16.7604 17.0906L19.2298 16.0382C19.5577 15.8987 19.587 15.6163 19.295 15.4121L18.9637 15.1804C19.9526 13.2324 20.2063 11.4656 19.7135 9.9255C19.0239 7.76775 17.1362 6.86044 17.0563 6.82163C17.0388 6.81375 17.0203 6.80981 17.0023 6.80981C16.9652 6.80981 16.9286 6.82613 16.9038 6.85706C16.8673 6.90206 16.8667 6.96675 16.9016 7.01288C19.1831 10.0121 17.6643 13.1233 17.1896 13.9389L16.9083 13.7415C16.6158 13.5368 16.3616 13.6605 16.3425 14.0166L16.1985 16.6974C16.1799 17.0529 16.4325 17.2301 16.7604 17.0906Z" fill="white"/>
</svg>
