<svg width="17" height="18" viewBox="0 0 17 18" fill="none" xmlns="http://www.w3.org/2000/svg">
<path fill-rule="evenodd" clip-rule="evenodd" d="M5.24308 1.09034C5.55087 0.397908 6.2373 0.0415039 6.94213 0.0415039H9.83499C10.5136 0.0415039 11.1559 0.425885 11.5131 1.05096C11.52 1.06301 11.5264 1.0753 11.5325 1.0878L12.2691 2.61377H16.0735C16.4049 2.61377 16.6735 2.8824 16.6735 3.21377C16.6735 3.54514 16.4049 3.81377 16.0735 3.81377H2.58592L3.68451 16.1424C3.71905 16.4725 4.0342 16.7566 4.37294 16.7566H12.3444C12.6831 16.7566 12.9983 16.4724 13.0328 16.1424L13.9967 5.34612C14.0262 5.01607 14.3177 4.77239 14.6477 4.80186C14.9778 4.83133 15.2215 5.12278 15.192 5.45284L14.2277 16.2528L14.2271 16.2592L14.2271 16.2592C14.1316 17.2138 13.2904 17.9566 12.3444 17.9566H4.37294C3.42687 17.9566 2.58566 17.2138 2.4902 16.2592L2.48955 16.2527L2.48959 16.2527L1.38117 3.81377H0.644922C0.313551 3.81377 0.0449219 3.54514 0.0449219 3.21377C0.0449219 2.8824 0.313551 2.61377 0.644922 2.61377H1.92406H1.93748H4.4551L5.24308 1.09034ZM6.94213 1.2415C6.6258 1.2415 6.41925 1.39185 6.33648 1.585C6.33077 1.59832 6.32458 1.61143 6.31792 1.6243L5.80656 2.61293H10.9362L10.462 1.63056C10.3041 1.36644 10.0521 1.2415 9.83499 1.2415H6.94213ZM8.95586 7.07021C8.95586 6.73884 8.68723 6.47021 8.35586 6.47021C8.02449 6.47021 7.75586 6.73884 7.75586 7.07021V13.4988C7.75586 13.8302 8.02449 14.0988 8.35586 14.0988C8.68723 14.0988 8.95586 13.8302 8.95586 13.4988V7.07021ZM10.9301 7.75635C11.2614 7.75635 11.5301 8.02498 11.5301 8.35635V12.2135C11.5301 12.5449 11.2614 12.8135 10.9301 12.8135C10.5987 12.8135 10.3301 12.5449 10.3301 12.2135V8.35635C10.3301 8.02498 10.5987 7.75635 10.9301 7.75635ZM6.38555 8.35635C6.38555 8.02498 6.11692 7.75635 5.78555 7.75635C5.45418 7.75635 5.18555 8.02498 5.18555 8.35635V12.2135C5.18555 12.5449 5.45418 12.8135 5.78555 12.8135C6.11692 12.8135 6.38555 12.5449 6.38555 12.2135V8.35635Z" fill="black"/>
</svg>
