<?xml version="1.0" encoding="UTF-8"?>
<svg width="11px" height="11px" viewBox="0 0 11 11" version="1.1" xmlns="http://www.w3.org/2000/svg" xmlns:xlink="http://www.w3.org/1999/xlink">
    <title>upload</title>
    <g id="Page-1" stroke="none" stroke-width="1" fill="none" fill-rule="evenodd">
        <g id="15(Elite)" transform="translate(-356, -523)">
            <g id="Group-17" transform="translate(350, 518)">
                <g id="upload" transform="translate(6, 5)">
                    <rect id="Rectangle" x="0" y="0" width="11" height="11"></rect>
                    <g id="3927243_export_send_transfer_transmit_upload_icon" transform="translate(1, 2)" fill="#FFFFFF" fill-rule="nonzero">
                        <path d="M5.05941203,1.51742825 L5.05941203,5.77777778 C5.05941203,6.02323764 4.85795022,6.22222222 4.60943453,6.22222222 C4.36091884,6.22222222 4.15945703,6.02323764 4.15945703,5.77777778 L4.15945703,1.51741037 L3.01849338,2.64431783 C2.84276416,2.81788213 2.55785416,2.81787882 2.38212909,2.64431042 C2.20640402,2.47074202 2.20640738,2.18933536 2.38213659,2.01577106 L4.29125616,0.130171062 C4.46698389,-0.0433918 4.75189097,-0.0433901422 4.92761668,0.130174764 L6.83669123,2.01577476 C7.01241837,2.18934112 7.01241837,2.47074777 6.83669123,2.64431412 C6.66096408,2.81788048 6.37605407,2.81788048 6.20032692,2.64431412 L5.05941203,1.51742825 Z M0,4.88888889 C0,4.64342902 0.201461789,4.44444444 0.449977501,4.44444444 C0.698493213,4.44444444 0.899955002,4.64342902 0.899955002,4.88888889 C0.899955002,5.32251507 0.900183276,6.39429689 0.90040498,6.66666667 C0.90040498,6.91178458 1.10221303,7.11111111 1.35038248,7.11111111 L7.6500675,7.11111111 C7.89826294,7.11111111 8.100045,6.91180333 8.100045,6.66666667 L8.100045,4.88888889 C8.100045,4.64342902 8.30150681,4.44444444 8.5500225,4.44444444 C8.79853819,4.44444444 9,4.64342902 9,4.88888889 L9,6.66666667 C9,7.40271622 8.39530133,8 7.6500675,8 L1.35038248,8 C0.605181603,8 0.000449977501,7.40270431 0.000450121494,6.66702422 C0.000228309585,6.39469844 0,5.32274844 0,4.88888889 Z" id="Shape"></path>
                    </g>
                </g>
            </g>
        </g>
    </g>
</svg>