<?xml version="1.0" encoding="UTF-8"?>
<svg width="37px" height="35px" viewBox="0 0 37 35" version="1.1" xmlns="http://www.w3.org/2000/svg" xmlns:xlink="http://www.w3.org/1999/xlink">
    <title>Website/SVG/Details/Upload Image</title>
    <g id="Page-1" stroke="none" stroke-width="1" fill="none" fill-rule="evenodd">
        <g id="14" transform="translate(-521, -446)">
            <g id="Website/SVG/Details/Upload-Image" transform="translate(521, 446)">
                <rect id="Rectangle" x="0" y="0" width="37" height="35"></rect>
                <g id="Group" transform="translate(3, 3)" fill="#585858" fill-rule="nonzero">
                    <path d="M18.8453502,20.9202171 L15.7027005,20.9202171 L15.7027005,17.7015559 C15.7027005,17.403385 15.4664216,17.1613913 15.1752923,17.1613913 C14.8841629,17.1613913 14.647884,17.403385 14.647884,17.7015559 L14.647884,20.9202171 L11.5052343,20.9202171 C11.214105,20.9202171 10.9778261,21.1622108 10.9778261,21.4603817 C10.9778261,21.7585526 11.214105,22.0005464 11.5052343,22.0005464 L14.647884,22.0005464 L14.647884,25.2192075 C14.647884,25.5173784 14.8841629,25.7593722 15.1752923,25.7593722 C15.4664216,25.7593722 15.7027005,25.5173784 15.7027005,25.2192075 L15.7027005,22.0005464 L18.8453502,22.0005464 C19.1364795,22.0005464 19.3727584,21.7585526 19.3727584,21.4603817 C19.3727584,21.1622108 19.1364795,20.9202171 18.8453502,20.9202171 Z M25.1847969,10.8457861 L22.1546609,13.7147806 C21.9408848,13.9175224 21.9275238,14.2592666 22.1254777,14.4782134 C22.2295529,14.5930884 22.3708983,14.6514262 22.5129469,14.6514262 C22.6409313,14.6514262 22.7692673,14.6038917 22.8712329,14.5081025 L25.5691017,11.9538439 L27.1439426,13.236915 C27.3714313,13.4234518 27.7040501,13.3841999 27.8847753,13.1504886 C28.0662038,12.9174976 28.0282304,12.5771939 27.80039,12.3917373 L25.871834,10.8198582 C25.6682544,10.6542077 25.3767735,10.6642908 25.1847969,10.8457861 Z M11.397643,5.82513566 C11.2074245,5.63787858 10.9103179,5.62455452 10.7039254,5.793446 L2.24113329,12.7136755 C2.01364455,12.8998522 1.97602276,13.2394357 2.1581544,13.4724268 C2.26222962,13.6060275 2.41552961,13.6755287 2.57058762,13.6755287 C2.68591422,13.6755287 2.80194402,13.6369969 2.89933874,13.5574127 L11.0017353,6.93247321 L12.89935,8.7931604 C13.1089069,8.99842297 13.4432837,8.99194099 13.6451052,8.77623524 C13.8462236,8.56052949 13.8391915,8.21878531 13.6285798,8.01244241 L11.397643,5.82513566 Z M28.6140051,0 L2.38634635,0 C1.07063867,0 0,1.09689436 0,2.44478524 L0,20.9115744 C0,22.2591052 1.07063867,23.3556394 2.38634635,23.3556394 L8.05914907,23.3556394 C8.8833123,26.5969875 11.7569838,29 15.1759955,29 C18.5950071,29 21.468327,26.5969875 22.2921387,23.3556394 L28.6136535,23.3556394 C29.9293612,23.3556394 31,22.2591052 31,20.9115744 L31,2.44478524 C31.0003514,1.09689436 29.9297128,0 28.6140051,0 Z M15.1759955,27.9200308 C11.6982657,27.9200308 8.86889648,25.0222275 8.86889648,21.4603817 C8.86889648,17.898536 11.6982657,15.0007326 15.1759955,15.0007326 C18.6533736,15.0007326 21.4823913,17.898536 21.4823913,21.4603817 C21.4823913,25.0222275 18.6533736,27.9200308 15.1759955,27.9200308 Z M29.945535,20.9119345 C29.945535,21.6638437 29.3481573,22.2756702 28.6140051,22.2756702 L22.4922022,22.2756702 C22.5206822,22.0077486 22.5372077,21.7362258 22.5372077,21.4603817 C22.5372077,17.3029144 19.2349291,13.9204033 15.1759955,13.9204033 C11.1167103,13.9204033 7.81408005,17.3029144 7.81408005,21.4603817 C7.81408005,21.7362258 7.83060551,22.0077486 7.85908556,22.2756702 L2.38634635,22.2756702 C1.65219412,22.2756702 1.05481642,21.6638437 1.05481642,20.9119345 L1.05481642,11.8922651 L11.0059545,3.5341173 L20.3263125,12.6708224 C20.4279264,12.7702127 20.5594269,12.8206281 20.6909273,12.8206281 C20.8153957,12.8206281 20.9405672,12.7756144 21.0404232,12.6848667 L25.5490602,8.59870112 L29.945535,12.2721809 L29.945535,20.9119345 Z M29.945535,10.878196 L25.8686695,7.47155754 C25.668606,7.30410649 25.3788831,7.30986825 25.1858517,7.48560182 L20.7049915,11.5465597 L11.397643,2.42245843 C11.2046116,2.23376091 10.9046922,2.22151718 10.6986514,2.39509009 L1.05481642,10.4950392 L1.05481642,2.44478524 C1.05481642,1.69251593 1.65219412,1.08032931 2.38634635,1.08032931 L28.6140051,1.08032931 C29.3481573,1.08032931 29.945535,1.69251593 29.945535,2.44478524 L29.945535,10.878196 Z" id="Shape"></path>
                </g>
            </g>
        </g>
    </g>
</svg>