<svg width="24" height="24" viewBox="0 0 24 24" fill="none" xmlns="http://www.w3.org/2000/svg">
<path d="M13.2437 6.41421V16C13.2437 16.5523 12.796 17 12.2437 17C11.6914 17 11.2437 16.5523 11.2437 16V6.41417L8.7081 8.94971C8.31757 9.34023 7.6844 9.34023 7.29388 8.9497C6.90337 8.55917 6.90337 7.926 7.2939 7.53548L11.5366 3.29288C11.9271 2.90237 12.5603 2.90237 12.9508 3.29289L17.1934 7.53549C17.5839 7.92602 17.5839 8.55918 17.1934 8.94971C16.8029 9.34023 16.1697 9.34023 15.7792 8.94971L13.2437 6.41421ZM2 14C2 13.4477 2.44772 13 3 13C3.55228 13 4 13.4477 4 14C4 14.9757 4.00051 17.3872 4.001 18C4.001 18.5515 4.44948 19 5.001 19H19.001C19.5526 19 20.001 18.5516 20.001 18V14C20.001 13.4477 20.4487 13 21.001 13C21.5533 13 22.001 13.4477 22.001 14V18C22.001 19.6561 20.6572 21 19.001 21H5.001C3.34492 21 2.001 19.6561 2.001 18.0008C2.00051 17.3881 2 14.9762 2 14Z" fill="black"/>
</svg>
