<svg width="24" height="24" viewBox="0 0 24 24" fill="none" xmlns="http://www.w3.org/2000/svg">
<path d="M18.6575 16.718C18.6775 16.7945 18.658 16.87 18.603 16.927C18.5485 16.984 18.4735 17.006 18.3965 16.989C17.724 16.838 16.9735 16.753 16.1825 16.753C15.391 16.753 14.641 16.838 13.968 16.989C13.891 17.006 13.8165 16.984 13.7615 16.927C13.7065 16.87 13.687 16.7945 13.7075 16.718C13.9935 15.635 14.993 14.8345 16.1825 14.8345C17.372 14.8345 18.3715 15.635 18.6575 16.718ZM12.121 7.32046C12.121 6.28846 12.9245 6.22896 12.9245 5.09196C12.9245 3.80946 10.8845 2.62396 7.99802 2.62396C5.11202 2.62396 3.07202 3.85646 3.07202 5.09196C3.07202 6.27596 3.90052 6.07446 3.90052 7.31896C3.90052 7.90696 3.07202 8.31646 3.07202 9.44996C3.07202 12.0965 5.72152 15.5 7.34852 15.5C7.46652 15.5 8.74002 15.5 8.85552 15.5C10.495 15.5 12.9245 11.956 12.9245 9.44996C12.9245 8.36446 12.121 7.98396 12.121 7.32046ZM10.594 11.0325C10.308 12.1155 9.30852 12.916 8.11902 12.916C6.92952 12.916 5.93002 12.1155 5.64402 11.0325C5.62352 10.9565 5.64352 10.8805 5.69802 10.8235C5.75302 10.767 5.82752 10.7445 5.90502 10.762C6.57752 10.913 7.32802 10.9975 8.11902 10.9975C8.91002 10.9975 9.66052 10.913 10.333 10.762C10.41 10.7445 10.4845 10.767 10.5395 10.8235C10.595 10.881 10.6145 10.9565 10.594 11.0325ZM9.80152 6.18446C10.3725 6.18446 10.8575 6.56996 11.0025 7.08996C11.031 7.19246 11.012 7.29296 10.9475 7.37796C10.883 7.46296 10.791 7.50846 10.685 7.50846H8.91852C8.81202 7.50846 8.72002 7.46296 8.65602 7.37796C8.59152 7.29296 8.57252 7.19246 8.60102 7.08996C8.74552 6.57046 9.23052 6.18446 9.80152 6.18446ZM6.19152 6.18446C6.76202 6.18446 7.24752 6.56996 7.39252 7.08996C7.42152 7.19196 7.40202 7.29296 7.33752 7.37796C7.27302 7.46296 7.18102 7.50846 7.07502 7.50846H5.30752C5.20102 7.50846 5.10952 7.46296 5.04502 7.37796C4.98052 7.29296 4.96152 7.19246 4.99002 7.08996C5.13502 6.57096 5.62252 6.18446 6.19152 6.18446ZM20.1835 12.4175C20.1835 11.3855 20.9875 11.3265 20.9875 10.189C20.9875 8.90696 18.947 7.72096 16.0605 7.72096C15.2805 7.72096 14.562 7.81146 13.9295 7.96696C13.7915 8.00096 13.687 8.08946 13.6305 8.22096C13.5745 8.35146 13.582 8.48846 13.6525 8.61246C13.808 8.88496 13.938 9.20696 13.938 9.64396C13.938 10.0775 13.865 10.5425 13.7365 11.015C13.7155 11.091 13.7345 11.166 13.7885 11.2235C13.8425 11.2805 13.9165 11.304 13.994 11.288C14.523 11.1775 15.057 11.4235 15.32 11.8675C15.374 11.9595 15.382 12.062 15.3415 12.16C15.301 12.259 15.2245 12.3265 15.1215 12.3545C14.7195 12.462 13.5915 12.937 13.218 12.8035C13.116 12.767 13.0045 12.809 12.952 12.9035C12.53 13.6625 12.012 14.3505 11.4785 14.853C11.276 15.044 11.195 15.307 11.255 15.579C11.789 17.9995 13.99 20.596 15.411 20.596C15.529 20.596 16.8025 20.596 16.918 20.596C18.558 20.596 20.9875 17.052 20.9875 14.546C20.988 13.4615 20.1835 13.081 20.1835 12.4175ZM18.193 11.3045C18.744 11.452 19.1135 11.9505 19.1195 12.4895C19.1205 12.596 19.076 12.688 18.992 12.7535C18.9075 12.819 18.8075 12.839 18.7045 12.8115L16.9975 12.354C16.894 12.326 16.8175 12.259 16.7775 12.1595C16.737 12.0615 16.745 11.959 16.799 11.867C17.073 11.404 17.6425 11.1565 18.193 11.3045Z" fill="#646669"/>
</svg>
