<svg width="24" height="24" viewBox="0 0 24 24" fill="none" xmlns="http://www.w3.org/2000/svg">
<path d="M19.5 16.0625C19.5 18.3406 16.2053 20.125 12 20.125C7.79469 20.125 4.5 18.3406 4.5 16.0625C4.5 13.7844 7.79469 12 12 12C16.2053 12 19.5 13.7844 19.5 16.0625ZM12 10.75C12.6799 10.75 13.3445 10.5484 13.9098 10.1707C14.4751 9.79296 14.9157 9.2561 15.1758 8.62798C15.436 7.99986 15.5041 7.30869 15.3714 6.64188C15.2388 5.97507 14.9114 5.36257 14.4307 4.88182C13.9499 4.40108 13.3374 4.07369 12.6706 3.94105C12.0038 3.80842 11.3126 3.87649 10.6845 4.13667C10.0564 4.39684 9.51954 4.83743 9.14182 5.40273C8.76411 5.96802 8.5625 6.63263 8.5625 7.3125C8.56359 8.22385 8.92611 9.09756 9.57053 9.74198C10.2149 10.3864 11.0887 10.7489 12 10.75Z" fill="#646669"/>
</svg>
