<svg width="24" height="24" viewBox="0 0 24 24" fill="none" xmlns="http://www.w3.org/2000/svg">
<path d="M21.3333 6.99998C21.1666 6.91665 21 6.91665 20.9166 6.99998L18 9.24998V8.24998C18 6.91665 16.9166 5.83331 15.5833 5.83331H4.83329C3.49996 5.83331 2.41663 6.91665 2.41663 8.24998V15.75C2.41663 17.0833 3.49996 18.1666 4.83329 18.1666H15.5833C16.9166 18.1666 18 17.0833 18 15.75V14.75L20.9166 17C21 17.0833 21.1666 17.0833 21.3333 17C21.5 16.9166 21.5833 16.8333 21.5833 16.6666V7.33331C21.5833 7.16665 21.5 7.08331 21.3333 6.99998Z" fill="#646669"/>
</svg>
