<svg width="24" height="24" viewBox="0 0 24 24" fill="none" xmlns="http://www.w3.org/2000/svg">
<path d="M21.707 10.375H14.125V2.79297C14.125 1.80273 13.2871 1 12.25 1C11.2129 1 10.375 1.80273 10.375 2.79297V10.375H2.79297C1.80273 10.375 1 11.2129 1 12.25C1 13.2871 1.80273 14.125 2.79297 14.125H10.375V21.707C10.375 22.6973 11.2129 23.5 12.25 23.5C13.2871 23.5 14.125 22.6973 14.125 21.707V14.125H21.707C22.6973 14.125 23.5 13.2871 23.5 12.25C23.5 11.2129 22.6973 10.375 21.707 10.375Z" fill="white"/>
</svg>
