<svg width="24" height="24" viewBox="0 0 24 24" fill="none" xmlns="http://www.w3.org/2000/svg">
<g clip-path="url(#clip0_363_377)">
<path d="M19.97 9.99933H3.97V17.9993C3.97 20.9993 4.97 21.9993 7.97 21.9993H15.97C18.97 21.9993 19.97 20.9993 19.97 17.9993V9.99933ZM21.5 6.99933V7.99933C21.5 9.09933 20.97 9.99933 19.5 9.99933H4.5C2.97 9.99933 2.5 9.09933 2.5 7.99933V6.99933C2.5 5.89933 2.97 4.99933 4.5 4.99933H19.5C20.97 4.99933 21.5 5.89933 21.5 6.99933ZM11.64 4.99933H6.12C5.95557 4.82099 5.8668 4.58578 5.8724 4.34327C5.87799 4.10076 5.97752 3.8699 6.15 3.69933L7.57 2.27933C7.74972 2.10162 7.99226 2.00195 8.245 2.00195C8.49774 2.00195 8.74028 2.10162 8.92 2.27933L11.64 4.99933ZM17.87 4.99933H12.35L15.07 2.27933C15.2497 2.10162 15.4923 2.00195 15.745 2.00195C15.9977 2.00195 16.2403 2.10162 16.42 2.27933L17.84 3.69933C18.2 4.05933 18.21 4.62933 17.87 4.99933Z" stroke="url(#paint0_linear_363_377)" stroke-width="1.5" stroke-miterlimit="10" stroke-linecap="round" stroke-linejoin="round"/>
<path d="M8.93945 10V15.14C8.93945 15.94 9.81945 16.41 10.4895 15.98L11.4295 15.36C11.5927 15.2525 11.7839 15.1952 11.9795 15.1952C12.175 15.1952 12.3662 15.2525 12.5295 15.36L13.4195 15.96C13.5696 16.0601 13.7442 16.1176 13.9245 16.1263C14.1047 16.135 14.284 16.0945 14.4431 16.0093C14.6022 15.9241 14.7352 15.7973 14.8279 15.6425C14.9206 15.4876 14.9695 15.3105 14.9695 15.13V10H8.93945Z" stroke="url(#paint1_linear_363_377)" stroke-width="1.5" stroke-miterlimit="10" stroke-linecap="round" stroke-linejoin="round"/>
</g>
<defs>
<linearGradient id="paint0_linear_363_377" x1="12" y1="2.00195" x2="12" y2="21.9993" gradientUnits="userSpaceOnUse">
<stop stop-color="#FAF0BA"/>
<stop offset="1" stop-color="#978814"/>
</linearGradient>
<linearGradient id="paint1_linear_363_377" x1="11.4995" y1="3.5" x2="11.4995" y2="19.5" gradientUnits="userSpaceOnUse">
<stop stop-color="#FAF0BA"/>
<stop offset="1" stop-color="#978814"/>
</linearGradient>
<clipPath id="clip0_363_377">
<rect width="24" height="24" fill="white"/>
</clipPath>
</defs>
</svg>
