<svg width="120" height="120" viewBox="0 0 120 120" fill="none" xmlns="http://www.w3.org/2000/svg">
<rect width="120" height="120" fill="white"/>
<path d="M60.0005 10C53.4344 9.99995 46.9325 11.2932 40.8662 13.8059C34.7999 16.3186 29.2879 20.0016 24.6449 24.6445C20.002 29.2874 16.3189 34.7993 13.8062 40.8655C11.2934 46.9318 10 53.4336 10 59.9997C9.99997 66.5658 11.2933 73.0677 13.806 79.134C16.3188 85.2004 20.0018 90.7125 24.6447 95.3554C29.2877 99.9984 34.7998 103.681 40.8661 106.194C46.9325 108.707 53.4343 110 60.0005 110C73.2613 110 85.9789 104.732 95.3556 95.3551C104.732 85.9782 110 73.2605 110 59.9997C110 46.739 104.732 34.0216 95.3554 24.6448C85.9787 15.2681 73.2612 10.0002 60.0005 10Z" fill="url(#paint0_linear_816_230)"/>
<path d="M67.174 38.8394C67.6783 34.8965 63.974 31.6641 59.9989 31.6641C56.0239 31.6641 52.3193 34.8964 52.8235 38.8394L56.3531 66.4265C56.6092 68.4303 57.9789 70.0731 59.9989 70.0731C62.019 70.0731 63.3893 68.4303 63.6455 66.4265L67.174 38.8394Z" fill="white"/>
<path d="M66.3399 81.9973C66.3399 78.4847 63.5114 75.657 59.9989 75.657C56.4862 75.657 53.6586 78.4847 53.6586 81.9973C53.6586 85.5099 56.4862 88.3375 59.9989 88.3375C63.5114 88.3375 66.3399 85.5099 66.3399 81.9973Z" fill="white"/>
<defs>
<linearGradient id="paint0_linear_816_230" x1="59.9886" y1="9.46517" x2="59.9886" y2="110.383" gradientUnits="userSpaceOnUse">
<stop stop-color="#FFF650"/>
<stop offset="1" stop-color="#FFAB17"/>
</linearGradient>
</defs>
</svg>
