<svg width="35" height="35" viewBox="0 0 35 35" fill="none" xmlns="http://www.w3.org/2000/svg">
<path d="M31.296 16.0957H4.16C4.064 16.0957 4 16.1597 4 16.2557V25.7597C4 26.9757 4.992 27.9677 6.208 27.9677H29.248C30.464 27.9677 31.456 26.9757 31.456 25.7597V16.2557C31.456 16.1917 31.36 16.0957 31.296 16.0957ZM13.92 24.2237H6.816V23.3917H13.888V24.2237H13.92ZM16.704 24.2237H14.912V23.3917H16.704V24.2237Z" fill="url(#paint0_linear_365_493)"/>
<path d="M31.168 13.92H4.288C4.128 13.92 4 13.792 4 13.632V11.648C4 9.632 5.632 8 7.648 8H27.776C29.792 8 31.424 9.632 31.424 11.648V13.632C31.456 13.792 31.328 13.92 31.168 13.92Z" fill="url(#paint1_linear_365_493)"/>
<defs>
<linearGradient id="paint0_linear_365_493" x1="17.7249" y1="16.0322" x2="17.7249" y2="28.0131" gradientUnits="userSpaceOnUse">
<stop stop-color="#FFF650"/>
<stop offset="1" stop-color="#FFAB17"/>
</linearGradient>
<linearGradient id="paint1_linear_365_493" x1="17.7113" y1="7.96834" x2="17.7113" y2="13.9427" gradientUnits="userSpaceOnUse">
<stop stop-color="#FFF650"/>
<stop offset="1" stop-color="#FFAB17"/>
</linearGradient>
</defs>
</svg>
