<svg width="48" height="48" viewBox="0 0 48 48" fill="none" xmlns="http://www.w3.org/2000/svg">
<g clip-path="url(#clip0_361_120)">
<path d="M7.78906 26.3633H41.1224V39.9049C41.1224 41.2863 40.5737 42.611 39.5969 43.5878C38.6202 44.5645 37.2954 45.1133 35.9141 45.1133H12.9974C11.6161 45.1133 10.2913 44.5645 9.31455 43.5878C8.3378 42.611 7.78906 41.2863 7.78906 39.9049V26.3633Z" fill="url(#paint0_linear_361_120)"/>
<path d="M41.1224 26.3633H7.78906V28.4466H41.1224V26.3633Z" fill="url(#paint1_linear_361_120)"/>
<path d="M40.6009 21.1543H8.30924C6.871 21.1543 5.70508 22.3202 5.70508 23.7585C5.70508 25.1967 6.871 26.3626 8.30924 26.3626H40.6009C42.0392 26.3626 43.2051 25.1967 43.2051 23.7585C43.2051 22.3202 42.0392 21.1543 40.6009 21.1543Z" fill="url(#paint2_linear_361_120)"/>
<path d="M17.1641 34.1758C17.1641 33.3128 16.4645 32.6133 15.6016 32.6133C14.7386 32.6133 14.0391 33.3128 14.0391 34.1758V40.4258C14.0391 41.2887 14.7386 41.9883 15.6016 41.9883C16.4645 41.9883 17.1641 41.2887 17.1641 40.4258V34.1758Z" fill="url(#paint3_linear_361_120)"/>
<path d="M23.4141 34.1758C23.4141 33.3128 22.7145 32.6133 21.8516 32.6133C20.9886 32.6133 20.2891 33.3128 20.2891 34.1758V40.4258C20.2891 41.2887 20.9886 41.9883 21.8516 41.9883C22.7145 41.9883 23.4141 41.2887 23.4141 40.4258V34.1758Z" fill="url(#paint4_linear_361_120)"/>
<path d="M29.6641 34.1758C29.6641 33.3128 28.9645 32.6133 28.1016 32.6133C27.2386 32.6133 26.5391 33.3128 26.5391 34.1758V40.4258C26.5391 41.2887 27.2386 41.9883 28.1016 41.9883C28.9645 41.9883 29.6641 41.2887 29.6641 40.4258V34.1758Z" fill="url(#paint5_linear_361_120)"/>
<path d="M35.9141 34.1758C35.9141 33.3128 35.2145 32.6133 34.3516 32.6133C33.4886 32.6133 32.7891 33.3128 32.7891 34.1758V40.4258C32.7891 41.2887 33.4886 41.9883 34.3516 41.9883C35.2145 41.9883 35.9141 41.2887 35.9141 40.4258V34.1758Z" fill="url(#paint6_linear_361_120)"/>
<path d="M17.1641 33.1348C17.1641 32.2718 16.4645 31.5723 15.6016 31.5723C14.7386 31.5723 14.0391 32.2718 14.0391 33.1348V39.3848C14.0391 40.2477 14.7386 40.9473 15.6016 40.9473C16.4645 40.9473 17.1641 40.2477 17.1641 39.3848V33.1348Z" fill="url(#paint7_linear_361_120)"/>
<path d="M23.4141 33.1348C23.4141 32.2718 22.7145 31.5723 21.8516 31.5723C20.9886 31.5723 20.2891 32.2718 20.2891 33.1348V39.3848C20.2891 40.2477 20.9886 40.9473 21.8516 40.9473C22.7145 40.9473 23.4141 40.2477 23.4141 39.3848V33.1348Z" fill="url(#paint8_linear_361_120)"/>
<path d="M29.6641 33.1348C29.6641 32.2718 28.9645 31.5723 28.1016 31.5723C27.2386 31.5723 26.5391 32.2718 26.5391 33.1348V39.3848C26.5391 40.2477 27.2386 40.9473 28.1016 40.9473C28.9645 40.9473 29.6641 40.2477 29.6641 39.3848V33.1348Z" fill="url(#paint9_linear_361_120)"/>
<path d="M35.9141 33.1348C35.9141 32.2718 35.2145 31.5723 34.3516 31.5723C33.4886 31.5723 32.7891 32.2718 32.7891 33.1348V39.3848C32.7891 40.2477 33.4886 40.9473 34.3516 40.9473C35.2145 40.9473 35.9141 40.2477 35.9141 39.3848V33.1348Z" fill="url(#paint10_linear_361_120)"/>
<path d="M21.8607 15.5489C22.4709 14.9387 22.4709 13.9494 21.8607 13.3392C21.2505 12.729 20.2612 12.729 19.651 13.3392L10.3776 22.6126C9.7674 23.2228 9.7674 24.2122 10.3776 24.8223C10.9878 25.4325 11.9771 25.4325 12.5873 24.8223L21.8607 15.5489Z" fill="url(#paint11_linear_361_120)"/>
<path d="M36.3163 24.8158C36.9265 25.426 37.9158 25.426 38.526 24.8158C39.1362 24.2056 39.1362 23.2163 38.526 22.6061L29.2526 13.3327C28.6424 12.7225 27.6531 12.7225 27.0429 13.3327C26.4327 13.9429 26.4327 14.9322 27.0429 15.5424L36.3163 24.8158Z" fill="url(#paint12_linear_361_120)"/>
</g>
<defs>
<linearGradient id="paint0_linear_361_120" x1="24.4557" y1="27.0195" x2="24.4557" y2="45.6758" gradientUnits="userSpaceOnUse">
<stop stop-color="#00E3FF"/>
<stop offset="1" stop-color="#00AFD6"/>
</linearGradient>
<linearGradient id="paint1_linear_361_120" x1="24.4557" y1="19.9258" x2="24.4557" y2="27.3112" gradientUnits="userSpaceOnUse">
<stop stop-color="#00BDE8"/>
<stop offset="1" stop-color="#009DC1"/>
</linearGradient>
<linearGradient id="paint2_linear_361_120" x1="24.3717" y1="20.4251" x2="24.5801" y2="28.7376" gradientUnits="userSpaceOnUse">
<stop stop-color="#00E3FF"/>
<stop offset="1" stop-color="#00AFD6"/>
</linearGradient>
<linearGradient id="paint3_linear_361_120" x1="15.6016" y1="42.7904" x2="15.6016" y2="38.1758" gradientUnits="userSpaceOnUse">
<stop stop-color="#18E7FF"/>
<stop offset="1" stop-color="#18C7EE"/>
</linearGradient>
<linearGradient id="paint4_linear_361_120" x1="21.8516" y1="42.7904" x2="21.8516" y2="38.1758" gradientUnits="userSpaceOnUse">
<stop stop-color="#18E7FF"/>
<stop offset="1" stop-color="#18C7EE"/>
</linearGradient>
<linearGradient id="paint5_linear_361_120" x1="28.1016" y1="42.7904" x2="28.1016" y2="38.1758" gradientUnits="userSpaceOnUse">
<stop stop-color="#18E7FF"/>
<stop offset="1" stop-color="#18C7EE"/>
</linearGradient>
<linearGradient id="paint6_linear_361_120" x1="34.3516" y1="42.7904" x2="34.3516" y2="38.1758" gradientUnits="userSpaceOnUse">
<stop stop-color="#18E7FF"/>
<stop offset="1" stop-color="#18C7EE"/>
</linearGradient>
<linearGradient id="paint7_linear_361_120" x1="15.6016" y1="32.6243" x2="15.6016" y2="41.6556" gradientUnits="userSpaceOnUse">
<stop stop-color="#009EC9"/>
<stop offset="1" stop-color="#007EA2"/>
</linearGradient>
<linearGradient id="paint8_linear_361_120" x1="21.8516" y1="32.6243" x2="21.8516" y2="41.6556" gradientUnits="userSpaceOnUse">
<stop stop-color="#009EC9"/>
<stop offset="1" stop-color="#007EA2"/>
</linearGradient>
<linearGradient id="paint9_linear_361_120" x1="28.1016" y1="32.6243" x2="28.1016" y2="41.6556" gradientUnits="userSpaceOnUse">
<stop stop-color="#009EC9"/>
<stop offset="1" stop-color="#007EA2"/>
</linearGradient>
<linearGradient id="paint10_linear_361_120" x1="34.3516" y1="32.6243" x2="34.3516" y2="41.6556" gradientUnits="userSpaceOnUse">
<stop stop-color="#009EC9"/>
<stop offset="1" stop-color="#007EA2"/>
</linearGradient>
<linearGradient id="paint11_linear_361_120" x1="14.9543" y1="17.9162" x2="17.173" y2="20.1349" gradientUnits="userSpaceOnUse">
<stop stop-color="#4D4D4D"/>
<stop offset="0.18" stop-color="#808080"/>
<stop offset="1" stop-color="#4D4D4D"/>
</linearGradient>
<linearGradient id="paint12_linear_361_120" x1="33.8989" y1="17.9617" x2="31.7114" y2="20.1388" gradientUnits="userSpaceOnUse">
<stop stop-color="#4D4D4D"/>
<stop offset="0.18" stop-color="#808080"/>
<stop offset="1" stop-color="#4D4D4D"/>
</linearGradient>
<clipPath id="clip0_361_120">
<rect width="48" height="48" fill="white"/>
</clipPath>
</defs>
</svg>
