<svg width="44" height="44" viewBox="0 0 44 44" fill="none" xmlns="http://www.w3.org/2000/svg">
<circle cx="22" cy="22" r="22" fill="white"/>
<path d="M15.4398 13.3172L15.5823 13.4431L22 19.861L28.4177 13.4431C29.0084 12.8523 29.9662 12.8523 30.5569 13.4431C31.1022 13.9883 31.1442 14.8464 30.6828 15.4398L30.5569 15.5823L24.139 22L30.5569 28.4177C31.1477 29.0084 31.1477 29.9662 30.5569 30.5569C30.0117 31.1022 29.1536 31.1442 28.5602 30.6828L28.4177 30.5569L22 24.139L15.5823 30.5569C14.9916 31.1477 14.0338 31.1477 13.4431 30.5569C12.8978 30.0117 12.8558 29.1536 13.3172 28.5602L13.4431 28.4177L19.861 22L13.4431 15.5823C12.8523 14.9916 12.8523 14.0338 13.4431 13.4431C13.9883 12.8978 14.8464 12.8558 15.4398 13.3172Z" fill="black"/>
</svg>
