<svg width="24" height="24" viewBox="0 0 24 24" fill="none" xmlns="http://www.w3.org/2000/svg">
<path d="M8.3308 7.17303L8.40852 7.24166L11.9091 10.7424L15.4097 7.24166C15.7319 6.91945 16.2543 6.91945 16.5765 7.24166C16.874 7.5391 16.8968 8.00712 16.6452 8.3308L16.5765 8.40852L13.0758 11.9091L16.5765 15.4097C16.8987 15.7319 16.8987 16.2543 16.5765 16.5765C16.2791 16.874 15.8111 16.8968 15.4874 16.6452L15.4097 16.5765L11.9091 13.0758L8.40852 16.5765C8.08631 16.8987 7.56388 16.8987 7.24166 16.5765C6.94423 16.2791 6.92135 15.8111 7.17303 15.4874L7.24166 15.4097L10.7424 11.9091L7.24166 8.40852C6.91945 8.08631 6.91945 7.56388 7.24166 7.24166C7.5391 6.94423 8.00712 6.92136 8.3308 7.17303Z" fill="white"/>
</svg>
