<svg width="24" height="24" viewBox="0 0 24 24" fill="none" xmlns="http://www.w3.org/2000/svg">
<path d="M6.89762 5.24673L7.00845 5.34459L12 10.3363L16.9915 5.34459C17.451 4.88514 18.1959 4.88514 18.6554 5.34459C19.0795 5.76871 19.1121 6.43608 18.7533 6.89762L18.6554 7.00845L13.6637 12L18.6554 16.9915C19.1149 17.451 19.1149 18.1959 18.6554 18.6554C18.2313 19.0795 17.5639 19.1121 17.1024 18.7533L16.9915 18.6554L12 13.6637L7.00845 18.6554C6.54899 19.1149 5.80406 19.1149 5.3446 18.6554C4.92048 18.2313 4.88785 17.5639 5.24672 17.1024L5.3446 16.9915L10.3363 12L5.3446 7.00845C4.88514 6.54899 4.88514 5.80405 5.3446 5.34459C5.76871 4.92048 6.43608 4.88786 6.89762 5.24673Z" fill="black"/>
</svg>
