<svg width="24" height="24" viewBox="0 0 24 24" fill="white" xmlns="http://www.w3.org/2000/svg">
<path d="M3.67942 20.3219C3.39592 20.6054 3.39592 21.0654 3.67942 21.3489L5.1048 22.7743C5.24655 22.916 5.43227 22.9869 5.61864 22.9869C5.80436 22.9869 5.99073 22.916 6.13248 22.7743L15.925 12.9817L13.4726 10.5293L3.67942 20.3219Z" fill="white"/>
<path d="M16.8609 12.0454L19.5156 9.39062L17.0627 6.93774L14.408 9.59248L16.8609 12.0454Z" fill="white"/>
<path d="M8.62039 9.87294C9.00561 8.36225 9.31798 8.04987 10.8287 7.66466C9.31733 7.28009 9.00495 6.96772 8.62039 5.45703C8.23517 6.96772 7.9228 7.28009 6.41211 7.66531C7.9228 8.05053 8.23517 8.36225 8.62039 9.87294Z" fill="white"/>
<path d="M14.7944 5.32576C15.0831 4.19242 15.3174 3.9588 16.4501 3.67005C15.3174 3.38064 15.0831 3.14702 14.7944 2.01367C14.5056 3.14702 14.2714 3.38064 13.1387 3.66939C14.2714 3.9588 14.5056 4.19242 14.7944 5.32576Z" fill="white"/>
<path d="M19.8784 15.0879C19.5896 16.2212 19.3553 16.4549 18.2227 16.7436C19.356 17.0324 19.5896 17.2666 19.8784 18.3993C20.1671 17.266 20.4014 17.0324 21.5341 16.7436C20.4014 16.4549 20.1671 16.2212 19.8784 15.0879Z" fill="white"/>
</svg>
