<svg width="24" height="24" viewBox="0 0 24 24" fill="none" xmlns="http://www.w3.org/2000/svg">
<g clip-path="url(#clip0_363_379)">
<path fill-rule="evenodd" clip-rule="evenodd" d="M12 1.25195C11.5179 1.25195 11.0442 1.37871 10.6266 1.61949L7.39213 3.46773C7.20855 3.49453 7.03637 3.58893 6.91512 3.7403L3.6279 5.61872L3.62789 5.61871L3.625 5.62038C3.27995 5.8196 2.9832 6.09088 2.75437 6.41462C2.70293 6.46324 2.65758 6.52002 2.62033 6.58442C2.5877 6.64082 2.56324 6.6997 2.54658 6.75969C2.35235 7.14328 2.25044 7.56776 2.25 7.99913V7.9999V15.9999V16.0007C2.2505 16.4829 2.3778 16.9566 2.61913 17.3741C2.86047 17.7916 3.20736 18.1383 3.625 18.3794L3.6279 18.3811L10.625 22.3794L10.6265 22.3803C10.9303 22.5554 11.2638 22.6703 11.6085 22.7198C11.7225 22.7897 11.8565 22.83 12 22.83C12.1435 22.83 12.2775 22.7897 12.3915 22.7198C12.7362 22.6703 13.0696 22.5555 13.3734 22.3803L13.375 22.3794L20.3721 18.3811L20.375 18.3794C20.7926 18.1383 21.1395 17.7916 21.3809 17.3741C21.6222 16.9566 21.7495 16.4829 21.75 16.0007V15.9999V7.9999V7.99913C21.7496 7.56621 21.6469 7.14022 21.4513 6.75555C21.4347 6.69699 21.4106 6.63952 21.3787 6.58442C21.3422 6.52122 21.2978 6.46535 21.2476 6.41733C21.0185 6.0924 20.721 5.82015 20.375 5.62038L20.3721 5.61872L13.375 1.62038L13.3734 1.61945C12.9557 1.37869 12.4821 1.25195 12 1.25195ZM12.75 21.0089L19.625 17.0804L19.6263 17.0796C19.8156 16.9701 19.9728 16.8128 20.0822 16.6234C20.1919 16.4336 20.2498 16.2183 20.25 15.9991V8.1038L12.75 12.4423V21.0089ZM11.25 12.4428L3.75 8.10434V15.9995C3.75029 16.2186 3.80815 16.4337 3.91779 16.6234C4.02724 16.8128 4.18445 16.9701 4.37371 17.0796L4.375 17.0804L11.25 21.0089V12.4428ZM12.6279 2.92108L19.4624 6.82651L16.5052 8.53717L9.05869 4.24303L11.3721 2.92108L11.375 2.91942C11.565 2.80971 11.7806 2.75195 12 2.75195C12.2194 2.75195 12.435 2.80971 12.625 2.91942L12.625 2.91943L12.6279 2.92108ZM11.9995 11.1435L15.0062 9.40428L7.5505 5.10485L4.53713 6.82678L11.9995 11.1435Z" fill="url(#paint0_linear_363_379)"/>
</g>
<defs>
<linearGradient id="paint0_linear_363_379" x1="12" y1="1.25195" x2="12" y2="22.83" gradientUnits="userSpaceOnUse">
<stop stop-color="#FAF0BA"/>
<stop offset="1" stop-color="#978814"/>
</linearGradient>
<clipPath id="clip0_363_379">
<rect width="24" height="24" fill="white"/>
</clipPath>
</defs>
</svg>
