<svg width="24" height="24" viewBox="0 0 24 24" fill="none" xmlns="http://www.w3.org/2000/svg">
<path d="M11.7031 13.8215V5.83333C11.7031 5.3731 12.0762 5 12.5364 5C12.9967 5 13.3697 5.3731 13.3697 5.83333V13.8215L15.4827 11.7086C15.8081 11.3831 16.3357 11.3831 16.6612 11.7086C16.9866 12.034 16.9866 12.5617 16.6612 12.8871L13.1257 16.4226C12.8002 16.748 12.2726 16.748 11.9472 16.4226L8.41158 12.8871C8.08614 12.5617 8.08614 12.034 8.41157 11.7086C8.737 11.3831 9.26464 11.3831 9.59008 11.7086L11.7031 13.8215ZM4 14.1667C4 13.7064 4.3731 13.3333 4.83333 13.3333C5.29357 13.3333 5.66667 13.7064 5.66667 14.1667C5.66667 14.9797 5.66709 16.9893 5.6675 17.5C5.6675 17.9596 6.04124 18.3333 6.50083 18.3333H18.1675C18.6271 18.3333 19.0008 17.9596 19.0008 17.5V14.1667C19.0008 13.7064 19.3739 13.3333 19.8342 13.3333C20.2944 13.3333 20.6675 13.7064 20.6675 14.1667V17.5C20.6675 18.8801 19.5476 20 18.1675 20H6.50083C5.12076 20 4.00083 18.8801 4.00083 17.5007C4.00042 16.9901 4 14.9802 4 14.1667Z" fill="white"/>
</svg>
