<svg width="24" height="24" viewBox="0 0 24 24" fill="none" xmlns="http://www.w3.org/2000/svg">
<path d="M11.2072 5.63672H5.64111C5.21933 5.63672 4.81482 5.80427 4.51658 6.10251C4.21833 6.40076 4.05078 6.80526 4.05078 7.22704V18.3593C4.05078 18.7811 4.21833 19.1856 4.51658 19.4838C4.81482 19.7821 5.21933 19.9496 5.64111 19.9496H16.7734C17.1952 19.9496 17.5997 19.7821 17.8979 19.4838C18.1962 19.1856 18.3637 18.7811 18.3637 18.3593V12.7932" stroke="white" stroke-width="1.25" stroke-linecap="round" stroke-linejoin="round"/>
<path d="M17.1715 4.44327C17.4878 4.12693 17.9168 3.94922 18.3642 3.94922C18.8116 3.94922 19.2406 4.12693 19.557 4.44327C19.8733 4.7596 20.051 5.18865 20.051 5.63601C20.051 6.08338 19.8733 6.51242 19.557 6.82876L12.0029 14.3828L8.82227 15.178L9.61743 11.9973L17.1715 4.44327Z" stroke="white" stroke-width="1.25" stroke-linecap="round" stroke-linejoin="round"/>
</svg>
