<?xml version="1.0" encoding="UTF-8"?>
<svg width="21px" height="13px" viewBox="0 0 21 13" version="1.1" xmlns="http://www.w3.org/2000/svg" xmlns:xlink="http://www.w3.org/1999/xlink">
    <title>961844_eye_look_see_view_visible_icon</title>
    <g id="Page-1" stroke="none" stroke-width="1" fill="none" fill-rule="evenodd" fill-opacity="0.5">
        <g id="6" transform="translate(-1331, -496)" fill="#000000" fill-rule="nonzero">
            <g id="Group-29" transform="translate(0, -3)">
                <g id="Group-9" transform="translate(1009, 159)">
                    <g id="961844_eye_look_see_view_visible_icon" transform="translate(322, 340)">
                        <path d="M10.36,12 C14.36,12 17.82,9.78 19.6,6.5 C17.82,3.22 14.36,1 10.36,1 C6.36,1 2.9,3.22 1.12,6.5 C2.9,9.78 6.36,12 10.36,12 M10.36,0 C14.92,0 18.86,2.65 20.72,6.5 C18.86,10.35 14.92,13 10.36,13 C5.8,13 1.86,10.35 -6.66133815e-16,6.5 C1.86,2.65 5.8,0 10.36,0 M10.36,2 C12.86,2 14.86,4 14.86,6.5 C14.86,9 12.86,11 10.36,11 C7.86,11 5.86,9 5.86,6.5 C5.86,4 7.86,2 10.36,2 M10.36,3 C8.43,3 6.86,4.57 6.86,6.5 C6.86,8.43 8.43,10 10.36,10 C12.29,10 13.86,8.43 13.86,6.5 C13.86,4.57 12.29,3 10.36,3 Z" id="Shape"></path>
                    </g>
                </g>
            </g>
        </g>
    </g>
</svg>