<?xml version="1.0" encoding="UTF-8"?>
<svg width="24px" height="24px" viewBox="0 0 24 24" version="1.1" xmlns="http://www.w3.org/2000/svg" xmlns:xlink="http://www.w3.org/1999/xlink">
    <title>eye close</title>
    <g id="eye-close" stroke="none" stroke-width="1" fill="none" fill-rule="evenodd" fill-opacity="0.5">
        <g id="961843_eye_off_hidden_invisible_visible_icon" transform="translate(2, 3)" fill="#000000" fill-rule="nonzero">
            <path d="M1.4,0.71 L2.11,0 L18.86,16.75 L18.15,17.46 L14.81,14.11 C13.44,14.68 11.94,15 10.36,15 C5.8,15 1.86,12.35 -6.66133815e-16,8.5 C0.97,6.5 2.49,4.83 4.36,3.68 L1.4,0.71 M10.36,14 C11.65,14 12.89,13.77 14.03,13.34 L12.91,12.21 C12.18,12.71 11.31,13 10.36,13 C7.86,13 5.86,11 5.86,8.5 C5.86,7.55 6.15,6.68 6.65,5.95 L5.1,4.41 C3.43,5.38 2.05,6.8 1.12,8.5 C2.9,11.78 6.36,14 10.36,14 M19.6,8.5 C17.82,5.22 14.36,3 10.36,3 C9.21,3 8.09,3.19 7.05,3.53 L6.27,2.75 C7.54,2.26 8.92,2 10.36,2 C14.92,2 18.86,4.65 20.72,8.5 C19.81,10.39 18.39,12 16.65,13.13 L15.93,12.4 C17.46,11.44 18.73,10.1 19.6,8.5 M10.36,4 C12.86,4 14.86,6 14.86,8.5 C14.86,9.32 14.64,10.08 14.26,10.74 L13.52,10 C13.74,9.54 13.86,9.04 13.86,8.5 C13.86,6.57 12.29,5 10.36,5 C9.82,5 9.32,5.12 8.86,5.34 L8.12,4.6 C8.78,4.22 9.54,4 10.36,4 M6.86,8.5 C6.86,10.43 8.43,12 10.36,12 C11.03,12 11.65,11.81 12.18,11.5 L7.36,6.68 C7.05,7.21 6.86,7.83 6.86,8.5 Z" id="Shape"></path>
        </g>
    </g>
</svg>