<svg width="119" height="119" viewBox="0 0 119 119" fill="none" xmlns="http://www.w3.org/2000/svg">
<g clip-path="url(#clip0_4229_3393)">
<path d="M78.1322 104.714L23.9014 93.1541C26.156 82.6711 27.2057 70.5334 37.6055 63.9036C37.6055 63.9036 48.7887 58.9385 51.4456 57.2482C54.0833 55.5539 52.3821 52.8547 52.3821 52.8547C52.3821 52.8547 47.247 48.465 41.9332 40.3228C36.5703 32.1302 38.5091 23.5969 40.6409 14.3458C40.7671 13.7537 41.537 10.423 41.6551 9.86906L95.8859 21.4293C94.705 26.9689 93.9319 32.3758 92.2318 37.1657C91.783 38.428 91.281 39.6589 90.6725 40.8273C87.4464 47.2489 81.5841 47.9563 68.5616 56.3037C68.5616 56.3037 65.9075 58.0744 67.625 60.6972C69.3425 63.3199 77.5479 72.418 77.5479 72.418C84.344 82.6935 80.3608 94.1659 78.1322 104.714Z" fill="#E6E6E6"/>
<path d="M75.242 104.179L26.7992 93.8523C26.7992 93.8523 29.8768 82.5063 32.3797 79.6649C36.5542 74.8833 47.2767 71.5175 54.4165 67.6275L58.4599 48.6592C55.6299 44.0419 49.7809 36.7242 48.1365 31.0417C47.5122 28.9116 47.1664 24.4445 46.9549 20.5651C54.0232 29.0015 60.1228 29.5229 66.038 28.5671C72.8015 27.4727 79.3133 24.4674 86.8018 29.0592C85.0608 32.5423 82.9465 36.4651 81.546 38.1635C77.7382 42.7238 69.1952 47.0135 64.5986 50.0277L60.5958 68.805C60.5958 68.805 74.0788 82.8424 75.9665 88.9762C77.0548 92.5832 75.242 104.179 75.242 104.179Z" fill="#F1C40F"/>
<path opacity="0.2" d="M66.0173 28.5805L56.9867 70.5696L36.5203 95.6627L26.7977 93.8697C26.7977 93.8697 29.8753 82.5238 32.3781 79.6823C36.5527 74.9007 47.2752 71.5349 54.4149 67.645L58.4584 48.6766C55.6284 44.0594 49.7794 36.7416 48.135 31.0591C47.5107 28.929 47.1649 24.4619 46.9534 20.5825C54.0067 28.9957 60.1022 29.5362 66.0173 28.5805Z" fill="white"/>
<path opacity="0.5" d="M50.4541 67.521C52.227 65.7621 57.3873 60.5716 58.3989 58.7303C60.03 55.7629 59.3355 54.3368 59.3355 54.3368C59.3355 54.3368 58.4264 48.6712 56.6993 43.4703C53.4737 33.7762 53.2752 26.7444 55.407 17.4933C55.5332 16.9012 56.3031 13.5705 56.4212 13.0166L47.7489 11.1679C47.6308 11.7218 46.88 15.0566 46.7346 15.6447C44.6029 24.8957 42.664 33.429 48.0269 41.6216C53.3448 49.7447 54.1397 53.2292 54.1397 53.2292C54.1397 53.2292 55.8409 55.9284 53.2032 57.6227C50.5463 59.313 43.6992 65.2024 43.6992 65.2024C33.2803 71.8281 32.2306 83.9659 29.9951 94.4529L38.6675 96.3016C40.9221 85.8186 41.3459 76.523 50.4541 67.521Z" fill="#F5F5F5"/>
<path opacity="0.1" d="M92.2366 37.1624L41.0585 12.5934C41.1684 12.0776 41.2527 11.776 41.3016 11.5468C41.3423 11.3558 41.3749 11.203 41.4156 11.012C41.4685 10.7636 41.5377 10.4389 41.6558 9.88493L95.8866 21.4452C94.7057 26.9848 93.9326 32.3916 92.2366 37.1624Z" fill="black"/>
<path d="M100.706 17.2019L38.7388 3.99251C37.6118 3.75226 36.4966 4.39323 36.2808 5.40563L35.7555 7.8698L35.4175 9.45527C35.2017 10.4677 35.9435 11.4845 37.0706 11.7248L99.0568 24.9383C100.184 25.1785 101.276 24.5526 101.492 23.5402L101.83 21.9547L102.355 19.4905C102.59 18.4822 101.833 17.4422 100.706 17.2019Z" fill="#224F87"/>
<path opacity="0.2" d="M100.285 19.1695L38.3179 5.96006C37.1909 5.71982 36.0187 6.62821 35.7296 7.98446L36.1857 5.84503C36.4748 4.48878 37.6469 3.58039 38.774 3.82063L100.76 17.0341C101.887 17.2744 102.568 18.5777 102.279 19.934L101.823 22.0734C102.112 20.7172 101.412 19.4097 100.285 19.1695Z" fill="white"/>
<path d="M82.9058 110.782L83.8261 106.465C84.1152 105.109 83.4345 103.805 82.3075 103.565L20.3213 90.3517C19.1942 90.1115 18.0412 91.0239 17.7521 92.3802L16.8318 96.6972L82.9058 110.782Z" fill="#0D2038"/>
<path opacity="0.2" d="M82.9058 110.782L83.8261 106.465C84.1152 105.109 83.4345 103.805 82.3075 103.565L20.3213 90.3517C19.1942 90.1115 18.0412 91.0239 17.7521 92.3802L16.8318 96.6972L82.9058 110.782Z" fill="white"/>
<path d="M83.9859 115.706L84.9061 111.389C85.1952 110.033 84.4572 108.717 83.2538 108.461L17.4472 94.433C16.2628 94.1805 15.0334 95.0767 14.7442 96.4329L13.824 100.75L83.9859 115.706Z" fill="#224F87"/>
</g>
<defs>
<clipPath id="clip0_4229_3393">
<rect width="100" height="100" fill="white" transform="translate(20.8477) rotate(12.0335)"/>
</clipPath>
</defs>
</svg>
