<svg width="16" height="16" viewBox="0 0 16 16" fill="none" xmlns="http://www.w3.org/2000/svg">
<path d="M1.27919 13.959C1.06319 14.175 1.06319 14.5255 1.27919 14.7415L2.36519 15.8275C2.47319 15.9355 2.61469 15.9895 2.75669 15.9895C2.89819 15.9895 3.04019 15.9355 3.14819 15.8275L10.6092 8.36655L8.74069 6.49805L1.27919 13.959Z" fill="white"/>
<path d="M11.3211 7.65401L13.3438 5.63135L11.4749 3.76248L9.45222 5.78514L11.3211 7.65401Z" fill="white"/>
<path d="M5.04188 5.99731C5.33538 4.84631 5.57338 4.60831 6.72438 4.31481C5.57288 4.02181 5.33488 3.78381 5.04188 2.63281C4.74838 3.78381 4.51038 4.02181 3.35938 4.31531C4.51038 4.60881 4.74838 4.84631 5.04188 5.99731Z" fill="white"/>
<path d="M9.74588 2.53375C9.96588 1.67025 10.1444 1.49225 11.0074 1.27225C10.1444 1.05175 9.96588 0.873754 9.74588 0.0102539C9.52588 0.873754 9.34737 1.05175 8.48438 1.27175C9.34737 1.49225 9.52588 1.67025 9.74588 2.53375Z" fill="white"/>
<path d="M13.6209 9.97119C13.4009 10.8347 13.2224 11.0127 12.3594 11.2327C13.2229 11.4527 13.4009 11.6312 13.6209 12.4942C13.8409 11.6307 14.0194 11.4527 14.8824 11.2327C14.0194 11.0127 13.8409 10.8347 13.6209 9.97119Z" fill="white"/>
</svg>
