<svg width="24" height="24" viewBox="0 0 24 24" fill="none" xmlns="http://www.w3.org/2000/svg">
<g clip-path="url(#clip0_363_378)">
<path fill-rule="evenodd" clip-rule="evenodd" d="M12.0007 0C5.38332 0 0 5.38363 0 12C0 18.6177 5.38332 24 12.0007 24C18.6167 24 24 18.6177 24 12C24 5.38363 18.6167 0 12.0007 0ZM12.0007 22.3636C6.28499 22.3636 1.63636 17.7137 1.63636 11.9993C1.63636 6.28499 6.28499 1.63636 12.0007 1.63636C17.715 1.63636 22.3636 6.28499 22.3636 11.9993C22.3636 17.7137 17.715 22.3636 12.0007 22.3636ZM16.0346 11.3405L10.8904 7.75828C10.6679 7.60505 10.3992 7.59603 10.1697 7.73252C9.94599 7.86515 9.81818 8.11624 9.81818 8.41884V15.5807C9.81818 15.8846 9.94599 16.1344 10.1708 16.2684C10.2549 16.3186 10.3519 16.3636 10.4927 16.3636C10.63 16.3636 10.7649 16.3211 10.8797 16.2413L16.0287 12.6604C16.2382 12.5149 16.3636 12.2676 16.3636 11.9998C16.3636 11.7294 16.2406 11.4822 16.0346 11.3405Z" fill="url(#paint0_linear_363_378)"/>
<path d="M15.6346 11.915L15.6346 11.915L15.6379 11.9172C15.6377 11.9171 15.6378 11.9172 15.638 11.9174C15.6406 11.92 15.6636 11.9426 15.6636 11.9998C15.6636 12.0517 15.6398 12.0782 15.6294 12.0855L15.6291 12.0857L10.5231 15.6367C10.5203 15.6228 10.5182 15.6044 10.5182 15.5807V8.41884C10.5182 8.39149 10.5211 8.37102 10.5245 8.35652L15.6346 11.915ZM0.7 12C0.7 5.77024 5.7699 0.7 12.0007 0.7C18.23 0.7 23.3 5.77019 23.3 12C23.3 18.2311 18.2301 23.3 12.0007 23.3C5.76985 23.3 0.7 18.2311 0.7 12ZM0.936364 11.9993C0.936364 18.1002 5.89833 23.0636 12.0007 23.0636C18.1017 23.0636 23.0636 18.1001 23.0636 11.9993C23.0636 5.89839 18.1016 0.936364 12.0007 0.936364C5.89845 0.936364 0.936364 5.89833 0.936364 11.9993Z" stroke="url(#paint1_linear_363_378)" stroke-opacity="0.8" stroke-width="1.4"/>
</g>
<defs>
<linearGradient id="paint0_linear_363_378" x1="-3.48909e-09" y1="12" x2="24.0871" y2="12.3624" gradientUnits="userSpaceOnUse">
<stop stop-color="#E4D905"/>
<stop offset="1" stop-color="#FFD051"/>
</linearGradient>
<linearGradient id="paint1_linear_363_378" x1="12" y1="0" x2="12" y2="24" gradientUnits="userSpaceOnUse">
<stop stop-color="white" stop-opacity="0.85"/>
<stop offset="1" stop-color="#7B7004"/>
</linearGradient>
<clipPath id="clip0_363_378">
<rect width="24" height="24" fill="white"/>
</clipPath>
</defs>
</svg>
