<svg width="49" height="48" viewBox="0 0 49 48" fill="none" xmlns="http://www.w3.org/2000/svg">
<path fill-rule="evenodd" clip-rule="evenodd" d="M44.543 24C44.543 35.0456 35.5886 44 24.543 44C13.4973 44 4.54297 35.0456 4.54297 24C4.54297 12.9543 13.4973 4 24.543 4C35.5886 4 44.543 12.9543 44.543 24ZM35.9704 32.8012C36.6262 33.4702 36.6262 34.53 35.9702 35.1992C33.0664 38.1618 29.0194 40 24.5432 40C20.0667 40 16.0196 38.1618 13.1157 35.1988C12.4599 34.5298 12.4599 33.47 13.1157 32.8008C16.0196 29.8382 20.0666 28 24.543 28C29.0194 28 33.0664 29.8384 35.9704 32.8012ZM24.543 24C27.8568 24 30.543 21.3138 30.543 18C30.543 14.6863 27.8568 12 24.543 12C21.2292 12 18.543 14.6863 18.543 18C18.543 21.3138 21.2292 24 24.543 24Z" fill="#FFC758"/>
<path fill-rule="evenodd" clip-rule="evenodd" d="M35.9696 32.8012C36.6254 33.4702 36.6254 34.53 35.9694 35.1992C33.0656 38.1618 29.0186 40 24.5424 40C20.0659 40 16.0189 38.1618 13.1149 35.1988C12.4591 34.5298 12.4591 33.47 13.1149 32.8008C16.0189 29.8382 20.0658 28 24.5422 28C29.0186 28 33.0656 29.8384 35.9696 32.8012ZM24.5422 24C27.856 24 30.5422 21.3138 30.5422 18C30.5422 14.6863 27.856 12 24.5422 12C21.2284 12 18.5422 14.6863 18.5422 18C18.5422 21.3138 21.2284 24 24.5422 24Z" fill="url(#paint0_linear_361_117)"/>
<defs>
<linearGradient id="paint0_linear_361_117" x1="4.04224" y1="12" x2="24.5422" y2="34.5" gradientUnits="userSpaceOnUse">
<stop offset="0.0733813" stop-color="#FFC758"/>
<stop offset="0.13" stop-color="#FFDB92"/>
<stop offset="1" stop-color="#FFF7E8"/>
</linearGradient>
</defs>
</svg>
