<svg width="24" height="24" viewBox="0 0 24 24" fill="none" xmlns="http://www.w3.org/2000/svg">
<g clip-path="url(#clip0_2417_643)">
<path fill-rule="evenodd" clip-rule="evenodd" d="M11.998 18.75C10.7752 18.7527 9.58091 18.3809 8.57575 17.6846C7.57058 16.9883 6.80273 16.0009 6.37545 14.8552C5.94817 13.7095 5.88196 12.4604 6.18571 11.276C6.48946 10.0915 7.14861 9.02851 8.07452 8.22984L6.74819 6H13.4979L10.4749 12.2648L9.04253 9.85664C8.27846 10.6257 7.84965 11.6659 7.8497 12.75C7.84965 13.4322 8.01786 14.104 8.33944 14.7057C8.66102 15.3074 9.12603 15.8205 9.69329 16.1996C10.2605 16.5786 10.9125 16.8119 11.5915 16.8788C12.2705 16.9457 12.9554 16.844 13.5857 16.583C14.2161 16.3219 14.7722 15.9093 15.205 15.3819C15.6378 14.8545 15.9339 14.2285 16.0669 13.5594C16.2 12.8902 16.1659 12.1986 15.9678 11.5457C15.7697 10.8929 15.4137 10.299 14.9312 9.81661L16.2404 8.50734C17.0795 9.34645 17.6509 10.4155 17.8824 11.5794C18.114 12.7433 17.9952 13.9496 17.5411 15.046C17.087 16.1423 16.318 17.0794 15.3313 17.7387C14.3446 18.398 13.1846 18.75 11.998 18.75Z" fill="white"/>
</g>
<defs>
<clipPath id="clip0_2417_643">
<rect width="24" height="24" fill="white"/>
</clipPath>
</defs>
</svg>
