<svg width="24" height="24" viewBox="0 0 24 24" fill="none" xmlns="http://www.w3.org/2000/svg">
<path d="M12.9847 20.044L16.4847 21.882C16.8368 22.0662 17.2335 22.1484 17.6298 22.119C18.0261 22.0897 18.4064 21.9502 18.7276 21.7162C19.0488 21.4821 19.2981 21.1629 19.4474 20.7946C19.5968 20.4264 19.6402 20.0236 19.5727 19.632L18.9057 15.739C18.847 15.3983 18.8721 15.0485 18.9789 14.7197C19.0857 14.391 19.271 14.0931 19.5187 13.852L22.3467 11.095C22.6315 10.8175 22.8329 10.4658 22.9282 10.0797C23.0236 9.69364 23.009 9.2886 22.8861 8.9104C22.7632 8.5322 22.537 8.19593 22.2329 7.93961C21.9289 7.6833 21.5592 7.51716 21.1657 7.46L17.2567 6.892C16.9156 6.84145 16.5919 6.70895 16.3132 6.50588C16.0346 6.30281 15.8093 6.03521 15.6567 5.726L13.9037 2.188C13.7277 1.8314 13.4555 1.53115 13.1178 1.32121C12.7801 1.11126 12.3903 1 11.9927 1C11.595 1 11.2053 1.11126 10.8676 1.32121C10.5299 1.53115 10.2577 1.8314 10.0817 2.188L8.33369 5.732C8.1811 6.04121 7.95582 6.30881 7.67716 6.51188C7.3985 6.71495 7.07477 6.84745 6.73369 6.898L2.82469 7.466C2.43116 7.52316 2.06147 7.6893 1.75744 7.94561C1.45341 8.20193 1.22716 8.5382 1.10429 8.9164C0.981409 9.2946 0.966808 9.69964 1.06213 10.0857C1.15746 10.4718 1.3589 10.8235 1.64369 11.101L4.47169 13.858C4.71939 14.0991 4.90464 14.397 5.01144 14.7257C5.11825 15.0545 5.14339 15.4043 5.08469 15.745L4.41269 19.632C4.34467 20.0242 4.38785 20.4276 4.53734 20.7965C4.68683 21.1654 4.93664 21.485 5.25849 21.7192C5.58033 21.9534 5.96134 22.0928 6.35833 22.1216C6.75533 22.1504 7.15244 22.0674 7.50469 21.882L11.0047 20.044C11.3102 19.8841 11.6499 19.8006 11.9947 19.8006C12.3395 19.8006 12.6792 19.8841 12.9847 20.044Z" fill="url(#paint0_linear_363_382)"/>
<defs>
<linearGradient id="paint0_linear_363_382" x1="11.9927" y1="0.887005" x2="11.9927" y2="22.208" gradientUnits="userSpaceOnUse">
<stop stop-color="#FFF650"/>
<stop offset="1" stop-color="#FFAB17"/>
</linearGradient>
</defs>
</svg>
