<svg width="44" height="44" viewBox="0 0 44 44" fill="none" xmlns="http://www.w3.org/2000/svg">
<g opacity="0.4">
<path d="M25.7661 32.7722C26.0704 32.7721 26.3678 32.6819 26.6207 32.5129C26.8737 32.3438 27.0708 32.1036 27.1873 31.8225C27.3037 31.5414 27.3343 31.2322 27.275 30.9338C27.2157 30.6353 27.0693 30.3612 26.8543 30.146L18.7138 22.005L26.8543 13.8645C27.1427 13.576 27.3048 13.1846 27.3047 12.7766C27.3046 12.3685 27.1424 11.9772 26.8539 11.6887C26.5653 11.4002 26.1739 11.2382 25.7659 11.2383C25.3578 11.2384 24.9665 11.4005 24.678 11.6891L15.45 20.9167C15.1616 21.2052 14.9996 21.5965 14.9996 22.0045C14.9996 22.4125 15.1616 22.8038 15.45 23.0923L24.678 32.3209C24.8207 32.4641 24.9903 32.5777 25.177 32.6551C25.3638 32.7326 25.564 32.7724 25.7661 32.7722Z" fill="white"/>
<path d="M22 42C33.028 42 42 33.028 42 22C42 10.972 33.028 2 22 2C10.972 2 1.99944 10.972 1.99944 22C1.99944 33.028 10.9716 42 22 42ZM22 5.07778C31.3314 5.07778 38.9222 12.6686 38.9222 22C38.9222 31.3314 31.3314 38.9228 22 38.9228C12.6686 38.9228 5.07666 31.3314 5.07666 22C5.07666 12.6686 12.6686 5.07778 22 5.07778Z" fill="white"/>
</g>
</svg>
