<svg width="24" height="24" viewBox="0 0 24 24" fill="none" xmlns="http://www.w3.org/2000/svg">
<g opacity="0.4">
<path d="M8.14316 20C7.91711 20 7.69614 19.9329 7.5082 19.8073C7.32025 19.6817 7.17375 19.5032 7.08723 19.2944C7.0007 19.0855 6.97803 18.8557 7.02207 18.634C7.06612 18.4123 7.1749 18.2086 7.33468 18.0487L13.3831 11.9998L7.33468 5.95135C7.12033 5.73693 6.99995 5.44614 7 5.14296C7.00005 4.83977 7.12055 4.54903 7.33497 4.33468C7.54939 4.12033 7.84018 3.99995 8.14336 4C8.44655 4.00005 8.7373 4.12055 8.95164 4.33497L15.8082 11.1912C16.0225 11.4056 16.1428 11.6963 16.1428 11.9994C16.1428 12.3026 16.0225 12.5933 15.8082 12.8077L8.95164 19.6647C8.84562 19.7711 8.71961 19.8555 8.58087 19.913C8.44212 19.9706 8.29337 20.0001 8.14316 20Z" fill="white"/>
</g>
</svg>
