<svg width="40" height="40" viewBox="0 0 40 40" fill="none" xmlns="http://www.w3.org/2000/svg">
<path d="M23.9583 23.8333H22.8321L22.4425 23.4438C23.8308 21.8358 24.6667 19.7463 24.6667 17.4583C24.6667 12.3725 20.5442 8.25 15.4583 8.25C10.3725 8.25 6.25 12.3725 6.25 17.4583C6.25 22.5442 10.3725 26.6667 15.4583 26.6667C17.7463 26.6667 19.8358 25.8308 21.4438 24.4496L21.8333 24.8392V25.9583L28.9167 33.0275L31.0275 30.9167L23.9583 23.8333ZM15.4583 23.8333C11.9379 23.8333 9.08333 20.9788 9.08333 17.4583C9.08333 13.9379 11.9379 11.0833 15.4583 11.0833C18.9788 11.0833 21.8333 13.9379 21.8333 17.4583C21.8333 20.9788 18.9788 23.8333 15.4583 23.8333Z" fill="white"/>
</svg>
