<svg width="100" height="100" viewBox="0 0 100 100" fill="none" xmlns="http://www.w3.org/2000/svg">
<g clip-path="url(#clip0_365_489)">
<path d="M50 100C77.6142 100 100 77.6142 100 50C100 22.3858 77.6142 0 50 0C22.3858 0 0 22.3858 0 50C0 77.6142 22.3858 100 50 100Z" fill="url(#paint0_linear_365_489)"/>
<path d="M40.8525 72.6716C39.6471 72.6713 38.4911 72.1923 37.6389 71.3398L24.0025 57.7034C23.1745 56.8461 22.7164 55.6979 22.7267 54.5061C22.7371 53.3143 23.2151 52.1743 24.0579 51.3315C24.9007 50.4887 26.0407 50.0107 27.2325 50.0003C28.4243 49.99 29.5725 50.4481 30.4298 51.2761L40.8525 61.6989L69.4571 33.0943C70.3143 32.2663 71.4625 31.8082 72.6543 31.8185C73.8462 31.8289 74.9862 32.3069 75.829 33.1497C76.6717 33.9925 77.1498 35.1325 77.1601 36.3243C77.1705 37.5161 76.7123 38.6643 75.8843 39.5216L44.0662 71.3398C43.2139 72.1923 42.058 72.6713 40.8525 72.6716Z" fill="white"/>
</g>
<defs>
<linearGradient id="paint0_linear_365_489" x1="49.9886" y1="-0.534834" x2="49.9886" y2="100.383" gradientUnits="userSpaceOnUse">
<stop stop-color="#FFF650"/>
<stop offset="1" stop-color="#FFAB17"/>
</linearGradient>
<clipPath id="clip0_365_489">
<rect width="100" height="100" fill="white"/>
</clipPath>
</defs>
</svg>
