<svg width="36" height="36" viewBox="0 0 36 36" fill="none" xmlns="http://www.w3.org/2000/svg">
<path d="M14.6709 21.1406C17.758 21.4229 20.1756 24.0179 20.1758 27.1777C20.1758 30.5265 17.4607 30.5186 14.1123 30.5186H7.86816C4.5198 30.5186 1.80469 30.5268 1.80469 27.1777C1.80492 24.0179 4.22283 21.423 7.30957 21.1406C7.33369 22.2461 8.97217 23.1386 10.9902 23.1387C13.008 23.1387 14.6468 22.2462 14.6709 21.1406ZM10.9912 10.0371C13.3142 10.0371 15.2389 11.834 15.5781 14.1797C15.6127 14.4215 15.6308 14.669 15.6309 14.9209C15.6309 15.0234 15.6272 15.1249 15.6211 15.2256C15.6125 15.3732 15.599 15.5185 15.5781 15.6621C15.5749 15.706 15.57 15.7494 15.5664 15.793C15.2737 19.1038 13.3369 21.6611 10.9912 21.6611C8.64515 21.6611 6.70876 19.1038 6.41602 15.793C6.41206 15.7494 6.40754 15.7064 6.4043 15.6621C6.38342 15.5185 6.37033 15.3732 6.36133 15.2256C6.35593 15.1245 6.35156 15.0234 6.35156 14.9209C6.35158 14.6687 6.36903 14.4215 6.4043 14.1797C6.74352 11.8341 8.66823 10.0371 10.9912 10.0371ZM32.8408 5.48438C33.5949 5.48438 34.2069 6.09552 34.207 6.84961V15.043C34.207 15.7968 33.595 16.4092 32.8408 16.4092H24.2363L20.3916 19.1328C19.9787 19.4251 19.6406 19.2503 19.6406 18.7441V6.84961C19.6408 6.0956 20.2519 5.48451 21.0059 5.48438H32.8408ZM24.5518 12.2656C24.443 12.0799 24.2047 12.0173 24.0186 12.126C23.8335 12.2337 23.7713 12.4716 23.8789 12.6572C24.5078 13.7361 25.6907 14.4062 26.9658 14.4062C28.2084 14.4062 29.3762 13.7614 30.0137 12.7236C30.1258 12.5404 30.0683 12.3011 29.8848 12.1885C29.702 12.0765 29.4636 12.1335 29.3506 12.3164C28.8545 13.1257 27.9403 13.6289 26.9658 13.6289C25.9658 13.6289 25.041 13.1061 24.5518 12.2656ZM25.1992 7.48633C24.6459 7.48633 24.1982 8.18365 24.1982 9.04297C24.1984 9.90213 24.6463 10.5986 25.1992 10.5986C25.7524 10.5985 26.201 9.90203 26.2012 9.04297C26.2012 8.18375 25.7524 7.48649 25.1992 7.48633ZM28.6973 7.48633C28.1451 7.48653 27.6963 8.18377 27.6963 9.04297C27.6964 9.902 28.1452 10.5984 28.6973 10.5986C29.2505 10.5986 29.7001 9.90213 29.7002 9.04297C29.7002 8.18365 29.2506 7.48633 28.6973 7.48633Z" fill="url(#paint0_linear_2144_194)"/>
<defs>
<linearGradient id="paint0_linear_2144_194" x1="18.0022" y1="5.35048" x2="18.0022" y2="30.6143" gradientUnits="userSpaceOnUse">
<stop stop-color="#FFF650"/>
<stop offset="1" stop-color="#FFAB17"/>
</linearGradient>
</defs>
</svg>
