<svg width="24" height="24" viewBox="0 0 24 24" fill="none" xmlns="http://www.w3.org/2000/svg">
<g clip-path="url(#clip0_450_321)">
<path d="M12.0007 21.1673C17.0633 21.1673 21.1673 17.0633 21.1673 12.0007C21.1673 6.93804 17.0633 2.83398 12.0007 2.83398C6.93804 2.83398 2.83398 6.93804 2.83398 12.0007C2.83398 17.0633 6.93804 21.1673 12.0007 21.1673Z" fill="url(#paint0_linear_450_321)"/>
<path d="M14.4993 15.3327C14.2784 15.3326 14.0664 15.2448 13.9102 15.0885L11.4102 12.5885C11.2539 12.4323 11.1661 12.2203 11.166 11.9993V6.99935C11.166 6.77834 11.2538 6.56637 11.4101 6.41009C11.5664 6.25381 11.7783 6.16602 11.9993 6.16602C12.2204 6.16602 12.4323 6.25381 12.5886 6.41009C12.7449 6.56637 12.8327 6.77834 12.8327 6.99935V11.6543L15.0885 13.9102C15.205 14.0267 15.2844 14.1752 15.3165 14.3368C15.3486 14.4985 15.3321 14.666 15.2691 14.8182C15.206 14.9705 15.0992 15.1006 14.9622 15.1922C14.8252 15.2838 14.6641 15.3326 14.4993 15.3327Z" fill="#CFFEFF"/>
</g>
<defs>
<linearGradient id="paint0_linear_450_321" x1="12.0007" y1="2.76315" x2="12.0007" y2="21.2757" gradientUnits="userSpaceOnUse">
<stop stop-color="#A6F9FF"/>
<stop offset="1" stop-color="#3ED0F7"/>
</linearGradient>
<clipPath id="clip0_450_321">
<rect width="20" height="20" fill="white" transform="translate(2 2)"/>
</clipPath>
</defs>
</svg>
