<svg width="32" height="32" viewBox="0 0 32 32" fill="none" xmlns="http://www.w3.org/2000/svg">
<circle cx="8" cy="8" r="8" transform="matrix(-1 0 0 1 17.5996 8)" fill="white"/>
<path d="M9 7H23C27.9625 7 32 11.0375 32 16C32 20.9625 27.9625 25 23 25H9C4.0375 25 -4.76837e-07 20.9625 -4.76837e-07 16C-4.76837e-07 11.0375 4.0375 7 9 7ZM9 23C10.3845 23 11.7378 22.5895 12.889 21.8203C14.0401 21.0511 14.9373 19.9579 15.4672 18.6788C15.997 17.3997 16.1356 15.9922 15.8655 14.6344C15.5954 13.2765 14.9287 12.0292 13.9497 11.0503C12.9708 10.0713 11.7235 9.4046 10.3656 9.1345C9.00777 8.86441 7.6003 9.00303 6.32122 9.53284C5.04213 10.0627 3.94888 10.9599 3.17971 12.111C2.41054 13.2622 2 14.6155 2 16C2.00198 17.8559 2.74012 19.6352 4.05244 20.9476C5.36477 22.2599 7.14409 22.998 9 23Z" fill="#919191"/>
</svg>
