<svg width="60" height="60" viewBox="0 0 60 60" fill="none" xmlns="http://www.w3.org/2000/svg">
<path d="M21.3211 20.8205C20.8226 20.554 20.1667 20.9564 20.1839 21.5233L20.1839 32.4408C20.1839 32.7132 20.3251 32.9657 20.5568 33.1092C20.7885 33.253 21.0779 33.2648 21.3211 33.1437L32.2382 27.6847C32.8069 27.4225 32.8099 26.5413 32.2381 26.279L21.3211 20.8205ZM21.7553 31.1694V22.7947L30.1296 26.9819L21.7553 31.1694Z" fill="#BBBBBB"/>
<path d="M25.9262 37.1106H7.57163V16.8496H45.2859V32.4753C45.2921 33.4988 46.8451 33.5133 46.8573 32.4753C46.8582 32.473 46.8567 16.0634 46.8573 16.0613V8.78571C46.8573 8.35181 46.5059 8 46.0716 8H6.78591C6.35162 8 6.0002 8.35181 6.0002 8.78571C5.99958 8.78801 6.00064 16.0617 6.0002 16.0639L6.0002 37.8963C6.0002 38.3306 6.35162 38.682 6.78591 38.682H25.9262C26.957 38.6707 26.9528 37.1188 25.9262 37.1106ZM45.2859 9.57143V15.2755H7.57163V9.57143H45.2859Z" fill="#BBBBBB"/>
<path d="M11.501 13.1281H15.4296C16.456 13.1239 16.4581 11.5609 15.4296 11.5566L11.501 11.5566C10.4746 11.5608 10.4726 13.1238 11.501 13.1281Z" fill="#BBBBBB"/>
<path d="M19.3564 13.1281H26.4279C27.4533 13.1241 27.4571 11.561 26.4278 11.5566L19.3564 11.5566C18.331 11.5606 18.3272 13.1237 19.3564 13.1281Z" fill="#BBBBBB"/>
<path d="M53.124 35.488C53.0733 35.2563 52.9206 35.0599 52.7081 34.954L49.2507 33.2253C48.9046 33.0526 48.4841 33.1577 48.2601 33.4716L44.1738 39.1925H36.339L32.2527 33.4716C32.0286 33.1577 31.6089 33.0534 31.2621 33.2253L27.8054 34.954C27.3656 35.16 27.2313 35.7761 27.543 36.1479L30.8278 40.2544V51.2138C30.8278 51.6481 31.1792 51.9995 31.6135 51.9995H48.8992C49.3335 51.9995 49.6849 51.6481 49.6849 51.2138V40.2545L52.9705 36.1479C53.1186 35.9622 53.1754 35.7197 53.124 35.488ZM31.3641 34.931L34.408 39.1925H31.991L29.3776 35.9246L31.3641 34.931ZM48.1135 50.4281H32.3992V40.764C36.5899 40.764 43.9227 40.764 48.1135 40.764V50.4281ZM48.5217 39.1925H46.1047L49.1486 34.931L51.1359 35.9246L48.5217 39.1925Z" fill="#BBBBBB"/>
</svg>
