<svg width="24" height="24" viewBox="0 0 24 24" fill="none" xmlns="http://www.w3.org/2000/svg">
<path d="M21.9479 6.5507V13.9936C21.9479 14.1819 21.8731 14.3626 21.7399 14.4957C21.6067 14.6289 21.4261 14.7038 21.2377 14.7038C21.0493 14.7038 20.8687 14.6289 20.7355 14.4957C20.6023 14.3626 20.5275 14.1819 20.5275 13.9936V6.5507C20.5269 5.98582 20.3022 5.44424 19.9028 5.04481C19.5034 4.64538 18.9618 4.42071 18.3969 4.42011H6.55084C5.98596 4.42071 5.44438 4.64538 5.04495 5.04481C4.64552 5.44424 4.42085 5.98582 4.42025 6.5507V18.0275L12.1563 11.8029C12.7866 11.2978 13.5702 11.0227 14.378 11.0229C15.1857 11.0232 15.9691 11.2988 16.5991 11.8043L17.3772 12.4264C17.5244 12.5442 17.6187 12.7155 17.6395 12.9028C17.6603 13.0901 17.6059 13.278 17.4881 13.4251C17.3704 13.5723 17.1991 13.6666 17.0118 13.6874C16.8245 13.7082 16.6366 13.6538 16.4895 13.536L15.7083 12.9111C15.3334 12.6033 14.8635 12.4349 14.3784 12.4346C13.8934 12.4342 13.4232 12.6018 13.0479 12.9089L4.77322 19.5663C4.96676 19.8611 5.2305 20.1032 5.54075 20.2709C5.851 20.4386 6.19804 20.5266 6.5507 20.5269H14.2634C14.4518 20.5269 14.6324 20.6018 14.7656 20.7349C14.8988 20.8681 14.9736 21.0488 14.9736 21.2371C14.9736 21.4255 14.8988 21.6061 14.7656 21.7393C14.6324 21.8725 14.4518 21.9473 14.2634 21.9473H6.55084C5.83071 21.9455 5.12818 21.7246 4.53662 21.314C3.94506 20.9033 3.49249 20.3223 3.23905 19.6483C3.21744 19.5994 3.20153 19.5482 3.19161 19.4957C3.06954 19.1421 3.00485 18.7712 3 18.3971V6.55098C3.00098 5.6095 3.37541 4.70686 4.04114 4.04114C4.70686 3.37541 5.6095 3.00098 6.55098 3H18.3971C19.3385 3.00102 20.241 3.37543 20.9067 4.04109C21.5724 4.70675 21.9468 5.60929 21.9479 6.5507ZM20.0872 15.8408C19.762 15.4663 19.3075 15.2283 18.8145 15.1743C18.7246 15.1331 18.6269 15.1118 18.528 15.1118C18.4291 15.1118 18.3314 15.1331 18.2415 15.1743C17.7481 15.228 17.2931 15.466 16.9676 15.8408L15.2725 17.868C15.1516 18.0125 15.0932 18.1992 15.1099 18.3869C15.1267 18.5746 15.2174 18.7479 15.362 18.8688C15.5065 18.9896 15.6932 19.0481 15.8809 19.0313C16.0686 19.0145 16.2419 18.9239 16.3628 18.7793L17.8178 17.0392V21.2407C17.8178 21.429 17.8926 21.6097 18.0258 21.7429C18.159 21.8761 18.3397 21.9509 18.528 21.9509C18.7164 21.9509 18.897 21.8761 19.0302 21.7429C19.1634 21.6097 19.2382 21.429 19.2382 21.2407V17.0407L20.6918 18.7793C20.8127 18.9239 20.986 19.0145 21.1737 19.0313C21.3614 19.0481 21.5481 18.9896 21.6927 18.8688C21.8372 18.7479 21.9279 18.5746 21.9447 18.3869C21.9615 18.1992 21.903 18.0125 21.7821 17.868L20.0872 15.8408ZM8.69819 6.68308C9.15023 6.68313 9.59211 6.81723 9.96795 7.06841C10.3438 7.31958 10.6367 7.67656 10.8097 8.09421C10.9826 8.51185 11.0279 8.97141 10.9397 9.41476C10.8515 9.85812 10.6338 10.2654 10.3141 10.585C9.99449 10.9046 9.58725 11.1223 9.14389 11.2105C8.70054 11.2987 8.24098 11.2535 7.82334 11.0805C7.40569 10.9076 7.04871 10.6147 6.79754 10.2388C6.54636 9.86298 6.41227 9.4211 6.41221 8.96906C6.41289 8.36299 6.65395 7.78193 7.08251 7.35337C7.51106 6.92482 8.09212 6.68376 8.69819 6.68308ZM8.69819 8.10347C8.52707 8.10353 8.35981 8.15432 8.21756 8.24942C8.07531 8.34452 7.96444 8.47967 7.89898 8.63777C7.83353 8.79587 7.81641 8.96983 7.84981 9.13766C7.88321 9.30548 7.96561 9.45964 8.08661 9.58064C8.20761 9.70163 8.36177 9.78404 8.52959 9.81744C8.69742 9.85083 8.87138 9.83372 9.02948 9.76827C9.18758 9.70281 9.32273 9.59194 9.41783 9.44969C9.51293 9.30743 9.56372 9.14018 9.56378 8.96906C9.56355 8.73956 9.47228 8.51953 9.31 8.35725C9.14772 8.19497 8.92769 8.1037 8.69819 8.10347Z" fill="white"/>
</svg>
