<svg width="100" height="100" viewBox="0 0 100 100" fill="none" xmlns="http://www.w3.org/2000/svg">
<g clip-path="url(#clip0_365_459)">
<path fill-rule="evenodd" clip-rule="evenodd" d="M100 50C100 77.614 77.614 100 50 100C22.3857 100 0 77.614 0 50C0 22.3857 22.3857 0 50 0C77.614 0 100 22.3857 100 50ZM78.5685 72.003C80.208 73.6755 80.208 76.325 78.568 77.998C71.3085 85.4045 61.191 90 50.0005 90C38.8093 90 28.6917 85.4045 21.4318 77.997C19.7922 76.3245 19.7923 73.675 21.4318 72.002C28.6917 64.5955 38.8091 60 50 60C61.191 60 71.3085 64.596 78.5685 72.003ZM50 50C58.2845 50 65 43.2845 65 35C65 26.7158 58.2845 20 50 20C41.7155 20 35 26.7158 35 35C35 43.2845 41.7155 50 50 50Z" fill="#FFC758"/>
<path fill-rule="evenodd" clip-rule="evenodd" d="M78.5656 72.003C80.2051 73.6755 80.2051 76.325 78.5651 77.998C71.3056 85.4045 61.1881 90 49.9976 90C38.8064 90 28.6888 85.4045 21.4289 77.997C19.7893 76.3245 19.7894 73.675 21.4289 72.002C28.6888 64.5955 38.8061 60 49.9971 60C61.1881 60 71.3056 64.596 78.5656 72.003ZM49.9971 50C58.2816 50 64.9971 43.2845 64.9971 35C64.9971 26.7157 58.2816 20 49.9971 20C41.7126 20 34.9971 26.7157 34.9971 35C34.9971 43.2845 41.7126 50 49.9971 50Z" fill="url(#paint0_linear_365_459)"/>
</g>
<defs>
<linearGradient id="paint0_linear_365_459" x1="-1.25281" y1="20" x2="49.9972" y2="76.25" gradientUnits="userSpaceOnUse">
<stop offset="0.0733813" stop-color="#FFC758"/>
<stop offset="0.13" stop-color="#FFDB92"/>
<stop offset="1" stop-color="#FFF7E8"/>
</linearGradient>
<clipPath id="clip0_365_459">
<rect width="100" height="100" fill="white"/>
</clipPath>
</defs>
</svg>
