<svg width="16" height="16" viewBox="0 0 16 16" fill="none" xmlns="http://www.w3.org/2000/svg">
<path fill-rule="evenodd" clip-rule="evenodd" d="M13.1997 6.7866C12.993 4.6666 11.7397 1.33325 7.86637 1.33325C3.99302 1.33325 2.73968 4.6666 2.53302 6.7866C1.80802 7.06175 1.32981 7.75781 1.33302 8.53325V9.4666C1.33302 10.4975 2.16877 11.3333 3.19968 11.3333C4.23062 11.3333 5.06637 10.4975 5.06637 9.4666V8.53325C5.06299 7.77453 4.60237 7.09278 3.89968 6.8066C4.03302 5.57991 4.68637 2.6666 7.86637 2.6666C11.0464 2.6666 11.693 5.57991 11.8264 6.8066C11.1251 7.09341 10.6668 7.77563 10.6664 8.53325V9.4666C10.6678 9.81784 10.7679 10.1616 10.9554 10.4587C11.1428 10.7557 11.41 10.9941 11.7264 11.1466C11.4464 11.6733 10.733 12.3866 8.97968 12.5999C8.62921 12.0677 7.95112 11.8579 7.36131 12.0992C6.77152 12.3404 6.43487 12.9653 6.55787 13.5906C6.68087 14.2158 7.22912 14.6666 7.86637 14.6666C8.11329 14.6652 8.35497 14.5953 8.56449 14.4646C8.77401 14.334 8.94314 14.1477 9.05302 13.9266C11.913 13.5999 12.8264 12.1266 13.113 11.2599C13.8886 11.0087 14.4101 10.2818 14.3997 9.4666V8.53325C14.4029 7.75781 13.9247 7.06175 13.1997 6.7866ZM3.73302 9.4666C3.73302 9.76113 3.49424 9.99991 3.19968 9.99991C2.90512 9.99991 2.66637 9.76116 2.66637 9.4666V8.53325C2.66583 8.46287 2.67923 8.39308 2.70579 8.3279C2.73235 8.26272 2.77155 8.20344 2.82112 8.15349C2.8707 8.10353 2.92968 8.06387 2.99465 8.03682C3.05963 8.00976 3.12931 7.99583 3.1997 7.99583C3.27008 7.99583 3.33977 8.00976 3.40474 8.03682C3.46971 8.06387 3.52869 8.10353 3.57827 8.15349C3.62785 8.20344 3.66704 8.26272 3.6936 8.3279C3.72017 8.39308 3.73356 8.46287 3.73302 8.53325V9.4666ZM11.9997 8.53325C11.9997 8.23869 12.2385 7.99991 12.533 7.99991C12.8276 7.99991 13.0664 8.23869 13.0664 8.53325V9.4666C13.0664 9.76113 12.8276 9.99991 12.533 9.99991C12.2385 9.99991 11.9997 9.76116 11.9997 9.4666V8.53325Z" fill="#5B2E7E"/>
</svg>
