<svg width="80" height="80" viewBox="0 0 80 80" fill="none" xmlns="http://www.w3.org/2000/svg">
<g clip-path="url(#clip0_829_1911)">
<path d="M39.9971 15.25C43.7985 15.25 47.4448 16.7602 50.1328 19.4482C52.8207 22.1362 54.331 25.7818 54.3311 29.583L54.3213 29.7646C54.2796 30.1843 54.0947 30.5791 53.7939 30.8799C53.4501 31.2237 52.9833 31.417 52.4971 31.417C52.011 31.4169 51.5449 31.2235 51.2012 30.8799C50.8574 30.5361 50.6641 30.0692 50.6641 29.583C50.664 26.7542 49.5402 24.0413 47.54 22.041C45.5397 20.0406 42.826 18.917 39.9971 18.917C37.1682 18.9171 34.4554 20.0407 32.4551 22.041C30.4548 24.0413 29.3311 26.7541 29.3311 29.583C29.3311 30.0692 29.1378 30.5361 28.7939 30.8799C28.4501 31.2237 27.9833 31.417 27.4971 31.417C27.011 31.4169 26.5449 31.2235 26.2012 30.8799C25.8574 30.5361 25.6641 30.0692 25.6641 29.583L25.6689 29.2275C25.76 25.555 27.2583 22.0523 29.8623 19.4482C32.5502 16.7603 36.1958 15.2501 39.9971 15.25Z" fill="white" stroke="#01050C" stroke-width="0.5"/>
<path d="M40 21.5C42.1437 21.5001 44.2 22.3514 45.7158 23.8672C47.2317 25.383 48.0829 27.4393 48.083 29.583V38.167H52.499L53.0029 38.1797C55.515 38.307 57.8986 39.3615 59.6855 41.1484C61.4722 42.9353 62.526 45.3183 62.6533 47.8301L62.666 48.334V54.583L62.6533 55.0869C62.526 57.5987 61.4723 59.9817 59.6855 61.7686C57.7796 63.6745 55.1945 64.7468 52.499 64.75H36.833L36.3789 64.7393C34.2661 64.6439 32.2348 63.8932 30.5684 62.5908L30.2168 62.3027L20.1357 53.6602C18.5776 52.3176 17.5912 50.4305 17.3789 48.3848C17.1666 46.3387 17.7445 44.2883 18.9941 42.6543C20.2437 41.0205 22.0705 39.9258 24.1006 39.5947C26.1308 39.2637 28.2111 39.7216 29.915 40.874V40.873L31.5244 41.9844L31.916 42.2539V29.583C31.9161 27.4393 32.7683 25.383 34.2842 23.8672C35.8001 22.3515 37.8563 21.5 40 21.5ZM40 25.167C38.8288 25.167 37.7052 25.6319 36.877 26.46C36.0487 27.2882 35.5831 28.4118 35.583 29.583V45.7451L35.5791 45.8701C35.5593 46.1609 35.4707 46.4438 35.3193 46.6943C35.1465 46.9804 34.8984 47.2137 34.6025 47.3691C34.3066 47.5245 33.9733 47.5962 33.6396 47.5762C33.3475 47.5586 33.0641 47.4711 32.8135 47.3223L32.709 47.2549L27.832 43.8916C27.1782 43.4391 26.4128 43.1744 25.6191 43.126C24.8253 43.0776 24.0332 43.2474 23.3291 43.6172C22.625 43.9871 22.0356 44.5434 21.625 45.2246C21.2153 45.9044 20.9992 46.6829 21 47.4766C20.9891 48.12 21.1191 48.7582 21.3818 49.3457C21.6118 49.8597 21.9386 50.3239 22.3428 50.7139L22.5205 50.877H22.5215L32.6035 59.5195C33.7086 60.4647 35.0958 61.0118 36.543 61.0771L36.833 61.083H52.5C54.2232 61.0811 55.8752 60.3961 57.0938 59.1777C58.236 58.0355 58.9098 56.512 58.9912 54.9062L59 54.584V48.333L58.9912 48.0107C58.9099 46.4049 58.2361 44.8816 57.0938 43.7393C55.9514 42.5969 54.4281 41.9231 52.8223 41.8418L52.5 41.833H46.25C45.7638 41.833 45.2969 41.6397 44.9531 41.2959C44.6095 40.9521 44.416 40.4861 44.416 40V29.583C44.4159 28.4118 43.9513 27.2882 43.123 26.46C42.2948 25.6318 41.1713 25.1671 40 25.167Z" fill="white" stroke="#01050C" stroke-width="0.5"/>
<path d="M54.0557 15.2524C54.2961 15.2651 54.5318 15.3245 54.749 15.4282C54.912 15.506 55.0624 15.6076 55.1953 15.729L55.3223 15.8569C58.7129 19.6244 60.5868 24.515 60.583 29.5835L60.5742 29.7641C60.5326 30.1838 60.3476 30.5785 60.0469 30.8794C59.7031 31.2232 59.2362 31.4165 58.75 31.4165C58.2638 31.4164 57.7979 31.2231 57.4541 30.8794C57.1103 30.5356 56.917 30.0696 56.917 29.5835L56.9131 29.1938C56.8263 25.3 55.3907 21.5562 52.8525 18.602L52.5957 18.31C52.4347 18.131 52.3098 17.9218 52.2295 17.6948C52.1493 17.4679 52.1153 17.2271 52.1279 16.9868C52.1406 16.7465 52.2001 16.5106 52.3037 16.2934C52.4075 16.0762 52.5535 15.8812 52.7324 15.7202C52.9115 15.5591 53.1206 15.4342 53.3477 15.354C53.5746 15.2738 53.8153 15.2397 54.0557 15.2524Z" fill="white" stroke="#01050C" stroke-width="0.5"/>
<path d="M25.9414 15.2524C26.427 15.2267 26.9031 15.395 27.2646 15.7202C27.6262 16.0454 27.8444 16.5011 27.8701 16.9868C27.8925 17.4115 27.7661 17.8286 27.5166 18.1684L27.4023 18.31C24.6171 21.4041 23.0775 25.4204 23.0811 29.5835L23.0713 29.7641C23.0297 30.1838 22.8447 30.5785 22.5439 30.8794C22.2001 31.2232 21.7333 31.4165 21.2471 31.4165C20.761 31.4164 20.2949 31.2231 19.9512 30.8794C19.6074 30.5356 19.4141 30.0696 19.4141 29.5835L19.4189 29.1089C19.5251 24.3682 21.2726 19.8104 24.3623 16.2133L24.6758 15.8569C25.0009 15.4956 25.456 15.2782 25.9414 15.2524Z" fill="white" stroke="#01050C" stroke-width="0.5"/>
<path d="M52.4987 46.25H44.1654C43.6128 46.25 43.0829 46.4695 42.6922 46.8602C42.3015 47.2509 42.082 47.7808 42.082 48.3333C42.082 48.8859 42.3015 49.4158 42.6922 49.8065C43.0829 50.1972 43.6128 50.4167 44.1654 50.4167H52.4987C53.0512 50.4167 53.5811 50.1972 53.9718 49.8065C54.3625 49.4158 54.582 48.8859 54.582 48.3333C54.582 47.7808 54.3625 47.2509 53.9718 46.8602C53.5811 46.4695 53.0512 46.25 52.4987 46.25Z" fill="white"/>
</g>
<defs>
<clipPath id="clip0_829_1911">
<rect width="50" height="50" fill="white" transform="translate(15 15)"/>
</clipPath>
</defs>
</svg>
