<svg width="80" height="80" viewBox="0 0 80 80" fill="none" xmlns="http://www.w3.org/2000/svg">
<path d="M64.9921 24.3682V44.0054C64.9921 44.5024 64.7947 44.979 64.4433 45.3304C64.0919 45.6818 63.6153 45.8792 63.1183 45.8792C62.6214 45.8792 62.1448 45.6818 61.7934 45.3304C61.442 44.979 61.2446 44.5024 61.2446 44.0054V24.3682C61.243 22.8778 60.6502 21.4489 59.5964 20.3951C58.5425 19.3412 57.1136 18.7484 55.6232 18.7468H24.3685C22.8781 18.7484 21.4493 19.3412 20.3954 20.3951C19.3415 21.4489 18.7488 22.8778 18.7472 24.3682V54.6485L39.1579 38.2256C40.8209 36.8929 42.8885 36.1671 45.0196 36.1678C47.1506 36.1685 49.2178 36.8956 50.8799 38.2293L52.9328 39.8707C53.3211 40.1813 53.57 40.6334 53.6249 41.1276C53.6798 41.6217 53.5361 42.1174 53.2255 42.5057C52.9149 42.8939 52.4628 43.1428 51.9687 43.1977C51.4745 43.2526 50.9788 43.1089 50.5906 42.7983L48.5295 41.1494C47.5404 40.3374 46.3005 39.8932 45.0209 39.8921C43.7412 39.8911 42.5007 40.3334 41.5103 41.1438L19.6785 58.7086C20.1891 59.4864 20.8849 60.1252 21.7035 60.5676C22.5221 61.01 23.4377 61.2421 24.3682 61.2431H44.7174C45.2144 61.2431 45.691 61.4405 46.0424 61.7919C46.3938 62.1433 46.5912 62.6199 46.5912 63.1169C46.5912 63.6138 46.3938 64.0904 46.0424 64.4418C45.691 64.7932 45.2144 64.9907 44.7174 64.9907H24.3685C22.4686 64.9859 20.615 64.4031 19.0542 63.3196C17.4935 62.2361 16.2994 60.7033 15.6307 58.9249C15.5737 58.7959 15.5317 58.6609 15.5055 58.5224C15.1835 57.5893 15.0128 56.6107 15 55.6236V24.3689C15.0026 21.8849 15.9905 19.5034 17.7469 17.747C19.5034 15.9905 21.8849 15.0026 24.3689 15H55.6236C58.1074 15.0027 60.4887 15.9906 62.2451 17.7468C64.0014 19.5031 64.9893 21.8844 64.9921 24.3682ZM60.0828 48.8791C59.2249 47.891 58.0258 47.2631 56.725 47.1208C56.4878 47.0121 56.23 46.9559 55.9691 46.9559C55.7082 46.9559 55.4504 47.0121 55.2132 47.1208C53.9113 47.2623 52.7108 47.8903 51.852 48.8791L47.3797 54.2277C47.0609 54.6091 46.9066 55.1016 46.9509 55.5968C46.9952 56.092 47.2343 56.5493 47.6158 56.8682C47.9973 57.187 48.4898 57.3413 48.985 57.297C49.4802 57.2527 49.9375 57.0136 50.2563 56.6321L54.0953 52.041V63.1262C54.0953 63.6232 54.2928 64.0998 54.6442 64.4512C54.9956 64.8026 55.4722 65 55.9691 65C56.4661 65 56.9427 64.8026 57.2941 64.4512C57.6455 64.0998 57.8429 63.6232 57.8429 63.1262V52.0451L61.6782 56.6321C61.997 57.0136 62.4543 57.2527 62.9495 57.297C63.4447 57.3413 63.9372 57.187 64.3187 56.8682C64.7002 56.5493 64.9393 56.092 64.9836 55.5968C65.0279 55.1016 64.8736 54.6091 64.5548 54.2277L60.0828 48.8791ZM30.0341 24.7175C31.2268 24.7176 32.3926 25.0714 33.3842 25.7341C34.3758 26.3968 35.1487 27.3387 35.605 28.4406C36.0614 29.5425 36.1807 30.755 35.948 31.9247C35.7153 33.0945 35.141 34.169 34.2976 35.0123C33.4543 35.8557 32.3798 36.43 31.21 36.6627C30.0403 36.8954 28.8278 36.7761 27.7259 36.3197C26.624 35.8634 25.6821 35.0905 25.0194 34.0989C24.3567 33.1073 24.0029 31.9415 24.0028 30.7488C24.0046 29.1497 24.6406 27.6167 25.7713 26.486C26.902 25.3553 28.435 24.7192 30.0341 24.7175ZM30.0341 28.465C29.5826 28.4652 29.1413 28.5992 28.766 28.8501C28.3907 29.101 28.0982 29.4576 27.9255 29.8747C27.7528 30.2919 27.7076 30.7508 27.7957 31.1936C27.8839 31.6364 28.1013 32.0431 28.4205 32.3624C28.7398 32.6816 29.1465 32.899 29.5893 32.9872C30.0321 33.0753 30.491 33.0301 30.9082 32.8574C31.3253 32.6847 31.6819 32.3922 31.9328 32.0169C32.1837 31.6416 32.3177 31.2003 32.3179 30.7488C32.3173 30.1433 32.0765 29.5627 31.6483 29.1346C31.2201 28.7064 30.6396 28.4656 30.0341 28.465Z" fill="white"/>
</svg>
