<svg width="80" height="80" viewBox="0 0 80 80" fill="none" xmlns="http://www.w3.org/2000/svg">
<path d="M12.5 22.2501C13.7444 22.2501 14.75 23.2557 14.75 24.5001V54.5001C14.75 55.7445 13.7444 56.7501 12.5 56.7501C11.2556 56.7501 10.25 55.7445 10.25 54.5001V24.5001C10.25 23.2557 11.2556 22.2501 12.5 22.2501ZM22.5 22.2501H57.5C58.7444 22.2501 59.75 23.2557 59.75 24.5001V54.5001C59.75 55.7445 58.7444 56.7501 57.5 56.7501H22.5C21.2556 56.7501 20.25 55.7445 20.25 54.5001V24.5001C20.25 23.2557 21.2556 22.2501 22.5 22.2501ZM67.5 22.2501C68.7444 22.2501 69.75 23.2557 69.75 24.5001V54.5001C69.75 55.7445 68.7444 56.7501 67.5 56.7501C66.2556 56.7501 65.25 55.7445 65.25 54.5001V24.5001C65.25 23.2557 66.2556 22.2501 67.5 22.2501ZM24.75 52.2501H55.25V26.7501H24.75V52.2501Z" fill="white" stroke="#01050C" stroke-width="0.5"/>
</svg>
