<svg width="80" height="80" viewBox="0 0 80 80" fill="none" xmlns="http://www.w3.org/2000/svg">
<path d="M62.067 51.0715V28.9287C62.067 27.908 61.5227 26.9644 60.6384 26.4544L41.4621 15.383C40.5778 14.8723 39.4892 14.8723 38.6049 15.383L19.4286 26.4544C18.5443 26.9651 18 27.908 18 28.9287V51.0715C18 52.0922 18.5443 53.0358 19.4286 53.5458L38.6049 64.6164C39.4892 65.1271 40.5778 65.1271 41.4621 64.6164L60.6384 53.545C61.522 53.035 62.067 52.0922 62.067 51.0715Z" stroke="white" stroke-width="2.85713" stroke-miterlimit="10" stroke-linecap="round"/>
<path d="M40.0312 40.0001V65" stroke="white" stroke-width="2.85713" stroke-miterlimit="10" stroke-linecap="round"/>
<path d="M61.6788 27.5038L40.0331 40.0001L18.3789 27.498L40.0331 40.0001" stroke="white" stroke-width="2.85713" stroke-miterlimit="10" stroke-linecap="round"/>
<path d="M28.9688 20.9459L51.0022 33.6673" stroke="white" stroke-width="2.85713" stroke-miterlimit="10" stroke-linecap="round"/>
<path d="M47.4219 47.545V43.4351C47.4219 43.1801 47.5583 42.9436 47.779 42.8165L54.4297 38.9786C54.9061 38.7036 55.5011 39.0472 55.5011 39.5972V43.7058C55.5011 43.9608 55.3647 44.1965 55.144 44.3243L48.4933 48.1643C48.0169 48.4386 47.4219 48.095 47.4219 47.545Z" stroke="white" stroke-width="2.85713" stroke-miterlimit="10" stroke-linecap="round" stroke-linejoin="round"/>
</svg>
