<svg width="39" height="39" viewBox="0 0 39 39" fill="none" xmlns="http://www.w3.org/2000/svg">
<rect opacity="0.15" x="0.75" y="0.75" width="37.5" height="37.5" rx="18.75" stroke="#D0DAF5" stroke-width="1.5"/>
<path fill-rule="evenodd" clip-rule="evenodd" d="M15 26.5H12V17.5H15V26.5V26.5Z" fill="#D0DAF5"/>
<path fill-rule="evenodd" clip-rule="evenodd" d="M13.4911 15.5H13.474C12.5788 15.5 12 14.833 12 13.9995C12 13.1483 12.5964 12.5 13.5087 12.5C14.4209 12.5 14.9827 13.1483 15 13.9995C15 14.833 14.4209 15.5 13.4911 15.5V15.5Z" fill="#D0DAF5"/>
<path fill-rule="evenodd" clip-rule="evenodd" d="M25.9999 26.4998H23.0519V21.7954C23.0519 20.6137 22.6253 19.8074 21.5581 19.8074C20.7437 19.8074 20.2586 20.351 20.0455 20.876C19.9675 21.0641 19.9484 21.3263 19.9484 21.5891V26.5H17C17 26.5 17.0389 18.5318 17 17.7067H19.9484V18.9522C20.3397 18.3535 21.0405 17.5 22.6057 17.5C24.5456 17.5 26 18.7571 26 21.458L25.9999 26.4998V26.4998Z" fill="#D0DAF5"/>
</svg>
