<svg width="70" height="70" viewBox="0 0 70 70" fill="none" xmlns="http://www.w3.org/2000/svg">
<rect x="10" y="10" width="50" height="50" rx="25" fill="#152329"/>
<path d="M41.1874 34.3125H35.6875V28.8125C35.6875 28.433 35.3795 28.125 34.9999 28.125C34.6205 28.125 34.3125 28.433 34.3125 28.8125V34.3125H28.8125C28.433 34.3125 28.125 34.6205 28.125 34.9999C28.125 35.3795 28.433 35.6875 28.8125 35.6875H34.3125V41.1874C34.3125 41.567 34.6205 41.875 34.9999 41.875C35.3795 41.875 35.6875 41.567 35.6875 41.1874V35.6875H41.1874C41.567 35.6875 41.875 35.3795 41.875 34.9999C41.875 34.6205 41.567 34.3125 41.1874 34.3125V34.3125Z" fill="white"/>
</svg>
