<svg width="50" height="50" viewBox="0 0 50 50" fill="none" xmlns="http://www.w3.org/2000/svg">
<rect width="50" height="50" rx="25" fill="url(#paint0_linear_152_444)" fill-opacity="0.25"/>
<path d="M31.0624 24.3125H25.5625V18.8125C25.5625 18.433 25.2545 18.125 24.8749 18.125C24.4955 18.125 24.1875 18.433 24.1875 18.8125V24.3125H18.6875C18.308 24.3125 18 24.6205 18 24.9999C18 25.3795 18.308 25.6875 18.6875 25.6875H24.1875V31.1874C24.1875 31.567 24.4955 31.875 24.8749 31.875C25.2545 31.875 25.5625 31.567 25.5625 31.1874V25.6875H31.0624C31.442 25.6875 31.75 25.3795 31.75 24.9999C31.75 24.6205 31.442 24.3125 31.0624 24.3125Z" fill="#121212"/>
<defs>
<linearGradient id="paint0_linear_152_444" x1="25" y1="0" x2="25" y2="50" gradientUnits="userSpaceOnUse">
<stop stop-color="white"/>
<stop offset="1" stop-color="#571D92"/>
</linearGradient>
</defs>
</svg>
