<svg width="48" height="48" viewBox="0 0 48 48" fill="none" xmlns="http://www.w3.org/2000/svg">
<path fill-rule="evenodd" clip-rule="evenodd" d="M44 24C44 35.0456 35.0456 44 24 44C12.9543 44 4 35.0456 4 24C4 12.9543 12.9543 4 24 4C35.0456 4 44 12.9543 44 24ZM35.4274 32.8012C36.0832 33.4702 36.0832 34.53 35.4272 35.1992C32.5234 38.1618 28.4764 40 24.0002 40C19.5237 40 15.4767 38.1618 12.5727 35.1988C11.9169 34.5298 11.9169 33.47 12.5727 32.8008C15.4767 29.8382 19.5236 28 24 28C28.4764 28 32.5234 29.8384 35.4274 32.8012ZM24 24C27.3138 24 30 21.3138 30 18C30 14.6863 27.3138 12 24 12C20.6862 12 18 14.6863 18 18C18 21.3138 20.6862 24 24 24Z" fill="#FFC758"/>
<path fill-rule="evenodd" clip-rule="evenodd" d="M35.4286 32.8012C36.0844 33.4702 36.0844 34.53 35.4284 35.1992C32.5246 38.1618 28.4776 40 24.0014 40C19.5249 40 15.4778 38.1618 12.5739 35.1988C11.9181 34.5298 11.9181 33.47 12.5739 32.8008C15.4778 29.8382 19.5248 28 24.0012 28C28.4776 28 32.5246 29.8384 35.4286 32.8012ZM24.0012 24C27.315 24 30.0012 21.3138 30.0012 18C30.0012 14.6863 27.315 12 24.0012 12C20.6874 12 18.0012 14.6863 18.0012 18C18.0012 21.3138 20.6874 24 24.0012 24Z" fill="url(#paint0_linear_829_1890)"/>
<defs>
<linearGradient id="paint0_linear_829_1890" x1="3.50122" y1="12" x2="24.0012" y2="34.5" gradientUnits="userSpaceOnUse">
<stop offset="0.0733813" stop-color="#FFC758"/>
<stop offset="0.13" stop-color="#FFDB92"/>
<stop offset="1" stop-color="#FFF7E8"/>
</linearGradient>
</defs>
</svg>
