<svg width="24" height="24" viewBox="0 0 24 24" fill="white" xmlns="http://www.w3.org/2000/svg">
<path d="M2.67747 20.3215C2.39397 20.605 2.39397 21.0651 2.67747 21.3486L4.10284 22.7739C4.24459 22.9157 4.43031 22.9866 4.61669 22.9866C4.80241 22.9866 4.98878 22.9157 5.13053 22.7739L14.9231 12.9814L12.4707 10.529L2.67747 20.3215Z" fill="white"/>
<path d="M15.8609 12.0461L18.5156 9.39136L16.0627 6.93847L13.408 9.59321L15.8609 12.0461Z" fill="white"/>
<path d="M7.61844 9.87205C8.00366 8.36136 8.31603 8.04899 9.82672 7.66377C8.31538 7.27921 8.003 6.96683 7.61844 5.45615C7.23322 6.96683 6.92084 7.27921 5.41016 7.66443C6.92084 8.04965 7.23322 8.36136 7.61844 9.87205Z" fill="white"/>
<path d="M13.7924 5.32555C14.0812 4.19221 14.3155 3.95858 15.4482 3.66983C14.3155 3.38043 14.0812 3.1468 13.7924 2.01346C13.5037 3.1468 13.2694 3.38043 12.1367 3.66918C13.2694 3.95858 13.5037 4.19221 13.7924 5.32555Z" fill="white"/>
<path d="M18.8784 15.0873C18.5896 16.2206 18.3553 16.4542 17.2227 16.743C18.356 17.0317 18.5896 17.266 18.8784 18.3987C19.1671 17.2654 19.4014 17.0317 20.5341 16.743C19.4014 16.4542 19.1671 16.2206 18.8784 15.0873Z" fill="white"/>
</svg>
