<svg width="40" height="40" viewBox="0 0 40 40" fill="none" xmlns="http://www.w3.org/2000/svg">
<path d="M19.1104 32.102C17.4104 32.102 15.8124 31.7847 14.3164 31.15C12.8204 30.4927 11.5057 29.5973 10.3724 28.464C9.23904 27.308 8.34371 25.982 7.68638 24.486C7.05171 22.99 6.73438 21.3807 6.73438 19.658C6.73438 17.9127 7.05171 16.292 7.68638 14.796C8.34371 13.2773 9.23904 11.9627 10.3724 10.852C11.5057 9.71868 12.8204 8.84601 14.3164 8.23401C15.8124 7.59935 17.4104 7.28201 19.1104 7.28201C20.8557 7.28201 22.4764 7.61068 23.9724 8.26801C25.491 8.90268 26.817 9.79801 27.9504 10.954C29.0837 12.0873 29.9677 13.402 30.6024 14.898C31.237 16.3713 31.5544 17.958 31.5544 19.658C31.5544 21.3807 31.2257 22.99 30.5684 24.486C29.9337 25.982 29.0497 27.308 27.9164 28.464C26.783 29.5973 25.457 30.4927 23.9384 31.15C22.4424 31.7847 20.833 32.102 19.1104 32.102ZM12.3784 28.77L19.1104 23.874L25.9104 28.77L23.3264 21.086L29.5824 16.87H21.8984L19.1104 8.57401L16.3904 16.87H8.70638L14.9624 21.086L12.3784 28.77Z" fill="#FF0000"/>
</svg>
