<svg width="20" height="20" viewBox="0 0 20 20" fill="none" xmlns="http://www.w3.org/2000/svg">
<path d="M9.10459 3.48329C9.47143 2.74012 10.5312 2.74012 10.898 3.48329L12.3439 6.41241C12.4894 6.70726 12.7706 6.91172 13.0959 6.95928L16.3309 7.43211C17.1508 7.55195 17.4775 8.55979 16.884 9.13795L14.5448 11.4163C14.3089 11.6461 14.2012 11.9772 14.2569 12.3017L14.8087 15.5193C14.9488 16.3362 14.0913 16.9592 13.3577 16.5734L10.4668 15.0531C10.1754 14.8999 9.82723 14.8999 9.53585 15.0531L6.64493 16.5734C5.9113 16.9592 5.05376 16.3362 5.19387 15.5193L5.74572 12.3017C5.80138 11.9772 5.69372 11.6461 5.45785 11.4163L3.11865 9.13795C2.52506 8.55979 2.85184 7.55195 3.67175 7.43211L6.90667 6.95928C7.23202 6.91172 7.51321 6.70726 7.65875 6.41241L9.10459 3.48329Z" fill="#FFB800"/>
</svg>
