<svg width="16" height="17" viewBox="0 0 16 17" fill="none" xmlns="http://www.w3.org/2000/svg">
<circle cx="8.4" cy="8.4" r="6.4" fill="#2A2F35"/>
<g clip-path="url(#clip0_831_2655)">
<circle cx="8" cy="8" r="5" fill="white"/>
<path d="M8.0013 0.667175C6.55091 0.667175 5.13308 1.09727 3.92712 1.90306C2.72116 2.70886 1.78123 3.85417 1.22619 5.19416C0.671146 6.53415 0.525922 8.00864 0.80888 9.43117C1.09184 10.8537 1.79027 12.1604 2.81586 13.186C3.84144 14.2115 5.14812 14.91 6.57064 15.1929C7.99317 15.4759 9.46766 15.3307 10.8077 14.7756C12.1476 14.2206 13.293 13.2807 14.0987 12.0747C14.9045 10.8687 15.3346 9.4509 15.3346 8.00051C15.3346 6.05559 14.562 4.19033 13.1868 2.81506C11.8115 1.43979 9.94623 0.667175 8.0013 0.667175ZM11.806 6.47184L7.1393 11.1385C7.01429 11.2635 6.84475 11.3337 6.66797 11.3337C6.4912 11.3337 6.32166 11.2635 6.19664 11.1385L4.19664 9.13851C4.0752 9.01277 4.008 8.84437 4.00952 8.66957C4.01104 8.49478 4.08115 8.32757 4.20476 8.20396C4.32836 8.08036 4.49557 8.01024 4.67037 8.00873C4.84517 8.00721 5.01357 8.0744 5.1393 8.19584L6.66797 9.72451L10.8633 5.52918C10.989 5.40774 11.1574 5.34054 11.3322 5.34206C11.507 5.34358 11.6742 5.41369 11.7979 5.5373C11.9215 5.6609 11.9916 5.82811 11.9931 6.00291C11.9946 6.17771 11.9274 6.34611 11.806 6.47184Z" fill="#249566"/>
</g>
<defs>
<clipPath id="clip0_831_2655">
<rect width="16" height="16" fill="white"/>
</clipPath>
</defs>
</svg>
